<?xml version="1.0" encoding="UTF-8"?>
<svg id="Layer_6" data-name="Layer 6" xmlns="http://www.w3.org/2000/svg" viewBox="0 0 100.99 100.5">
  <defs>
    <style>
      .cls-1 {
        fill: #231f20;
        stroke-width: 0px;
      }
    </style>
  </defs>
  <path class="cls-1" d="m4.14,49.27c7.26,4.27,15.27,7.09,23.61,8.28.25.04.47-.32.19-.46-8.46-4.12-16.93-8.24-25.66-11.76-.26-.11-.45.34-.19.46,10.59,4.91,21.41,9.32,32.42,13.2.26.09.39-.24.24-.42-1.28-1.51-2.99-2.42-4.79-3.19-2.48-1.06-5-2.04-7.5-3.05-5.21-2.12-10.42-4.24-15.63-6.35-.26-.11-.45.33-.19.46,3.95,1.94,7.91,3.88,11.86,5.82,1.9.93,3.81,1.87,5.71,2.8,1.75.86,3.48,1.77,5.43,2.09.13.02.28-.03.31-.17.14-.73-.21-1.2-.78-1.65-1.16-.9-2.56-1.59-3.83-2.33-2.71-1.59-5.48-3.09-8.29-4.5-5.43-2.73-11.03-5.11-16.75-7.16-.31-.11-.43.37-.13.48,10.3,4.06,20.61,8.12,30.91,12.18.23.09.42-.26.24-.42-7.59-6.86-18.64-5.6-27.61-9.34-.26-.11-.45.33-.19.46,8.29,4.04,17.01,7.15,25.99,9.25.28.07.42-.3.19-.46-8.22-5.7-17.46-9.8-27.2-12.08-.26-.06-.46.34-.19.46,4.63,2.04,9.28,4.05,13.89,6.15,4.01,1.83,8.75,3.6,11.62,7.1l.3-.39c-6.73-5.08-14.77-8.15-23.16-8.89-.24-.02-.35.36-.13.47,6.99,3.25,14.14,6.13,21.44,8.63.27.09.45-.33.19-.46-6.86-3.35-14.08-5.82-21.3-8.27-.26-.09-.45.34-.19.46l19.46,9.18c.29.14.52-.25.25-.43-6.08-4.3-13.13-6.97-20.53-7.8-.25-.03-.34.36-.13.47,8.08,3.88,16.55,6.85,25.27,8.88.32.07.42-.36.13-.48-7.52-3.11-15.27-5.62-23.19-7.51-.2-.05-.4.18-.28.37.82,1.29,2.14,1.91,3.51,2.46,2.18.87,4.4,1.63,6.64,2.31,4.49,1.36,9.08,2.36,13.72,3.01.32.04.43-.36.13-.48-3.37-1.38-6.8-2.56-10.31-3.55-.31-.09-.44.4-.13.48,3.5.98,6.94,2.16,10.31,3.55l.13-.48c-4.18-.58-8.32-1.45-12.38-2.61-1.95-.56-3.89-1.19-5.8-1.88s-4.27-1.27-5.4-3.06l-.28.37c7.91,1.9,15.66,4.41,23.19,7.51l.13-.48c-8.68-2.01-17.12-4.97-25.15-8.83l-.13.47c7.31.82,14.28,3.49,20.28,7.73l.25-.43c-6.49-3.06-12.98-6.12-19.46-9.18l-.19.46c7.18,2.43,14.36,4.89,21.18,8.22l.19-.46c-7.25-2.48-14.37-5.34-21.32-8.58l-.13.47c8.31.73,16.25,3.8,22.91,8.82.24.18.47-.19.3-.39-2.81-3.44-7.36-5.18-11.29-6.99-4.75-2.18-9.54-4.24-14.32-6.35l-.19.46c9.7,2.27,18.89,6.36,27.08,12.03l.19-.46c-8.94-2.1-17.61-5.18-25.87-9.2l-.19.46c8.87,3.69,19.89,2.43,27.39,9.21l.24-.42c-10.3-4.06-20.61-8.12-30.91-12.18l-.13.48c5.18,1.86,10.25,3.98,15.19,6.4,2.34,1.14,4.65,2.35,6.93,3.62,1.21.67,2.4,1.36,3.59,2.06.85.5,3.83,1.76,3.59,2.95l.31-.17c-2.06-.33-3.89-1.34-5.75-2.25s-3.81-1.87-5.71-2.8c-3.81-1.87-7.62-3.73-11.43-5.6l-.19.46c4.9,1.99,9.81,3.99,14.71,5.98,2.45,1,4.91,1.99,7.36,2.99,2.08.85,4.15,1.75,5.63,3.5l.24-.42c-10.97-3.87-21.75-8.26-32.3-13.15l-.19.46c8.69,3.51,17.12,7.61,25.54,11.71l.19-.46c-8.3-1.19-16.27-3.98-23.49-8.23-.28-.16-.53.27-.25.43h0Z"/>
  <path class="cls-1" d="m27.34,57.15c2.27,3.15,2.84,7.28,3.75,10.96,1.03,4.18,2.06,8.36,3.09,12.55.07.29.47.2.49-.07.33-4.35-1.46-8.73-2.62-12.85-1.24-4.42-2.49-8.83-3.73-13.25l-.48.13c3.01,7.85,1.63,16.94,6.09,24.3.12.2.49.13.47-.13-.82-7.93-1.64-15.86-2.46-23.8l-.49.07c1.3,8.87.46,18.18,4.12,26.57.12.27.51.07.46-.19-1.77-9.07-5.61-17.88-5.13-27.28h-.5c.42,5.02,1.24,10.01,2.49,14.89.62,2.43,1.35,4.83,2.17,7.2.69,1.98,1.37,3.99,2.77,5.6.17.19.49-.01.42-.24-2.92-9.49-4.65-19.3-5.17-29.22-.01-.28-.4-.34-.49-.07-.6,1.76.26,3.6.78,5.29.65,2.12,1.31,4.23,1.98,6.35,1.36,4.3,2.75,8.6,4.18,12.88.09.27.48.22.49-.07.32-6.89-3.52-13-4.47-19.69-.04-.28-.52-.21-.49.07.82,8.87,1.64,17.75,2.46,26.62.02.26.44.37.49.07.66-4.24.03-8.46-.82-12.62-.93-4.52-1.99-9.01-3.15-13.47l-.48.13c3.25,8.56,5.39,17.49,6.37,26.59l.49-.07c-1.75-6.85-3.35-13.74-4.81-20.66-.07-.31-.55-.18-.48.13,1.46,6.92,3.06,13.81,4.81,20.66.07.27.52.22.49-.07-.99-9.15-3.13-18.12-6.39-26.73-.11-.3-.56-.18-.48.13,1.07,4.15,2.06,8.33,2.95,12.53s1.72,8.83,1.02,13.3l.49.07c-.82-8.87-1.64-17.75-2.46-26.62l-.49.07c.94,6.65,4.77,12.72,4.45,19.56l.49-.07c-1.32-3.97-2.61-7.95-3.88-11.94-.62-1.96-1.23-3.91-1.84-5.87s-1.88-4.47-1.21-6.43l-.49-.07c.52,9.96,2.25,19.82,5.18,29.35l.42-.24c-1.53-1.76-2.22-4.09-2.95-6.26s-1.41-4.49-1.98-6.77c-1.18-4.7-1.96-9.48-2.36-14.3-.03-.32-.48-.32-.5,0-.48,9.44,3.37,18.29,5.15,27.41l.46-.19c-3.63-8.33-2.77-17.65-4.07-26.45-.04-.28-.52-.21-.49.07.82,7.93,1.64,15.86,2.46,23.8l.47-.13c-4.43-7.31-3.04-16.37-6.04-24.18-.11-.29-.57-.18-.48.13,1.2,4.26,2.4,8.52,3.6,12.77s3.07,8.76,2.74,13.19l.49-.07c-1.07-4.34-2.14-8.69-3.21-13.03-.88-3.59-1.48-7.54-3.68-10.6-.19-.26-.62,0-.43.25h0Z"/>
  <path class="cls-1" d="m25.26,52.85c.91,1.42,2.47,2.05,3.83,2.94,1.59,1.03,2.78,2.56,3.43,4.34l.42-.24c-2.51-2.41-3.09-7.43-7.2-7.87-.16-.02-.29.17-.24.32.33.92,1.23,1.5,1.79,2.28.64.88,1.1,1.89,1.42,2.92s.53,2.1.67,3.17c.07.52.1,1.04.15,1.55.04.36.11.63.41.86.14.1.32-.01.37-.15,1.32-4.1.21-8.77-2.8-11.85l-.3.39c1.74,1.1,3.49,2.19,5.1,3.47.86.68,1.29,1.42,1.41,2.52.12,1.04.07,2.09-.11,3.12l.49.07c.39-2.98-.43-6.04-2.26-8.43l-.39.3c1.24,1.18,2.68,2.64,2.78,4.46.09,1.52-1.12,3.2.11,4.53.22.24.57-.12.35-.35-.73-.79-.34-1.88-.13-2.8.18-.77.22-1.53,0-2.3-.44-1.56-1.63-2.8-2.78-3.89-.2-.19-.57.07-.39.3,1.78,2.33,2.57,5.27,2.19,8.18-.04.28.44.34.49.07.33-1.84.52-4.39-1-5.77-1.67-1.52-3.72-2.7-5.63-3.9-.24-.15-.5.19-.3.39,2.89,2.96,3.93,7.43,2.67,11.36l.37-.15c-.3-.23-.22-1.17-.26-1.52-.05-.45-.11-.9-.18-1.35-.16-.97-.37-1.92-.7-2.85-.31-.87-.7-1.71-1.23-2.46-.25-.36-.53-.71-.83-1.03-.38-.4-.82-.74-1.02-1.28l-.24.32c1.88.2,3.16,1.83,4.02,3.36s1.54,3.14,2.82,4.36c.17.16.51,0,.42-.24-.59-1.64-1.61-3.08-2.98-4.16s-3.33-1.67-4.33-3.24c-.17-.27-.61-.02-.43.25h0Z"/>
  <path class="cls-1" d="m34.83,76.92c.42,3.31,1.53,6.43,3.31,9.24.18.28.56.04.43-.25-1.24-2.89-1.89-5.95-1.94-9.09,0-.32-.48-.32-.5,0-.09,1.32-.17,2.64-.26,3.96-.05.73-.09,1.45-.14,2.18-.02.36-.14.85.02,1.2.61,1.39,2.95-.16,3.6-.75,1.64-1.48,2.31-3.61,3.25-5.54,1.18-2.42,3.07-4.2,5.67-4.97l-.24-.42c-3.48,3.57-8.78,4.18-12.66,7.17-.18.14-.15.47.13.47,5.32-.05,9.25-3.87,12.72-7.45l-.35-.35c-3.35,4.34-8.59,6.36-13.57,8.2-.3.11-.18.56.13.48,5.75-1.45,11.23-3.82,16.09-7.22.26-.18.04-.58-.25-.43-5.12,2.72-10.24,5.45-15.36,8.17l.25.43c6.45-3.5,12.46-7.75,17.92-12.66.24-.22-.11-.55-.35-.35-4.6,3.67-9.52,7.03-15.12,8.99l.19.46c3.23-2.37,6.49-4.69,9.79-6.96l-.38-.22c.08,1.19-.81,2.15-1.5,3.04s-1.44,1.81-2.2,2.68c-1.41,1.62-2.92,3.15-4.5,4.61-.21.19.06.55.3.39,3.8-2.52,7.36-5.37,10.65-8.53l-.35-.35c-3.86,3.91-8.02,7.5-12.45,10.75-.25.19-.02.61.25.43,2.8-1.81,5.57-3.66,8.31-5.55,2.22-1.54,4.58-3.02,6.17-5.24.17-.24-.19-.49-.39-.3-4.16,4-8.66,7.62-13.45,10.82-.27.18-.03.59.25.43,5.99-3.3,11.63-7.19,16.85-11.61l-.35-.35c-5.08,5.92-11.46,10.46-17.8,14.92-.27.19-.04.56.25.43,4.6-2.08,8.88-4.78,12.74-8.03l-.35-.35c-2.74,2.54-5.84,4.62-9.24,6.2l.34.34c2.35-4.06,6.75-6.31,9.36-10.17.17-.25-.19-.48-.39-.3-4.65,4.08-9.63,7.75-14.9,10.98l.25.43c3.6-2.46,7.21-4.96,10.21-8.16.19-.2-.06-.55-.3-.39-2.07,1.35-4.15,2.71-6.22,4.06l.3.39c1.76-1.56,3.52-3.13,5.28-4.69.74-.66,1.76-1.32,2.32-2.15.27-.4.36-.77.12-1.2-.07-.13-.22-.14-.34-.09-4.04,1.76-8.01,3.66-11.91,5.71-.25.13-.08.54.19.46,3.23-.98,6.36-2.24,9.38-3.76.29-.15.03-.57-.25-.43-2.98,1.48-5.82,3.18-8.53,5.12-.27.19-.04.56.25.43,4.83-2.05,9.66-4.49,12.9-8.76.14-.19-.09-.41-.28-.37-3.72.9-7.26,2.34-10.54,4.31-.28.17-.02.6.25.43,3.25-1.94,6.74-3.37,10.42-4.26l-.28-.37c-3.18,4.19-7.99,6.57-12.72,8.58l.25.43c2.7-1.93,5.55-3.64,8.53-5.12l-.25-.43c-2.98,1.5-6.07,2.74-9.26,3.71l.19.46c3.9-2.05,7.87-3.95,11.91-5.71l-.34-.09c.37.67-1.38,1.86-1.76,2.2l-1.96,1.74c-1.31,1.16-2.62,2.32-3.92,3.49-.21.19.06.55.3.39,2.07-1.35,4.15-2.71,6.22-4.06l-.3-.39c-2.97,3.17-6.54,5.64-10.11,8.08-.26.18-.03.6.25.43,5.3-3.26,10.32-6.96,15-11.06l-.39-.3c-2.61,3.86-7.01,6.1-9.36,10.17-.13.23.13.44.34.34,3.43-1.59,6.57-3.7,9.34-6.27.24-.22-.11-.56-.35-.35-3.83,3.22-8.08,5.89-12.64,7.95l.25.43c6.37-4.49,12.79-9.04,17.9-15,.21-.25-.11-.56-.35-.35-5.19,4.39-10.8,8.25-16.75,11.53l.25.43c4.83-3.23,9.36-6.88,13.55-10.9l-.39-.3c-1.69,2.35-4.31,3.9-6.65,5.51-2.52,1.74-5.08,3.44-7.65,5.1l.25.43c4.47-3.27,8.66-6.89,12.56-10.83.23-.23-.12-.58-.35-.35-3.26,3.13-6.78,5.95-10.55,8.45l.3.39c1.85-1.71,3.6-3.52,5.22-5.45.72-.86,1.43-1.75,2.1-2.65.58-.79,1.1-1.57,1.03-2.58-.01-.17-.21-.33-.38-.22-3.3,2.26-6.57,4.58-9.79,6.96-.21.15-.1.56.19.46,5.68-1.98,10.67-5.39,15.34-9.12l-.35-.35c-5.43,4.88-11.4,9.1-17.82,12.58-.28.15-.03.58.25.43,5.12-2.72,10.24-5.45,15.36-8.17l-.25-.43c-4.84,3.37-10.27,5.72-15.98,7.17l.13.48c5.05-1.87,10.39-3.93,13.79-8.33.19-.25-.12-.59-.35-.35-3.37,3.47-7.19,7.25-12.36,7.3l.13.47c3.92-3.01,9.25-3.64,12.76-7.24.17-.18,0-.49-.24-.42-1.61.48-3.07,1.33-4.22,2.56-1.37,1.46-2.03,3.35-2.88,5.13-.43.9-.92,1.78-1.61,2.52-.33.35-.69.68-1.1.94-.17.11-.34.2-.52.29-.59.27-.68.33-1.2-.02s-.42-.34-.38-.88l.05-.79c.04-.59.08-1.19.11-1.78.08-1.19.15-2.37.23-3.56h-.5c.05,3.23.72,6.37,2.01,9.35l.43-.25c-1.73-2.74-2.84-5.78-3.24-8.99-.04-.32-.54-.32-.5,0h0Z"/>
  <path class="cls-1" d="m37.38,62.76c4.79,7.23,11.35,12.81,19.07,16.72,4.48,2.27,9.06,4.37,13.59,6.54,2.24,1.07,4.5,2.1,6.62,3.4,1.77,1.09,3.45,2.32,5.55,2.66.22.04.45-.24.24-.42-3.14-2.72-7.3-3.91-10.73-6.22-3.73-2.51-7.02-5.62-10.32-8.66-3.59-3.3-7.17-6.6-10.76-9.9-1.46-1.34-2.91-2.69-4.69-3.6s-3.72-1.49-5.17-2.95c-.23-.23-.58.12-.35.35,1.29,1.3,2.95,1.94,4.58,2.69,2.04.95,3.64,2.35,5.28,3.85,3.59,3.3,7.17,6.6,10.76,9.9,3.12,2.87,6.22,5.79,9.7,8.24,1.78,1.25,3.66,2.32,5.62,3.27s4.03,1.9,5.73,3.37l.24-.42c-2.21-.35-3.95-1.73-5.82-2.85-2-1.19-4.13-2.16-6.23-3.17-4.39-2.1-8.82-4.15-13.17-6.33-7.81-3.91-14.46-9.44-19.3-16.75-.18-.27-.61-.02-.43.25h0Z"/>
  <path class="cls-1" d="m39.75,61.58c13.07,8.36,26.59,16.33,38.67,26.11l.18-.43c-1.24,0-2.25-.71-3.28-1.31-.92-.53-1.85-1.07-2.77-1.61-1.72-1-3.43-2-5.14-3.01-3.48-2.06-6.95-4.15-10.36-6.32-6.99-4.45-13.76-9.23-20.03-14.65-.24-.21-.6.14-.35.35,6.42,5.55,13.36,10.44,20.52,14.98,3.61,2.29,7.28,4.49,10.96,6.66,1.84,1.08,3.69,2.16,5.54,3.23,1.49.87,3.12,2.17,4.92,2.18.2,0,.35-.29.18-.43-12.11-9.81-25.67-17.8-38.77-26.19-.27-.17-.52.26-.25.43h0Z"/>
  <path class="cls-1" d="m37.63,60.19c4.29,3.04,8.58,6.08,12.87,9.12s8.45,5.88,12.44,9.13c1.79,1.46,3.46,3.08,5.26,4.53,1.65,1.32,3.47,2.27,5.31,3.29,1.95,1.08,3.39,2.43,4.93,4.01,1.07,1.1,2.25,2.04,3.86,2,.32,0,.32-.51,0-.5-2.22.06-3.55-2-4.96-3.4s-2.98-2.23-4.63-3.12c-4.09-2.2-7.25-5.5-10.88-8.34-7.71-6.04-15.94-11.49-23.94-17.15-.26-.19-.51.25-.25.43h0Z"/>
  <path class="cls-1" d="m82.73,93.35c-1.78-3.63-5.5-5.39-9.1-6.76-2.35-.9-4.73-1.73-6.87-3.07-1.98-1.24-3.74-2.78-5.4-4.41-3.32-3.25-6.4-6.71-9.83-9.85s-7.12-6.1-10.93-8.83c-.17-.12-.36.05-.38.22-.16,1.68.77,3.04,1.83,4.26,1.48,1.72,3.09,3.34,4.7,4.93,3.24,3.19,6.66,6.27,10.44,8.82s8.23,4.77,12.31,7.22,8.23,5.18,12.28,7.85c.27.18.52-.26.25-.43-3.73-2.46-7.45-4.91-11.26-7.24s-7.9-4.41-11.73-6.81-7.21-5.26-10.45-8.34c-1.55-1.47-3.07-2.99-4.53-4.56s-3.57-3.37-3.34-5.72l-.38.22c3.9,2.79,7.64,5.81,11.17,9.05,3.31,3.05,6.29,6.4,9.5,9.54s6.35,5.26,10.35,6.8,8.85,3.06,10.94,7.33c.14.29.57.04.43-.25h0Z"/>
  <path class="cls-1" d="m80.53,90.78c-6.49-6.05-13.14-11.92-19.94-17.61-.2-.17-.55.05-.39.3,3.41,5.39,10.37,6.35,14.97,10.35.24.21.59-.14.35-.35-5.99-5.39-12.05-10.72-18.16-15.99-.22-.19-.5.04-.39.3,1.06,2.47,2.65,4.7,4.09,6.96s3.01,4.74,4.52,7.1l.39-.3c-2.33-2.06-4.67-4.13-7-6.19s-4.8-3.89-6.61-6.31c-.19-.25-.6-.03-.43.25,2.59,4.56,6.36,8.31,10.93,10.88.13.07.33.01.37-.15.33-1.62-1.21-2.78-2.24-3.79-1.58-1.56-3.25-3.03-4.99-4.41-3.33-2.64-6.92-4.94-10.71-6.87-.25-.13-.51.18-.3.39,3.42,3.45,6.59,7.12,9.51,11l.39-.3c-3.9-4.29-8.33-8.04-13.2-11.19l-.25.43c3.62,2.2,7.25,4.39,10.87,6.59.23.14.45-.13.34-.34-1.92-3.87-4.49-7.33-7.65-10.28l-.35.35c1.43,1.12,2.85,2.25,4.28,3.37.17.13.52.02.42-.24-1.19-2.89-3.08-5.33-5.59-7.19-.15-.11-.38.04-.38.22.07,2.09.81,3.97,2.17,5.56l.3-.39c-2.01-1.4-4.01-2.81-6.02-4.21-.22-.15-.45.14-.34.34.92,1.73,5.97,4.11,3.75,6.42l.42.11c-.95-2.89-2.7-5.34-5.13-7.18-.13-.1-.33.01-.37.15-.82,2.73,1.54,5.09,2.98,7.15,1.86,2.66,3.54,5.43,5.06,8.3l.39-.3c-.3-.35-.6-.71-.89-1.06-.21-.25-.56.11-.35.35.3.35.6.71.89,1.06.19.22.52-.06.39-.3-1.3-2.47-2.73-4.87-4.29-7.18-1.46-2.16-4.55-5.05-3.7-7.88l-.37.15c2.32,1.76,4,4.12,4.9,6.88.06.17.28.25.42.11,2.63-2.74-2.7-5.18-3.68-7.03l-.34.34c2.01,1.4,4.01,2.81,6.02,4.21.25.17.48-.19.3-.39-1.27-1.48-1.95-3.25-2.02-5.2l-.38.22c2.39,1.78,4.23,4.14,5.36,6.9l.42-.24c-1.43-1.12-2.85-2.25-4.28-3.37-.25-.19-.59.13-.35.35,3.13,2.92,5.67,6.35,7.57,10.18l.34-.34c-3.62-2.2-7.25-4.39-10.87-6.59-.28-.17-.52.26-.25.43,4.84,3.12,9.23,6.85,13.1,11.11.19.21.56-.07.39-.3-2.94-3.92-6.14-7.63-9.59-11.1l-.3.39c3.26,1.66,6.37,3.59,9.3,5.78,1.53,1.15,3.01,2.37,4.43,3.65.64.58,1.26,1.17,1.88,1.77.84.82,2.38,1.97,2.11,3.3l.37-.15c-4.5-2.53-8.2-6.21-10.75-10.7l-.43.25c1.75,2.34,4.15,4.16,6.32,6.09,2.46,2.17,4.91,4.35,7.37,6.52.2.18.55-.05.39-.3-1.51-2.37-3.01-4.74-4.52-7.1s-3.03-4.49-4.09-6.96l-.39.3c6.11,5.26,12.16,10.59,18.16,15.99l.35-.35c-4.54-3.96-11.53-4.94-14.89-10.25l-.39.3c6.8,5.69,13.45,11.57,19.94,17.61.24.22.59-.13.35-.35h0Z"/>
  <path class="cls-1" d="m39.7,65.39c5.4-4.98,7.21-13,13.49-17.1l-.34-.34c-4.03,7.03-10.76,11.77-16.51,17.27-.15.14-.04.45.18.43,8.78-.84,12.32-10.3,17.79-15.79l-.35-.35c-2.66,3.32-5.32,6.64-7.98,9.96-.2.25.11.57.35.35,4.63-3.98,8.78-8.46,12.4-13.38l-.43-.25c-4.29,5.86-10.14,10.33-15.7,14.91-.23.19.06.51.3.39,6.89-3.32,12.92-8.18,17.62-14.21l-.42-.24c-.63,3.34-2.94,6.14-5.06,8.69s-4.43,4.89-6.91,7.07l.35.35c4.67-4.11,9.36-8.29,12.71-13.59.16-.26-.19-.47-.39-.3-5.38,4.21-11,8.11-16.82,11.69-.27.17-.03.59.25.43,7-4.01,13.35-9.07,18.82-15.01.22-.24-.12-.57-.35-.35-4.85,4.4-9.97,8.49-15.33,12.24l.25.43c5.05-3.58,9.71-7.66,13.93-12.19.22-.24-.12-.58-.35-.35-5.87,5.73-12.11,11.27-19.71,14.56l.3.39c4.31-4.53,9.19-8.45,14.54-11.69l-.34-.34c-2.32,3.21-6.01,5.45-9.2,7.71s-6.56,4.5-9.94,6.6c-.27.17-.03.58.25.43,4.17-2.16,8.12-4.72,11.77-7.68,3-2.42,7.14-5.4,7.63-9.53.02-.19-.23-.31-.38-.22-3.17,2.05-5.91,4.63-8.16,7.67-.17.23.2.51.39.3,4.52-4.93,9.04-9.87,13.56-14.8l-.35-.35c-5.01,5.53-10.2,10.89-15.58,16.07-.2.19.06.55.3.39,8.01-5.38,14.47-12.6,20.82-19.78.21-.24-.12-.58-.35-.35-4.34,4.37-8.68,8.73-13.01,13.1-.23.23.11.56.35.35,6.36-5.37,11.25-12.13,16.07-18.85.16-.23-.21-.52-.39-.3-3.04,3.74-6.28,7.32-9.73,10.7-1.63,1.6-3.35,3.1-5.01,4.67-1.36,1.29-2.56,2.69-3.13,4.5-.07.23.18.37.37.28,9.57-4.32,16.89-12.06,23.94-19.61l-.35-.35c-4.79,5.27-9.54,10.58-14.25,15.92l.39.3c2.48-4.94,5.52-9.56,9.09-13.79l-.39-.3c-3.86,6.32-10.36,10.25-15.36,15.55-.19.21.05.53.3.39,9.86-5.48,19.4-11.53,28.3-18.47l-.35-.35c-6.48,6.36-12.96,12.71-19.43,19.07-.17.17,0,.5.24.42,3.14-1.04,4.9-4.57,6.5-7.21,2.08-3.44,3.89-7.03,5.45-10.73.09-.23-.27-.44-.42-.24-3.94,5.08-8.29,9.82-13.02,14.17-.2.19.07.56.3.39,7.87-5.86,15.26-12.33,22.1-19.37.23-.24-.11-.55-.35-.35-5.16,4.13-10.74,7.68-16.66,10.62l.3.39,15.68-13.97-.35-.35c-4.45,4.39-8.89,8.77-13.34,13.16-.23.23.11.56.35.35,4.89-4.14,9.23-8.87,12.93-14.09.16-.23-.2-.51-.39-.3-3.69,4-7.38,8.01-11.07,12.01l.35.35,8.24-10.39c.2-.25-.13-.6-.35-.35-3.73,4.16-8.06,7.69-12.88,10.52l.3.39c4.57-4.26,9.14-8.51,13.7-12.77l-.39-.3c-2.27,4.1-5.52,7.51-9.51,9.96l.3.39c4.66-5.17,9.39-10.28,14.2-15.32.22-.23-.12-.57-.35-.35-4.65,4.3-9.23,8.66-13.74,13.09-.24.23.11.55.35.35,5.17-4.08,9.61-8.99,13.17-14.53.15-.24-.19-.5-.39-.3-3.44,3.49-6.44,7.36-8.94,11.58-.12.2.08.4.28.37,2.02-.35,3.64-2.37,5.1-3.65,2.04-1.8,4.08-3.6,6.11-5.4l-.39-.3c-1.79,2.81-3.57,5.62-5.36,8.43-.16.25.19.47.39.3,2.59-2.14,4.76-4.7,6.44-7.61.14-.24-.2-.52-.39-.3-3.04,3.5-6.18,6.9-9.43,10.2-.23.23.11.55.35.35,3.63-2.91,7.07-6.04,10.31-9.37l-.39-.3c-3.42,6.64-8.37,12.37-14.45,16.71l.3.39c3.97-3.52,7.72-7.27,11.22-11.24.18-.21-.05-.55-.3-.39-7.98,4.79-15.34,10.51-22.58,16.33-.22.18.08.56.3.39,5.39-4.05,10.31-8.67,14.67-13.8.21-.24-.12-.58-.35-.35-6.62,6.27-13.25,12.55-19.87,18.82-.24.23.11.55.35.35,4.96-3.9,9.91-7.81,14.87-11.71l-.35-.35c-4.7,4.1-9.45,8.31-12.59,13.78-.12.2.13.49.34.34,3.54-2.48,6.77-5.36,9.62-8.62,1.38-1.58,2.67-3.24,3.86-4.97.62-.9,1.29-1.83,1.79-2.8.23-.44.51-1.03.24-1.51-.69-1.24-2.25.48-2.79.96-1.79,1.58-3.52,3.22-5.18,4.92-3.24,3.32-6.23,6.88-8.96,10.63-.19.26.24.51.43.25,3.58-4.81,7.15-9.62,10.73-14.43.17-.23-.21-.52-.39-.3-3.96,4.78-7.92,9.56-11.88,14.34-.2.25.11.56.35.35,3.32-2.84,6.43-5.91,9.3-9.21.21-.24-.11-.56-.35-.35-3.88,3.3-7.72,6.65-11.42,10.15-1.81,1.72-3.6,3.47-5.32,5.27-1.41,1.48-2.72,3.05-3.2,5.09-.05.19.12.34.31.31,2.37-.47,4.48-1.57,6.24-3.24l-.35-.35c-2.63,2.61-5.36,5.12-8.18,7.52-.21.18.07.55.3.39,4.4-3.02,8.64-6.26,12.7-9.73.21-.18-.07-.56-.3-.39-3.61,2.7-7,5.65-10.17,8.87-.2.2.06.55.3.39,1.7-1.07,2.91-2.59,3.56-4.48.04-.12-.05-.28-.17-.31-1.08-.25-2.04.04-3.06.4-1.4.5-2.78,1.04-4.15,1.6-2.62,1.08-5.19,2.27-7.71,3.55l.25.43c5.17-2.7,9.83-6.23,13.83-10.46.16-.17,0-.5-.24-.42-2.83.95-5.39,2.42-7.63,4.38l.35.35c1.22-1.36,2.44-2.71,3.66-4.07.19-.21-.05-.53-.3-.39-3.68,2-6.79,4.82-9.14,8.28-.12.17.08.44.28.37,3.91-1.5,7.39-3.83,10.26-6.88.2-.21-.05-.53-.3-.39-3.28,1.72-6.24,3.93-8.84,6.57-.23.23.11.55.35.35,1.85-1.51,3.53-3.18,5.06-5.01.17-.21-.05-.55-.3-.39-2.83,1.74-5.32,3.91-7.43,6.48-.17.21.04.55.3.39,3.9-2.37,7.44-5.25,10.55-8.59.22-.24-.12-.57-.35-.35-.96.9-1.93,1.81-2.89,2.71-.24.23.11.55.35.35,3.67-2.88,7.36-5.85,9.8-9.9.13-.21-.13-.48-.34-.34-3.24,2.04-6.14,4.55-8.63,7.46-.21.25.1.55.35.35,3.62-2.8,6.8-6.08,9.5-9.77.15-.21-.14-.47-.34-.34-1.61,1.01-2.94,2.32-3.98,3.91-.16.25.19.49.39.3,2.82-2.56,5.32-5.43,7.48-8.57l-.46-.19-.62,1.9c-.1.31.38.44.48.13l.62-1.9c.09-.28-.3-.42-.46-.19-2.14,3.11-4.61,5.94-7.4,8.47l.39.3c1-1.52,2.26-2.76,3.8-3.73l-.34-.34c-2.68,3.65-5.84,6.89-9.42,9.67l.35.35c2.46-2.89,5.32-5.36,8.53-7.38l-.34-.34c-2.42,4.01-6.08,6.94-9.72,9.8l.35.35c.96-.9,1.93-1.81,2.89-2.71l-.35-.35c-3.08,3.31-6.58,6.17-10.45,8.51l.3.39c2.08-2.53,4.53-4.68,7.33-6.4l-.3-.39c-1.53,1.83-3.21,3.5-5.06,5.01l.35.35c2.57-2.61,5.49-4.79,8.74-6.49l-.3-.39c-2.81,2.98-6.21,5.28-10.04,6.75l.28.37c2.31-3.39,5.36-6.14,8.96-8.1l-.3-.39c-1.22,1.36-2.44,2.71-3.66,4.07-.22.24.11.57.35.35,2.18-1.91,4.66-3.34,7.41-4.25l-.24-.42c-3.98,4.21-8.6,7.7-13.73,10.39-.29.15-.03.58.25.43,2.35-1.2,4.73-2.31,7.16-3.32,1.15-.48,2.31-.94,3.48-1.38,1.23-.46,2.56-1.12,3.9-.81l-.17-.31c-.61,1.77-1.75,3.19-3.33,4.19l.3.39c3.13-3.18,6.49-6.12,10.06-8.79l-.3-.39c-4.03,3.43-8.23,6.65-12.6,9.65l.3.39c2.82-2.4,5.55-4.91,8.18-7.52.23-.23-.12-.58-.35-.35-1.7,1.62-3.72,2.65-6.02,3.11l.31.31c.54-2.34,2.24-4.03,3.87-5.69s3.44-3.43,5.21-5.09c3.49-3.27,7.1-6.41,10.74-9.51l-.35-.35c-2.87,3.3-5.97,6.37-9.3,9.21l.35.35c3.96-4.78,7.92-9.56,11.88-14.34l-.39-.3c-3.58,4.81-7.15,9.62-10.73,14.43l.43.25c2.36-3.23,4.91-6.32,7.65-9.24,1.33-1.41,2.7-2.78,4.1-4.11.65-.61,1.31-1.22,1.98-1.81.33-.3.67-.6,1.01-.88.41-.64.85-.62,1.31.06-.08.23-.19.45-.32.66-3.52,6.36-9.07,11.88-14.98,16.03l.34.34c3.12-5.44,7.84-9.6,12.51-13.68.25-.22-.11-.55-.35-.35-4.96,3.9-9.91,7.81-14.87,11.71l.35.35c6.62-6.27,13.25-12.55,19.87-18.82l-.35-.35c-4.34,5.1-9.22,9.7-14.57,13.72l.3.39c7.21-5.79,14.53-11.49,22.48-16.25l-.3-.39c-3.51,3.98-7.25,7.73-11.22,11.24-.21.19.07.56.3.39,6.15-4.39,11.17-10.17,14.63-16.89.13-.24-.19-.51-.39-.3-3.25,3.33-6.69,6.46-10.31,9.37l.35.35c3.25-3.3,6.4-6.7,9.43-10.2l-.39-.3c-1.66,2.88-3.8,5.39-6.36,7.51l.39.3c1.79-2.81,3.57-5.62,5.36-8.43.16-.25-.19-.48-.39-.3-1.79,1.58-3.58,3.16-5.37,4.74-.86.76-1.73,1.53-2.59,2.29-.92.81-1.77,1.67-3.03,1.89l.28.37c2.48-4.18,5.45-8.02,8.86-11.47l-.39-.3c-3.54,5.51-7.96,10.37-13.1,14.43l.35.35c4.52-4.43,9.1-8.8,13.74-13.09l-.35-.35c-4.81,5.04-9.54,10.14-14.2,15.32-.18.2.05.55.3.39,4.06-2.5,7.38-5.97,9.69-10.14.14-.25-.18-.5-.39-.3-4.57,4.26-9.14,8.51-13.7,12.77-.21.19.06.54.3.39,4.85-2.85,9.22-6.41,12.98-10.6l-.35-.35c-2.75,3.46-5.5,6.92-8.24,10.39-.19.25.13.6.35.35,3.69-4,7.38-8.01,11.07-12.01l-.39-.3c-3.68,5.19-7.99,9.89-12.85,13.99l.35.35c4.45-4.39,8.89-8.77,13.34-13.16.23-.23-.11-.57-.35-.35-5.23,4.66-10.46,9.31-15.68,13.97-.22.2.06.51.3.39,5.96-2.96,11.57-6.54,16.76-10.7l-.35-.35c-6.81,7-14.17,13.45-22,19.29l.3.39c4.73-4.35,9.08-9.09,13.02-14.17l-.42-.24c-1.42,3.38-3.07,6.67-4.94,9.84-1.6,2.71-3.46,6.7-6.66,7.76l.24.42c6.48-6.36,12.96-12.71,19.43-19.07.24-.23-.11-.55-.35-.35-8.86,6.92-18.37,12.94-28.19,18.39l.3.39c5.03-5.33,11.55-9.29,15.44-15.65.14-.24-.21-.52-.39-.3-3.59,4.26-6.66,8.91-9.16,13.89-.12.24.19.53.39.3,4.7-5.35,9.45-10.66,14.25-15.92.22-.24-.13-.59-.35-.35-7.02,7.52-14.3,15.23-23.84,19.53l.37.28c.67-2.12,2.27-3.63,3.87-5.08s3.23-2.97,4.79-4.52c3.2-3.19,6.23-6.55,9.07-10.05l-.39-.3c-4.8,6.68-9.67,13.41-15.99,18.75l.35.35c4.34-4.37,8.68-8.73,13.01-13.1l-.35-.35c-6.32,7.14-12.74,14.34-20.72,19.7l.3.39c5.37-5.18,10.57-10.54,15.58-16.07.22-.24-.14-.59-.35-.35-4.52,4.93-9.04,9.87-13.56,14.8l.39.3c2.19-2.97,4.88-5.49,7.98-7.49l-.38-.22c-.27,2.27-1.76,4-3.34,5.53s-3.16,2.88-4.84,4.2c-3.42,2.7-7.11,5.04-10.98,7.04l.25.43c3.65-2.27,7.23-4.65,10.72-7.15,3.01-2.16,6.4-4.3,8.6-7.34.15-.21-.14-.46-.34-.34-5.39,3.26-10.3,7.2-14.64,11.76-.21.22.05.5.3.39,7.64-3.31,13.92-8.88,19.82-14.64l-.35-.35c-4.19,4.5-8.81,8.56-13.83,12.12-.26.18-.01.62.25.43,5.4-3.77,10.56-7.89,15.44-12.32l-.35-.35c-5.44,5.91-11.75,10.94-18.72,14.93l.25.43c5.86-3.6,11.51-7.53,16.92-11.77l-.39-.3c-3.33,5.26-8,9.41-12.64,13.49-.24.21.11.56.35.35,2.7-2.37,5.21-4.95,7.47-7.75,1.98-2.45,4.03-5.06,4.63-8.23.04-.22-.25-.46-.42-.24-4.67,6-10.66,10.83-17.51,14.14l.3.39c5.59-4.62,11.45-9.11,15.78-15.02.19-.26-.24-.51-.43-.25-3.59,4.88-7.72,9.33-12.32,13.28l.35.35c2.66-3.32,5.32-6.64,7.98-9.96.2-.25-.12-.59-.35-.35-5.35,5.36-8.87,14.82-17.44,15.64l.18.43c5.78-5.53,12.53-10.3,16.58-17.37.12-.21-.13-.48-.34-.34-6.34,4.14-8.16,12.17-13.59,17.18-.24.22.12.57.35.35h0Z"/>
  <path class="cls-1" d="m44.44,64.14c.1,1.9.66,3.67,1.68,5.27.15.24.53.09.46-.19-.66-2.61-1.31-5.22-1.97-7.83-.07-.27-.52-.22-.49.07.4,4.02.99,8.02,1.78,11.98.05.23.45.24.48,0,.74-5.12-.38-10.31-3.21-14.65-.11-.16-.42-.17-.46.06-.63,3.84-.62,7.72.03,11.56.05.28.49.21.49-.07.03-3.45-.7-6.8-2.16-9.93-.12-.26-.52-.07-.46.19.75,3.1,1.9,6.06,3.43,8.85.1.18.42.16.46-.06.52-3.07.78-6.16.77-9.27,0-.32-.48-.32-.5,0-.25,4.52-.46,9.05.29,13.53.05.29.48.2.49-.07.14-2.83.02-5.65-.38-8.46-.04-.28-.53-.21-.49.07.32,2.37.78,4.7,1.39,7.01.07.28.48.21.49-.07.1-2.52.21-5.04.31-7.56.01-.32-.48-.32-.5,0-.11,2.23-.06,4.46.19,6.68.14,1.22.19,2.83,1.46,3.42.13.06.33.02.37-.15.76-4.02,1.51-8.04,2.26-12.07.06-.31-.42-.45-.48-.13-.71,3.61-1.37,7.39.03,10.92.08.2.44.27.48,0,.29-1.92.58-3.83.87-5.75l-.49-.07c.04,2.81.4,5.59,1.07,8.33.06.25.41.23.48,0,.87-2.73,1.36-5.53,1.45-8.39,0-.28-.43-.34-.49-.07-.77,3.21-.42,6.5,1,9.48.1.2.4.14.46-.06.62-2.29.92-4.61.9-6.98,0-.33-.47-.31-.5,0-.4,3.8-.81,7.59-1.21,11.39-.03.24.37.35.47.13,1.08-2.45,1.86-4.99,2.31-7.63l-.49-.07c-.01,2.43-.03,4.86-.04,7.29,0,.23.36.36.47.13,1.28-2.79,2.14-5.71,2.56-8.75.04-.31-.39-.45-.48-.13-.66,2.26-.9,4.58-.71,6.93.02.19.28.36.43.18,1.03-1.26,1.62-2.69,1.78-4.31.03-.3-.4-.32-.49-.07-.57,1.64-.89,3.32-.96,5.05-.01.26.34.32.47.13.33-.49.52-.96.61-1.55.05-.31-.43-.45-.48-.13-.09.53-.26.98-.56,1.43l.47.13c.07-1.69.39-3.32.95-4.92l-.49-.07c-.15,1.48-.7,2.81-1.64,3.96l.43.18c-.18-2.31.05-4.57.69-6.8l-.48-.13c-.42,2.99-1.25,5.88-2.51,8.63l.47.13c.01-2.43.03-4.86.04-7.29,0-.27-.44-.35-.49-.07-.44,2.59-1.19,5.1-2.26,7.51l.47.13c.4-3.8.81-7.59,1.21-11.39h-.5c.02,2.33-.27,4.61-.88,6.85l.46-.06c-1.36-2.85-1.69-6.02-.95-9.09l-.49-.07c-.09,2.82-.57,5.57-1.43,8.26h.48c-.66-2.69-1.01-5.42-1.05-8.19,0-.27-.45-.35-.49-.07-.29,1.92-.58,3.83-.87,5.75h.48c-1.37-3.45-.72-7.13-.03-10.66l-.48-.13c-.75,4.02-1.5,8.05-2.26,12.07l.37-.15c-1.43-.66-1.28-3.37-1.37-4.7-.11-1.65-.12-3.31-.04-4.96h-.5c-.1,2.52-.21,5.04-.31,7.56l.49-.07c-.6-2.26-1.06-4.56-1.37-6.88l-.49.07c.39,2.76.5,5.54.36,8.33l.49-.07c-.74-4.44-.52-8.93-.27-13.39h-.5c0,3.07-.24,6.11-.75,9.13l.46-.06c-1.51-2.76-2.64-5.68-3.38-8.73l-.46.19c1.42,3.05,2.12,6.32,2.09,9.67l.49-.07c-.64-3.75-.65-7.55-.03-11.3l-.46.06c2.75,4.21,3.88,9.28,3.16,14.26h.48c-.78-3.92-1.37-7.87-1.76-11.85l-.49.07c.66,2.61,1.31,5.22,1.97,7.83l.46-.19c-.97-1.53-1.51-3.2-1.61-5.02-.02-.32-.52-.32-.5,0h0Z"/>
  <path class="cls-1" d="m55.41,75.59l-3.48.61c-.28.05-.21.49.07.49,2.84.04,5.69.19,8.52.45,1.47.14,2.93.31,4.39.51,1.26.17,2.99.19,3.82,1.32l.15-.37c-3.41.5-6.78-.34-10.18-.53-.52-.03-5.73-.24-4.01,1.46.82.81,2.62.77,3.69.92,1.55.22,3.11.38,4.67.46,3.26.17,6.51,0,9.74-.45.24-.03.23-.44,0-.48-4.29-.83-8.68-.53-12.81.91-.26.09-.23.49.07.49,4.4-.06,8.79.15,13.16.61v-.5c-2.53-.07-4.96.41-7.29,1.4-.26.11-.08.44.13.47l2.66.35,1.11.14c.7.09,1.01,0,1.43.61.47.68.2.59-.36.9-.26.14-.53.24-.75.44-.28.25-.41.45-.47.82-.03.15.07.32.24.32,1.79-.07,3.59-.14,5.38-.21l-.18-.43c-.55.69-1.1,1.38-1.65,2.07-.09.11-.09.24,0,.35.24.3.44.38.81.35.32-.02.32-.52,0-.5l-.46-.21v.35c.55-.69,1.1-1.38,1.65-2.07.12-.16.06-.44-.18-.43-1.79.07-3.59.14-5.38.21l.24.32c.15-.85,3.11-1.58,2-2.87-.44-.51-1.52-.43-2.11-.5-1.33-.17-2.66-.35-3.99-.52l.13.47c2.24-.96,4.6-1.4,7.04-1.33.33,0,.31-.47,0-.5-4.37-.46-8.76-.67-13.16-.61l.07.49c4.05-1.41,8.34-1.73,12.54-.91v-.48c-5.42.75-10.94.65-16.32-.37-.27-.05-.67-.06-.89-.22-.35-.05-.34-.19.01-.43.07-.27.23-.39.47-.36.51-.19,1.36-.08,1.92-.07,1.29.02,2.57.17,3.85.33,2.44.29,4.86.58,7.32.22.15-.02.24-.25.15-.37-.58-.79-1.39-1.09-2.33-1.28-1.48-.3-3.02-.44-4.53-.61-3.42-.38-6.86-.59-10.31-.64l.07.49,3.48-.61c.32-.06.18-.54-.13-.48h0Z"/>
  <path class="cls-1" d="m32.28,71.51l.71,8.8c.08,1.03.31,3.8,2.04,2.43.66-.52.9-1.43,1.11-2.19.34-1.19.59-2.41.75-3.64.36-2.76.24-5.53-.29-8.25-.05-.24-.44-.24-.48,0-.47,2.69-.95,5.37-1.42,8.06-.06.32.37.44.48.13.9-2.39,1.81-4.78,2.71-7.16l-.48-.13c-.52,2.71-1.34,5.32-2.49,7.82-.13.29.29.54.43.25,1.2-2.53,2.13-5.18,2.75-7.91.28-1.26.55-2.55.65-3.84.06-.74,0-1.44-.69-1.84-.12-.07-.27-.02-.34.09-2.2,3.38-3.85,7.05-4.91,10.93-.07.27.32.45.46.19,1.65-3.08,2.76-6.37,3.3-9.82.04-.26-.3-.46-.46-.19-1.89,3.24-3.41,6.66-4.58,10.23-.1.29.3.4.46.19,2.64-3.44,4.33-7.53,4.84-11.84.1-.85-.17-2.27-1.22-1.16-.69.74-1.15,1.87-1.61,2.76-.53,1.04-.99,2.1-1.42,3.18l.48.13c.92-2.65,1.62-5.36,2.12-8.12.04-.23-.23-.43-.42-.24-2.27,2.33-3.81,5.18-4.5,8.36-.03.14.07.34.24.32,1.38-.18,1.97-2.12,2.48-3.2.87-1.85,1.52-3.78,1.99-5.77.06-.24-.23-.42-.42-.24-1.63,1.57-2.79,3.46-3.46,5.62-.09.29.3.41.46.19.68-.97,4.82-8.73,2.21-8.92-.5-.04-1.04.49-1.4.77-.8.63-1.51,1.35-2.14,2.14-1.13,1.44-1.92,3.08-2.38,4.85-.06.22.18.37.37.28,2.12-.99,3.74-2.86,4.29-5.15.14-.58.3-1.39-.48-1.5-.96-.14-1.17,1.12-1.76,1.53l.25.43c1.61-1.15,2.52-2.87,2.55-4.85,0-.21-.21-.29-.38-.22-2.01.88-3.46,2.52-4.09,4.62-.07.23.18.36.37.28,2.02-.87,3.05-3.14,2.4-5.23-.09-.31-.58-.18-.48.13.59,1.9-.35,3.88-2.17,4.67l.37.28c.6-1.99,1.96-3.5,3.87-4.32l-.38-.22c-.02,1.79-.84,3.37-2.3,4.41-.26.18-.01.62.25.43.3-.21.52-.82.77-.95l.78.19c-.04.18-.08.36-.14.53-.13.45-.31.87-.53,1.29-.76,1.44-1.97,2.53-3.44,3.21l.37.28c.35-1.33.88-2.59,1.63-3.75.66-1.02,1.84-2.72,3.01-3.21l.31-.22.75.48c.09.21-.19,1.26-.26,1.56-.13.6-.3,1.2-.5,1.79-.51,1.48-1.25,2.85-2.15,4.13l.46.19c.65-2.09,1.76-3.88,3.33-5.4l-.42-.24c-.34,1.46-.78,2.89-1.34,4.27-.4.98-1.42,4.17-2.64,4.33l.24.32c.67-3.1,2.16-5.87,4.37-8.14l-.42-.24c-.5,2.76-1.21,5.46-2.12,8.12-.11.31.37.43.48.13.63-1.6,1.31-3.47,2.35-4.86l.23-.39c.58-.48.82-.51.72-.08.17.26-.12,1.02-.18,1.39-.12.76-.29,1.51-.48,2.26-.81,3.04-2.24,5.86-4.15,8.36l.46.19c1.15-3.53,2.67-6.9,4.53-10.11l-.46-.19c-.54,3.41-1.62,6.66-3.25,9.7l.46.19c1.05-3.85,2.68-7.47,4.86-10.81l-.34.09c1,.58.29,2.64.12,3.57-.19,1.03-.42,2.06-.69,3.07-.58,2.16-1.37,4.24-2.32,6.26l.43.25c1.17-2.54,2.02-5.19,2.55-7.94.06-.32-.37-.43-.48-.13-.9,2.39-1.81,4.78-2.71,7.16l.48.13c.47-2.69.95-5.37,1.42-8.06h-.48c.77,3.94.62,8-.53,11.85-.06.22-.13.44-.2.65-.09.67-.43.8-1.04.39-.65.11-.92-.11-.81-.66l-.06-.71-.23-2.85-.48-5.94c-.03-.32-.53-.32-.5,0h0Z"/>
  <path class="cls-1" d="m3.7,45.09c-.15-.77.02-1.49.46-2.12l-.46-.06c.66,2.91-.09,6.23,1.82,8.77.07.1.22.18.34.09.46-.34.54-.83.57-1.37.05-1.03.06-2.06.07-3.08.01-1.54-.13-3.11-1.16-4.33-.13-.15-.36-.05-.42.11-1.55,4.68,4.49,7.55,8.16,8.02,1.66.21,4.06-.03,4.44-2.04.34-1.76-1.32-3.15-3.01-2.69-.31.08-.18.57.13.48,2-.55,3.34,2.09,1.59,3.3-1.39.96-3.5.49-4.98.03-2.92-.91-7.09-3.24-5.86-6.97l-.42.11c.89,1.05,1.01,2.45,1.01,3.77,0,.67-.02,1.34-.04,2.01-.01.58.19,1.83-.35,2.23l.34.09c-1.87-2.48-1.12-5.79-1.77-8.65-.05-.23-.34-.22-.46-.06-.53.75-.69,1.61-.51,2.51.06.32.54.18.48-.13h0Z"/>
  <path class="cls-1" d="m7.7,47.77c10.15-4.61,20.08-9.68,29.78-15.18l-.3-.39c-4.19,3.65-9.77,4.68-14.93,6.25-5.63,1.71-11.05,4.06-16.17,6.97-.2.11-.13.5.13.47,6.81-.9,13.46-3.28,19.86-5.68,5.49-2.06,10.93-4.73,14.62-9.44.16-.2-.05-.57-.3-.39-10.09,7.08-21.18,12.61-32.91,16.4-.3.1-.18.58.13.48,14.51-4.38,29.39-8.96,41.52-18.42.22-.17-.07-.56-.3-.39-9.55,6.87-21.09,10.65-32.86,10.74l.07.49c12.77-2.84,25.05-7.63,36.36-14.2.28-.16.03-.58-.25-.43-12.85,6.75-26.01,12.89-39.44,18.4l.19.46c9.64-4.62,19.08-9.64,28.37-14.93l-.25-.43c-10.88,6.44-23.54,8.53-35.12,13.31-.23.1-.24.52.07.49,5.47-.57,10.86-1.74,16.07-3.54,4.61-1.59,9.94-3.45,13.34-7.11.19-.2-.05-.54-.3-.39-9.8,5.73-20.2,10.39-31,13.88-.31.1-.18.54.13.48,11.74-2.34,22.95-6.92,32.96-13.48l-.3-.39c-2.1,2.43-5.68,3.26-8.61,4.27-3.21,1.11-6.45,2.12-9.72,3.05l.19.46c10.32-4.59,20.65-9.17,31.29-13l-.13-.48c-7.19,2.99-14.38,5.97-21.58,8.96-.29.12-.18.58.13.48,13.42-4.07,26.42-9.42,38.81-15.98l-.3-.39c-6.51,6.68-14.94,11.23-24.1,13l.13.48c6.04-1.55,12.03-3.31,17.94-5.3,5.43-1.82,11.06-3.61,15.85-6.83.22-.15.09-.55-.19-.46-6.1,2.04-12.2,4.09-18.3,6.13s-11.82,3.66-17.44,6.14c-.28.12-.06.5.19.46,11.21-1.71,21.96-5.79,31.49-11.93l-.25-.43c-11.19,7.56-23.62,13.14-36.71,16.46l.13.48c12.35-4.38,24.74-8.81,36.25-15.17.24-.13.08-.55-.19-.46-12.65,4.21-25.5,7.79-38.5,10.74-.28.06-.21.48.07.49,3.57.18,6.98-.9,10.34-2,3.56-1.17,7.07-2.46,10.54-3.87,6.74-2.75,13.29-5.96,19.6-9.6.24-.14.08-.56-.19-.46-10.52,3.97-20.96,8.17-31.3,12.58-.26.11-.07.55.19.46,11.3-4.16,22.3-9.09,32.92-14.76l-.25-.43c-7.77,5.47-16.74,9.04-26.15,10.4l.19.46c7.79-4.83,16.58-7.54,25.29-10.17l-.19-.46c-8.06,3.75-16.12,7.5-24.17,11.25-.26.12-.07.53.19.46,9.43-2.51,18.47-6.2,27.32-10.27l-.25-.43c-6.5,3.54-13,7.08-19.5,10.62-.29.16-.03.55.25.43,9.75-4.13,19.38-8.55,28.87-13.26l-.3-.39c-5.11,4.77-11.97,6.7-18.55,8.48l.13.48c6.56-2.08,13.05-4.35,19.48-6.81.29-.11.18-.58-.13-.48-5.05,1.6-10.05,3.34-14.99,5.23-.3.12-.19.54.13.48,6.28-1.08,12.35-3.05,18.07-5.84.26-.13.07-.53-.19-.46-5.24,1.34-10.43,2.85-15.57,4.55-.3.1-.18.58.13.48,3.84-1.23,7.86-2.63,10.33-6.01.14-.2-.09-.4-.28-.37-4.34.7-8.44,2.26-12.15,4.61-.23.14-.08.56.19.46,5.1-1.93,10.15-4,15.14-6.21l-.25-.43c-4.37,1.95-8.84,3.61-13.42,4.99l.19.46,11.47-5.98c.25-.13.07-.57-.19-.46-4.6,1.91-9.27,3.65-14,5.22l.13.48c6.86-2.47,13.73-4.94,20.59-7.41.3-.11.17-.59-.13-.48-5.31,1.79-10.68,3.65-15.19,7.08-.21.16-.1.56.19.46,4.33-1.46,8.41-3.5,12.16-6.1l-.3-.39c-3.39,3.76-7.57,6.63-11.74,9.45-.22.15-.09.55.19.46,6.32-2.08,12.48-4.61,18.44-7.57l-.25-.43c-3.75,2.24-7.58,4.35-11.48,6.33l.25.43c3.5-2.03,6.71-4.49,9.58-7.35.18-.18,0-.47-.24-.42-4.44,1.06-8.69,2.71-12.69,4.93-.29.16-.03.57.25.43,4.15-1.93,8.35-3.73,12.62-5.4l-.19-.46c-2.53,1.4-5.14,2.61-7.84,3.63l.19.46c3.69-1.74,7.39-3.53,10.35-6.41.14-.14.05-.46-.18-.43-5.56.72-10.91,2.42-15.86,5.05-.26.14-.08.52.19.46,2.84-.63,5.49-1.76,7.91-3.36.27-.18.04-.58-.25-.43-16.79,8.46-34.39,15.21-52.53,20.15-.31.08-.18.56.13.48l3.98-1.04-.19-.46c-2.22,1.24-4.44,2.48-6.65,3.72-.25.14-.08.52.19.46,5.79-1.41,11.37-3.52,16.65-6.28.25-.13.07-.56-.19-.46-9.36,3.78-18.58,7.9-27.63,12.37-.25.13-.08.54.19.46,1-.31,9.32-3.02,7.29-4.91-.48-.44-1.22-.19-1.76-.07-1.02.23-2.03.53-3.03.86-2.16.72-4.23,1.66-6.22,2.77-.24.14-.08.55.19.46,5.15-1.82,10.3-3.65,15.45-5.47l-.19-.46c-4.24,1.82-8.66,3.15-13.2,3.98l.13.48c6.12-1.83,12.15-3.91,18.09-6.25l-.13-.48c-7.47,2.97-14.84,6.17-22.11,9.58l.25.43c3.09-1.48,6.12-3.08,9.08-4.81.28-.16.03-.57-.25-.43-4.74,2.36-9.25,5.12-13.52,8.25-.22.16-.1.52.19.46,4.6-1,9.11-2.35,13.49-4.06.24-.09.24-.52-.07-.49-3.79.39-7.27,1.94-10.08,4.5-.16.14-.04.44.18.43,4.11-.28,8.07-1.37,11.75-3.23.29-.15.03-.58-.25-.43-3.6,1.82-7.47,2.88-11.5,3.16l.18.43c2.71-2.47,6.08-3.98,9.73-4.36l-.07-.49c-4.39,1.71-8.89,3.07-13.49,4.06l.19.46c4.27-3.13,8.79-5.89,13.52-8.25l-.25-.43c-2.96,1.72-5.99,3.32-9.08,4.81-.29.14-.04.57.25.43,7.24-3.39,14.57-6.57,22-9.53.3-.12.17-.6-.13-.48-5.94,2.34-11.97,4.42-18.09,6.25-.31.09-.18.54.13.48,4.59-.84,9.04-2.19,13.32-4.03.26-.11.07-.55-.19-.46-5.15,1.82-10.3,3.65-15.45,5.47l.19.46c2.67-1.49,5.5-2.66,8.47-3.42.19-.05.95-.33,1.09-.26l.58,1.01-.49.38c-.59.4-1.29.71-1.93,1.02-1.42.69-2.9,1.25-4.4,1.71l.19.46c9.02-4.45,18.19-8.56,27.51-12.32l-.19-.46c-5.24,2.74-10.78,4.83-16.53,6.23l.19.46c2.22-1.24,4.44-2.48,6.65-3.72.25-.14.08-.53-.19-.46l-3.98,1.04.13.48c18.17-4.95,35.82-11.73,52.65-20.2l-.25-.43c-2.39,1.58-5,2.68-7.79,3.3l.19.46c4.87-2.59,10.14-4.28,15.61-4.98l-.18-.43c-2.93,2.84-6.6,4.61-10.25,6.33-.25.12-.07.56.19.46,2.74-1.03,5.4-2.26,7.96-3.68.24-.13.08-.56-.19-.46-4.3,1.68-8.55,3.49-12.74,5.45l.25.43c3.96-2.19,8.17-3.82,12.57-4.87l-.24-.42c-2.84,2.83-6.01,5.26-9.48,7.27-.28.16-.03.58.25.43,3.9-1.98,7.73-4.09,11.48-6.33.28-.17.03-.57-.25-.43-5.92,2.95-12.04,5.46-18.32,7.52l.19.46c4.21-2.85,8.42-5.74,11.84-9.53.18-.2-.06-.56-.3-.39-3.72,2.57-7.76,4.6-12.05,6.05l.19.46c4.48-3.41,9.8-5.25,15.07-7.03l-.13-.48c-6.86,2.47-13.73,4.94-20.59,7.41-.3.11-.18.58.13.48,4.73-1.56,9.4-3.3,14-5.22l-.19-.46c-3.82,1.99-7.65,3.99-11.47,5.98-.25.13-.08.54.19.46,4.62-1.39,9.14-3.07,13.54-5.04.29-.13.04-.56-.25-.43-4.95,2.19-9.96,4.24-15.02,6.16l.19.46c3.67-2.33,7.73-3.87,12.03-4.56l-.28-.37c-2.39,3.26-6.34,4.6-10.03,5.78l.13.48c5.14-1.7,10.33-3.21,15.57-4.55l-.19-.46c-5.68,2.77-11.72,4.71-17.95,5.79l.13.48c4.95-1.89,9.94-3.63,14.99-5.23l-.13-.48c-6.42,2.46-12.92,4.73-19.48,6.81-.31.1-.18.57.13.48,6.67-1.81,13.59-3.78,18.77-8.61.22-.2-.06-.51-.3-.39-9.49,4.71-19.11,9.13-28.87,13.26l.25.43c6.5-3.54,13-7.08,19.5-10.62.29-.16.03-.56-.25-.43-8.81,4.05-17.81,7.72-27.2,10.22l.19.46c8.06-3.75,16.12-7.5,24.17-11.25.26-.12.08-.54-.19-.46-8.75,2.65-17.59,5.37-25.41,10.22-.26.16-.08.5.19.46,9.45-1.37,18.46-4.96,26.27-10.45.26-.18.04-.59-.25-.43-10.58,5.65-21.54,10.56-32.8,14.71l.19.46c10.3-4.4,20.7-8.58,31.19-12.53l-.19-.46c-6.27,3.61-12.78,6.81-19.48,9.55-3.25,1.33-6.55,2.55-9.89,3.66-3.51,1.17-7.11,2.39-10.86,2.2l.07.49c13-2.95,25.85-6.54,38.5-10.74l-.19-.46c-11.47,6.33-23.82,10.75-36.13,15.12-.3.11-.18.56.13.48,13.13-3.34,25.61-8.93,36.83-16.51.26-.18.02-.61-.25-.43-9.5,6.12-20.2,10.18-31.37,11.88l.19.46c5.74-2.53,11.86-4.25,17.79-6.24,5.95-1.99,11.89-3.98,17.84-5.97l-.19-.46c-4.88,3.29-10.65,5.09-16.19,6.94-5.76,1.93-11.6,3.64-17.48,5.15-.31.08-.18.54.13.48,9.23-1.79,17.76-6.39,24.32-13.12.2-.21-.05-.53-.3-.39-12.35,6.54-25.31,11.88-38.69,15.93l.13.48c7.19-2.99,14.38-5.97,21.58-8.96.29-.12.18-.59-.13-.48-10.68,3.84-21.05,8.44-31.41,13.05-.26.12-.07.53.19.46,3.58-1.02,7.13-2.14,10.63-3.37,2.75-.97,5.94-1.8,7.91-4.08.17-.2-.05-.56-.3-.39-9.98,6.54-21.14,11.1-32.84,13.43l.13.48c10.85-3.51,21.28-8.18,31.12-13.93l-.3-.39c-3.44,3.68-8.9,5.55-13.56,7.12-5.03,1.7-10.23,2.82-15.5,3.37l.07.49c11.62-4.8,24.32-6.9,35.24-13.36.28-.16.03-.59-.25-.43-9.29,5.28-18.73,10.3-28.37,14.93-.25.12-.07.56.19.46,13.47-5.52,26.67-11.68,39.56-18.45l-.25-.43c-11.28,6.54-23.51,11.32-36.24,14.15-.28.06-.21.49.07.49,11.85-.09,23.49-3.89,33.11-10.81l-.3-.39c-12.05,9.4-26.88,13.94-41.3,18.29l.13.48c11.76-3.8,22.91-9.35,33.03-16.45l-.3-.39c-3.73,4.75-9.23,7.39-14.77,9.45-6.25,2.32-12.72,4.65-19.36,5.52l.13.47c5.45-3.1,11.23-5.54,17.26-7.28,4.89-1.41,10.01-2.59,13.94-6.02.22-.19-.06-.53-.3-.39-9.69,5.5-19.63,10.57-29.78,15.18-.29.13-.04.56.25.43h0Z"/>
  <path class="cls-1" d="m7.13,43.35l2.57-3.9c.18-.27-.25-.51-.43-.25-1.55,2.17-2.92,4.44-4.11,6.82-.07.13-.02.33.15.37,1.2.24,2.12-.38,3.08-1.04,1.42-.97,2.81-1.97,4.19-3.01,2.64-1.99,5.19-4.09,7.65-6.29l-.35-.35c-3.37,3.52-6.74,7.03-10.11,10.55-.16.17,0,.51.24.42,7.17-2.73,13.7-6.9,19.19-12.27l-.35-.35c-2.11,2.37-3.97,4.92-5.57,7.66-.12.21.13.47.34.34,5.5-3.36,10.25-7.76,14.02-12.99l-.46-.19c-.65,2.76-2.08,5.16-4.2,7.03l.35.35c3.05-3.5,6.52-6.57,10.35-9.19l-.3-.39c-2.34,2.92-4.66,5.88-5.97,9.44-.07.2.19.41.37.28,5.49-4.05,10.46-8.75,14.8-14.02l-.39-.3c-1.46,2.95-2.89,5.92-3.59,9.16-.05.23.24.43.42.24,3.96-4.16,7.92-8.32,11.88-12.48l-.42-.24c-.51,2.38-1.03,4.75-1.54,7.13-.06.29.29.42.46.19,2.32-3.12,4.65-6.25,6.97-9.37l-.46-.19c-.78,2.66-1.77,5.34-2.35,8.05-.32,1.51.75,1.99,1.91,1.12,3.97-2.96,7.38-7.02,10.29-10.98l-.43-.25c-.96,2.27-1.91,4.53-2.87,6.8-.08.2.11.51.34.34,3.31-2.41,5.91-5.6,7.58-9.35l-.46-.19c-.21,1.41-.71,3.06-.63,4.49.04.7.49,1.08,1.19.91.46-.11.93-.6,1.28-.89.67-.55,1.33-1.1,2-1.66,1.45-1.21,2.89-2.43,4.33-3.65l-.42-.24c-.77,2.43-1.54,4.86-2.31,7.29-.08.24.25.41.42.24,2.66-2.64,4.74-5.73,6.19-9.18l-.42.11c.82.85,1.08,1.91.76,3.05-.09.31.39.44.48.13.37-1.31.06-2.55-.89-3.54-.14-.15-.35-.05-.42.11-1.42,3.37-3.47,6.39-6.06,8.96l.42.24c.77-2.43,1.54-4.86,2.31-7.29.08-.26-.24-.39-.42-.24-1.74,1.48-3.48,2.95-5.24,4.41-.42.35-.84.71-1.27,1.05-.42.63-.9.64-1.44.04.04-.3.08-.59.12-.89.16-1.11.33-2.22.49-3.32.04-.25-.33-.48-.46-.19-1.63,3.66-4.16,6.8-7.4,9.17l.34.34c.96-2.27,1.91-4.53,2.87-6.8.12-.3-.24-.52-.43-.25-2.34,3.18-4.96,6.15-7.87,8.83-.65.6-1.3,1.19-1.98,1.75-.42.62-.93.64-1.51.07.03-.27.09-.53.17-.78.14-.55.32-1.09.48-1.63.59-2.01,1.18-4.03,1.77-6.04.09-.29-.3-.41-.46-.19-2.32,3.12-4.65,6.25-6.97,9.37l.46.19c.51-2.38,1.03-4.75,1.54-7.13.05-.23-.24-.43-.42-.24-3.96,4.16-7.92,8.32-11.88,12.48l.42.24c.69-3.2,2.1-6.13,3.54-9.04.12-.24-.2-.54-.39-.3-4.32,5.23-9.24,9.91-14.7,13.94l.37.28c1.27-3.47,3.55-6.36,5.84-9.21.16-.2-.05-.57-.3-.39-3.87,2.64-7.37,5.74-10.45,9.27-.21.24.11.57.35.35,2.18-1.93,3.67-4.42,4.33-7.25.07-.29-.29-.42-.46-.19-3.72,5.15-8.41,9.5-13.84,12.81l.34.34c1.58-2.7,3.41-5.22,5.49-7.56.21-.24-.12-.58-.35-.35-5.42,5.31-11.87,9.44-18.97,12.14l.24.42c3.37-3.52,6.74-7.03,10.11-10.55.22-.23-.11-.57-.35-.35-2.2,1.96-4.46,3.85-6.8,5.64-1.05.81-2.12,1.6-3.2,2.37-1.17.83-2.88,2.5-4.42,2.19l.15.37c1.19-2.38,2.56-4.66,4.11-6.82l-.43-.25-2.57,3.9c-.18.27.26.52.43.25h0Z"/>
  <path class="cls-1" d="m81.92,91.02c1.51-9.92,3.83-19.69,6.95-29.22l-.49-.07c-.18,10.49-7.78,18.92-9.54,29.05-.03.18.11.37.31.31.7-.22,1.06-.7,1.33-1.38.47-1.19.71-2.51,1.04-3.74.82-3.03,1.63-6.07,2.45-9.1,1.61-5.99,3.23-11.98,4.84-17.97l-.49-.07c-1.13,12.93-9.95,23.51-12.14,36.17-.05.31.38.44.48.13,4.31-12.74,7.82-25.74,10.52-38.91l-.49-.07c-.13,12.8-4.72,24.94-6.4,37.53-.04.28.42.34.49.07,1.73-7,3.46-14.01,5.19-21.01,1.65-6.69,3.06-13.51,5.57-19.94l-.49-.07c-1.06,12.59-5.25,24.71-5.72,37.37-.01.28.44.35.49.07,1.87-11.34,2.92-22.81,3.13-34.3,0-.23-.27-.32-.43-.18-1,.89-1.17,2.22-1.45,3.47-.43,1.92-.86,3.85-1.29,5.77-.84,3.77-1.69,7.54-2.53,11.3-1.61,7.19-3.92,14.6-3.77,22.03,0,.28.42.35.49.07,2.75-11.48,4.98-23.07,6.7-34.75l-.49-.07c1.02,8.8.94,17.7-.26,26.48-.04.31.38.45.48.13,1.97-6.42,2.77-13.13,2.37-19.83-.02-.28-.4-.34-.49-.07-3.04,8.95-5.45,18.09-7.23,27.37l.48.13c1.32-9.4,1.43-18.9,1.29-28.38h-.5c.6,7.36,1.21,14.73,1.81,22.09.03.32.47.32.5,0,.9-8.68,1.81-17.37,2.71-26.05h-.5c-.19,10.63-5.37,20.41-5.71,31.02,0,.28.43.34.49.07,2.14-10.01,3.13-20.2,4.1-30.37h-.5c-.4,9.41-2.29,18.68-5.6,27.5l.49.07c.68-8.12,3.12-16.1,5.2-23.95s4.25-15.7,6.43-23.54c.09-.31-.38-.43-.48-.13-3.89,10.98-7.05,22.21-9.47,33.61-.07.31.38.44.48.13,4.31-13.32,7.57-26.96,9.75-40.79.05-.31-.4-.45-.48-.13-2.99,11.03-6.66,21.86-10.99,32.43-.11.26.33.45.46.19,4.65-9.62,8.01-19.82,9.97-30.32l-.48-.13c-1.84,10.62-3.68,21.24-5.51,31.86l.49.07c.97-12.84,1.95-25.69,4.04-38.4.05-.31-.42-.45-.48-.13-2.27,11.43-6.75,22.23-11.22,32.94-.09.22.19.37.37.28,2.35-1.25,2.93-4.88,3.71-7.16,1.19-3.47,2.33-6.95,3.45-10.44,2.26-7.06,4.4-14.16,6.53-21.26l-.48-.13c-1.74,10.81-3.83,21.57-6.28,32.24l.48.13c1.77-11.98,3.55-23.96,5.32-35.93l-.49-.07c.77,9.48-1.05,18.86-2.91,28.11l.49.07c1.16-10.88,3.24-21.64,6.19-32.17l-.49-.07c-.21,8.46-2.01,16.74-3.84,24.97-.07.31.39.44.48.13,2.04-6.64,4.09-13.28,6.13-19.92l-.49-.07c-.21,4.65-1.56,9.22-2.62,13.73-1.05,4.47-2.1,8.94-3.15,13.41l.49.07c.98-9.89,1.97-19.79,3.38-29.63.04-.31-.41-.45-.48-.13-1.84,8.61-3.65,17.27-4,26.09,0,.25.35.34.47.13,5.11-9.2,3.71-20.18,6.66-30.01l-.49-.07c.35,6.78-.79,13.53-3.37,19.81l.48.13c1.5-9.17,3.35-18.28,5.54-27.31.08-.31-.4-.44-.48-.13-1.73,6.46-4.04,12.73-6.93,18.75l.46.19c2.5-7.4,4.68-14.91,6.55-22.5l-.49-.07c-.06,5.82-.88,11.59-2.44,17.19l.49.07c0-5.69.36-11.36,1.08-17,.04-.28-.42-.33-.49-.07-1.68,6.02-3.36,12.03-5.04,18.05l.48.13c.82-5.13,1.34-10.3,1.55-15.49.01-.33-.47-.32-.5,0-.53,5.6-1.16,11.19-1.92,16.77l.49.07c.72-5.56,1.24-11.14,1.58-16.74h-.5c-.31,5.54-.49,11.08-.54,16.63,0,.32.5.32.5,0,.08-5.3.15-10.6.23-15.9,0-.28-.42-.34-.49-.07-1.61,5.8-2.85,11.69-3.7,17.64-.04.31.42.45.48.13,1.05-5.65,1.4-11.38,1.04-17.11-.02-.32-.48-.32-.5,0-.24,4.81.13,9.6,1.1,14.32.05.24.44.24.48,0,1.24-6.96,2.48-13.92,3.72-20.88l-.49-.07c-.14,5.35-.28,10.69-.42,16.04h.5l-.73-11.83c-.02-.32-.51-.32-.5,0l.22,7.15c0,.28.42.35.49.07.77-2.91,1.55-5.81,2.32-8.72l-.49-.07c.16,1.91.15,3.82,0,5.73-.02.28.43.34.49.07.42-1.95.84-3.91,1.27-5.86l-.49-.07.03,6.19c0,.28.42.34.49.07l.79-2.91-.49-.07c-.09,1.75-.57,3.34-1.45,4.86l.47.13c0-2.28-.4-4.48-1.21-6.61-.06-.16-.21-.22-.37-.15-1.25.55-2.06,1.57-2.83,2.66-1.13,1.61-2.22,3.24-3.3,4.89-2.18,3.32-4.27,6.69-6.28,10.11l.46.19c.9-4.63,2.34-9.11,4.33-13.39.13-.29-.26-.53-.43-.25-1.86,3.06-4.02,5.91-6.45,8.54-.22.24.11.56.35.35,3.29-2.84,6.58-5.68,9.87-8.52l-.35-.35c-2.28,2.51-4.56,5.02-6.85,7.53-.22.24.11.55.35.35,1.37-1.07,2.53-2.32,3.51-3.76.15-.23-.14-.44-.34-.34-2.16,1.01-3.74,2.79-4.5,5.05-.06.17.13.37.31.31,3.26-1.16,6.35-2.67,9.26-4.54l-.3-.39c-.76.85-1.52,1.7-2.27,2.55-.19.21.05.53.3.39,3.03-1.62,5.16-4.45,5.88-7.81.05-.24-.23-.42-.42-.24-2.33,2.28-3.49,5.44-3.17,8.69.02.24.33.35.47.13,1.66-2.7,2.74-5.65,3.23-8.78.05-.31-.4-.45-.48-.13-1.97,7.68-3.54,15.45-4.72,23.3l.49.07c-.73-5.55-.28-11.15,1.32-16.51l-.48-.13c-1.71,8.08-2.96,16.25-3.77,24.47-.03.31.39.3.49.07.81-1.98,1.34-4.01,1.61-6.12.04-.28-.45-.34-.49-.07-.78,4.85-1.56,9.71-2.34,14.56l.49.07c.09-4.7.19-9.4.28-14.1,0-.3-.4-.32-.49-.07-3.34,8.78-6.6,17.59-9.78,26.42-.1.26.34.45.46.19,2.09-4.64,4.38-9.18,6.86-13.63l-.43-.25c-2.31,4.92-4.16,10.03-5.51,15.29-.08.31.39.44.48.13,1.23-4.22,2.07-8.53,2.51-12.9.03-.28-.44-.34-.49-.07-.88,5.16-2.03,10.26-3.45,15.3l.48.13c1.47-5.47,3.4-10.79,5.78-15.93l-.46-.19c-1.75,7.3-3.49,14.61-5.24,21.91-.07.31.4.45.48.13,2.08-8.01,4.55-15.91,7.4-23.68l-.48-.13c-1.45,10.06-6.45,19.34-6.84,29.59-.01.28.42.34.49.07,2.62-10.06,5.24-20.12,7.86-30.18.08-.32-.37-.43-.48-.13-4.1,11.35-8.2,22.73-10.83,34.53-.06.26.34.46.46.19,6.48-14.65,10.62-30.25,12.27-46.18.03-.29-.41-.32-.49-.07-2.29,7.24-4.58,14.48-6.87,21.72l.48.13c2.67-13.09,6.13-26.01,10.34-38.69.09-.27-.34-.45-.46-.19-4.64,9.88-9.29,19.86-11.68,30.57-.07.32.38.44.48.13,3.78-10.9,6.95-21.99,9.51-33.24.07-.31-.41-.45-.48-.13-2.56,11.25-5.73,22.34-9.51,33.24l.48.13c2.38-10.67,7-20.6,11.63-30.45l-.46-.19c-4.21,12.68-7.66,25.6-10.34,38.69-.06.31.38.44.48.13,2.29-7.24,4.58-14.48,6.87-21.72l-.49-.07c-1.64,15.84-5.76,31.37-12.2,45.93l.46.19c2.63-11.8,6.72-23.18,10.83-34.53l-.48-.13c-2.62,10.06-5.24,20.12-7.86,30.18l.49.07c.39-10.2,5.38-19.44,6.82-29.45.05-.31-.37-.44-.48-.13-2.85,7.77-5.32,15.67-7.4,23.68l.48.13c1.75-7.3,3.49-14.61,5.24-21.91.06-.26-.33-.46-.46-.19-2.4,5.18-4.35,10.54-5.83,16.05-.08.31.4.44.48.13,1.41-5.04,2.56-10.14,3.45-15.3l-.49-.07c-.43,4.33-1.27,8.59-2.49,12.77l.48.13c1.35-5.22,3.17-10.29,5.46-15.17.13-.29-.27-.54-.43-.25-2.48,4.44-4.77,8.99-6.86,13.63l.46.19c3.19-8.84,6.45-17.64,9.78-26.42l-.49-.07c-.09,4.7-.19,9.4-.28,14.1,0,.27.45.35.49.07.78-4.85,1.56-9.71,2.34-14.56l-.49-.07c-.27,2.07-.81,4.06-1.6,5.99l.49.07c.8-8.17,2.06-16.3,3.76-24.33.07-.31-.39-.44-.48-.13-1.62,5.41-2.07,11.05-1.34,16.65.03.25.44.37.49.07,1.18-7.84,2.75-15.61,4.72-23.3l-.48-.13c-.48,3.09-1.55,5.99-3.18,8.66l.47.13c-.3-3.12.78-6.14,3.03-8.34l-.42-.24c-.69,3.24-2.73,5.95-5.65,7.51l.3.39c.76-.85,1.52-1.7,2.27-2.55.18-.2-.05-.55-.3-.39-2.87,1.85-5.92,3.35-9.14,4.49l.31.31c.73-2.15,2.22-3.79,4.27-4.75l-.34-.34c-.96,1.41-2.09,2.61-3.43,3.66l.35.35c2.28-2.51,4.56-5.02,6.85-7.53.22-.24-.11-.56-.35-.35-3.29,2.84-6.58,5.68-9.87,8.52l.35.35c2.47-2.66,4.65-5.54,6.53-8.64l-.43-.25c-2,4.32-3.47,8.83-4.38,13.5-.05.27.31.45.46.19,1.85-3.15,3.77-6.25,5.76-9.31.95-1.46,1.92-2.91,2.91-4.36s1.91-3.07,3.56-3.81l-.37-.15c.79,2.09,1.19,4.24,1.19,6.47,0,.25.34.34.47.13.92-1.59,1.42-3.28,1.51-5.12.01-.28-.42-.34-.49-.07l-.79,2.91.49.07-.03-6.19c0-.27-.43-.35-.49-.07-.42,1.95-.84,3.91-1.27,5.86l.49.07c.16-1.91.16-3.82,0-5.73-.02-.27-.41-.35-.49-.07-.77,2.91-1.55,5.81-2.32,8.72l.49.07-.22-7.15h-.5l.73,11.83c.02.32.49.32.5,0,.14-5.35.28-10.69.42-16.04,0-.28-.44-.35-.49-.07-1.24,6.96-2.48,13.92-3.72,20.88h.48c-.96-4.67-1.31-9.42-1.08-14.19h-.5c.36,5.69.02,11.38-1.02,16.98l.48.13c.85-5.96,2.09-11.85,3.7-17.64l-.49-.07c-.08,5.3-.15,10.6-.23,15.9h.5c.05-5.55.23-11.09.54-16.63.02-.32-.48-.32-.5,0-.34,5.6-.86,11.18-1.58,16.74-.04.28.45.35.49.07.76-5.62,1.41-11.26,1.94-16.91h-.5c-.21,5.15-.72,10.27-1.53,15.36-.05.31.39.45.48.13,1.68-6.02,3.36-12.03,5.04-18.05l-.49-.07c-.73,5.64-1.09,11.32-1.08,17,0,.28.42.34.49.07,1.57-5.65,2.4-11.46,2.46-17.33,0-.28-.42-.34-.49-.07-1.86,7.59-4.05,15.09-6.55,22.5-.09.27.33.45.46.19,2.91-6.07,5.24-12.38,6.98-18.87l-.48-.13c-2.19,9.03-4.04,18.14-5.54,27.31-.05.32.36.43.48.13,2.59-6.32,3.74-13.12,3.39-19.95-.01-.28-.41-.34-.49-.07-2.94,9.79-1.52,20.75-6.61,29.9l.47.13c.34-8.78,2.15-17.39,3.98-25.96l-.48-.13c-1.42,9.89-2.41,19.83-3.39,29.77-.03.28.43.34.49.07,1.09-4.63,2.18-9.26,3.27-13.89s2.32-8.84,2.53-13.38c.01-.29-.41-.33-.49-.07-2.04,6.64-4.09,13.28-6.13,19.92l.48.13c1.84-8.27,3.65-16.6,3.86-25.1,0-.28-.42-.34-.49-.07-2.97,10.58-5.04,21.38-6.21,32.3-.03.28.44.34.49.07,1.86-9.29,3.71-18.72,2.93-28.24-.02-.26-.45-.37-.49-.07-1.77,11.98-3.55,23.96-5.32,35.93-.05.31.41.45.48.13,2.45-10.67,4.55-21.43,6.28-32.24.05-.31-.39-.45-.48-.13-1.99,6.63-3.99,13.26-6.09,19.86-1.04,3.26-2.1,6.51-3.19,9.75-.55,1.62-1.1,3.24-1.67,4.85-.53,1.52-.99,3.28-2.52,4.09l.37.28c4.47-10.71,8.94-21.51,11.22-32.94l-.48-.13c-2.1,12.76-3.08,25.65-4.06,38.54-.02.28.44.35.49.07,1.84-10.62,3.68-21.24,5.51-31.86.05-.31-.42-.45-.48-.13-1.96,10.46-5.29,20.62-9.92,30.21l.46.19c4.33-10.57,8-21.4,10.99-32.43l-.48-.13c-2.18,13.83-5.44,27.47-9.75,40.79l.48.13c2.41-11.4,5.58-22.63,9.47-33.61l-.48-.13c-2.22,7.99-4.44,15.99-6.56,24.01-2.04,7.75-4.42,15.6-5.09,23.61-.02.3.4.31.49.07,3.32-8.86,5.21-18.18,5.61-27.63.01-.33-.47-.31-.5,0-.97,10.13-1.96,20.27-4.09,30.24l.49.07c.34-10.61,5.52-20.39,5.71-31.02,0-.33-.47-.31-.5,0-.9,8.68-1.81,17.37-2.71,26.05h.5c-.6-7.36-1.21-14.73-1.81-22.09-.03-.32-.5-.33-.5,0,.14,9.43.05,18.89-1.27,28.25-.04.31.42.45.48.13,1.78-9.28,4.2-18.42,7.23-27.37l-.49-.07c.4,6.66-.39,13.32-2.35,19.7l.48.13c1.21-8.83,1.31-17.76.28-26.61-.03-.25-.45-.37-.49-.07-1.72,11.68-3.95,23.27-6.7,34.75l.49.07c-.14-7.22,2.08-14.42,3.64-21.42.79-3.53,1.58-7.06,2.37-10.58.39-1.76.79-3.53,1.18-5.29.35-1.55.45-3.82,1.7-4.93l-.43-.18c-.22,11.45-1.26,22.87-3.12,34.17l.49.07c.47-12.66,4.66-24.79,5.72-37.37.03-.3-.4-.31-.49-.07-2.51,6.43-3.92,13.26-5.57,19.94-1.73,7-3.46,14.01-5.19,21.01l.49.07c1.68-12.59,6.27-24.73,6.4-37.53,0-.28-.43-.35-.49-.07-2.7,13.17-6.22,26.17-10.52,38.91l.48.13c2.2-12.71,11.03-23.32,12.16-36.3.02-.28-.42-.33-.49-.07-1.44,5.35-2.88,10.7-4.32,16.05-.71,2.64-1.42,5.27-2.13,7.91-.34,1.28-.69,2.56-1.03,3.83-.29,1.08-.51,3.65-1.83,4.05l.31.31c1.77-10.18,9.37-18.63,9.55-29.19,0-.29-.41-.33-.49-.07-3.12,9.53-5.44,19.3-6.95,29.22-.05.31.43.45.48.13h0Z"/>
  <path class="cls-1" d="m96.68,30.01c-2.91,9.83-5.37,19.78-7.37,29.82-.06.31.42.45.48.13,2.01-10.05,4.47-20,7.37-29.82.09-.31-.39-.44-.48-.13h0Z"/>
  <path class="cls-1" d="m57.22,72.62c4.52,8.41,12.42,14.73,21.61,17.31.25.07.4-.24.24-.42-6.87-7.68-17.3-10.57-24.75-17.53-.2-.18-.57.06-.39.3,4.05,5.53,9.16,10.17,15.07,13.64.23.13.45-.13.34-.34-2.1-4.22-5.14-7.57-8.44-10.88-3.66-3.67-7.32-7.35-10.98-11.02-.23-.23-.58.12-.35.35,6.23,6.55,12.68,12.87,19.34,18.97.2.18.57-.06.39-.3-2.64-3.6-6.17-6.3-9.77-8.88-4.31-3.09-8.63-6.16-12.95-9.24-.26-.19-.51.25-.25.43,4.08,2.91,8.17,5.82,12.25,8.74,3.76,2.68,7.53,5.45,10.29,9.21l.39-.3c-6.66-6.1-13.12-12.43-19.34-18.97l-.35.35c3.55,3.56,7.09,7.11,10.64,10.67s6.55,6.79,8.71,11.13l.34-.34c-5.83-3.43-10.89-8-14.89-13.46l-.39.3c7.45,6.96,17.88,9.86,24.75,17.53l.24-.42c-9.08-2.54-16.85-8.78-21.31-17.08-.15-.28-.58-.03-.43.25h0Z"/>
  <path class="cls-1" d="m53.79,75.23c-2.72,1.38-5.26,3.06-7.59,5.03-1.09.92-2.22,1.94-3.62,2.34-1.52.44-3.09-.13-4.61.23-1.76.42-3.21,2.46-1.47,3.88,1.91,1.56,5.07-.08,6.84-1.12,2.99-1.76,5.69-4.14,8.2-6.52.19-.18-.01-.46-.24-.42-.55.1-.98.33-1.39.71-.23.22.12.57.35.35.35-.33.69-.5,1.17-.59l-.24-.42c-2.48,2.35-5.15,4.7-8.1,6.45-1.38.81-3.08,1.69-4.72,1.66-.86-.01-1.88-.4-2.13-1.33-.27-1.01.68-1.78,1.52-2.08,1.49-.54,3.16.1,4.69-.26,1.23-.28,2.27-1.03,3.24-1.81,2.65-2.15,5.3-4.12,8.36-5.67.29-.15.03-.58-.25-.43h0Z"/>
  <path class="cls-1" d="m37.21,83.87c-.65-1.17-.76-2.42-.35-3.69h-.48c.82,2.02,1.64,4.04,2.46,6.07.44,1.08.83,3.08,2.2,3.34.17.03.3-.07.32-.24.38-3.02.76-6.05,1.13-9.07l-.49.07c.43,1.41.93,2.81,2.19,3.67.11.08.28.02.34-.09,1.68-2.76,3.19-5.63,4.53-8.58l-.47-.13c-.02.98-.07,1.97-.07,2.95,0,.34-.08.82.24,1.05.72.52,2.21-.96,2.7-1.36,2.26-1.85,3.94-4.3,4.94-7.04.11-.3-.37-.43-.48-.13-.79,2.18-2.03,4.15-3.68,5.79-.7.7-1.64,1.7-2.57,2.07-.14.19-.3.21-.46.08-.25-.03-.31-.18-.19-.45-.06-.28.02-.64.02-.92.02-.68.03-1.35.05-2.03,0-.24-.36-.36-.47-.13-1.33,2.95-2.84,5.81-4.53,8.58l.34-.09c-1.14-.78-1.57-2.11-1.96-3.37-.09-.29-.46-.2-.49.07-.38,3.02-.76,6.05-1.13,9.07l.32-.24c-.91-.18-1.19-1.37-1.49-2.1-.31-.77-.63-1.55-.94-2.32-.63-1.55-1.25-3.09-1.88-4.64-.09-.22-.4-.25-.48,0-.45,1.39-.3,2.8.4,4.08.16.28.59.03.43-.25h0Z"/>
  <path class="cls-1" d="m34.87,77.62c.55-2.54.86-5.13.89-7.73,0-.86.1-1.92-.41-2.67-.63-.92-1.7-.42-2.56-.84l.05.39c.43-.38.87-.74,1.33-1.09.26-.19,0-.62-.25-.43-.5.37-.97.75-1.43,1.16-.11.1-.09.32.05.39.78.38,2.04-.05,2.49.85.41.83.24,2.03.21,2.93-.07,2.32-.36,4.63-.86,6.9-.07.31.41.45.48.13h0Z"/>
  <path class="cls-1" d="m6.63,45.65l.03-.62h-.5c.21,2.06.38,4.13.65,6.19.18,1.35.51,2.64,1.47,3.64.1.11.33.1.39-.05,1.42-3.11,2.85-6.21,4.27-9.32l-.47-.13c.07,2.79.15,5.57.22,8.36.03,1.12-.1,2.38.13,3.48.11.54.38.96.96.98.11,0,.21-.08.24-.18.88-3.1,1.45-6.26,1.72-9.46l-.49.07c.2,1.46.32,2.95.61,4.4.17.85.56,1.88,1.46,2.2.77.27,1.24-.25,1.69-.8.86-1.06,1.6-2.21,2.24-3.41l-.39.05c1.03,1.27-.57,3.49.94,4.57s2.75-1.24,3.7-1.96l-.37-.15c.24,1.38.93,2.55,2.03,3.43.25.2.61-.15.35-.35-1.04-.83-1.67-1.9-1.9-3.21-.03-.15-.25-.24-.37-.15-.57.44-.94,1.02-1.44,1.52-.46.45-1.36,1.05-1.96.21-.25-.35-.25-.84-.24-1.25.02-1.09.36-2.08-.39-3-.1-.12-.32-.08-.39.05-.4.76-.83,1.49-1.32,2.19-.67.97-1.86,2.79-2.84.93-.37-.72-.42-1.58-.53-2.37-.14-1.01-.27-2.01-.41-3.02-.04-.3-.47-.19-.49.07-.15,1.83-.4,3.65-.76,5.46-.17.85-.36,1.69-.58,2.53-.08.31-.13,1.45-.57.67-.17-.29-.07-.91-.08-1.22-.09-3.53-.19-7.07-.28-10.6,0-.23-.36-.36-.47-.13-1.42,3.11-2.85,6.21-4.27,9.32l.39-.05c-1.11-1.15-1.28-2.74-1.44-4.26-.18-1.74-.36-3.47-.54-5.21-.03-.32-.49-.33-.5,0l-.03.62c-.01.32.49.32.5,0h0Z"/>
</svg>