<?xml version="1.0" encoding="UTF-8"?>
<svg id="Layer_8" data-name="Layer 8" xmlns="http://www.w3.org/2000/svg" viewBox="0 0 100.98 100.47">
  <defs>
    <style>
      .cls-1 {
        stroke-width: 0px;
      }

      .cls-2 {
        opacity: .49;
      }
    </style>
  </defs>
  <g class="cls-2">
    <path class="cls-1" d="m58.54,40.24c2.02-4.63,5.5-8.3,8.96-11.89,1.66-1.73,3.32-3.46,4.82-5.32,1.7-2.11,3.13-4.44,5.12-6.29.02-.02-.01-.06-.04-.04-2,1.86-3.42,4.19-5.12,6.29-1.58,1.96-3.34,3.77-5.08,5.59-3.38,3.52-6.74,7.12-8.71,11.64-.01.03.03.05.04.03h0Z"/>
  </g>
  <path class="cls-1" d="m82.1,18.15c.32,0,.32-.5,0-.5s-.32.5,0,.5h0Z"/>
  <path class="cls-1" d="m82.86,12.28c-2.07,1.8-4.01,3.62-5.54,5.91-1.8,2.69-3.96,5.07-6.1,7.48-4.22,4.75-8.54,9.42-13.28,13.67-.24.22.11.57.35.35,4.73-4.25,9.05-8.92,13.28-13.67,1.94-2.18,3.97-4.32,5.62-6.73,1.75-2.56,3.69-4.63,6.03-6.66.24-.21-.11-.56-.35-.35h0Z"/>
  <path class="cls-1" d="m58.06,38.63c3.07-2.03,5.48-4.79,7.79-7.62,2.72-3.33,5.5-6.6,8.37-9.8s5.67-6.28,8.75-9.18,6.33-5.68,9.57-8.44c.25-.21-.11-.56-.35-.35-3.18,2.71-6.36,5.42-9.4,8.28s-5.82,5.89-8.59,8.98-5.53,6.26-8.16,9.51c-2.45,3.02-4.95,6.03-8.23,8.2-.27.18-.02.61.25.43h0Z"/>
  <path class="cls-1" d="m92.97,2.88c-11.1,12.95-22.2,25.9-33.3,38.85-.21.24.14.6.35.35,11.1-12.95,22.2-25.9,33.3-38.85.21-.24-.14-.6-.35-.35h0Z"/>
  <path class="cls-1" d="m60.33,42.05c5.78-7.46,12.83-13.89,19.52-20.51s13.1-12.98,18.66-20.35c.19-.26-.24-.51-.43-.25-5.63,7.46-12.3,14.02-18.92,20.58-6.57,6.51-13.5,12.84-19.18,20.17-.19.25.16.61.35.35h0Z"/>
  <path class="cls-1" d="m97.3,2.21c-2.8,3.28-5.58,6.57-8.39,9.85-1.25,1.46-2.54,2.88-4.01,4.13s-3.15,2.49-4.57,3.91c-.23.23.13.58.35.35,1.38-1.39,2.95-2.55,4.45-3.81s2.84-2.73,4.13-4.24c2.8-3.28,5.59-6.57,8.39-9.85.21-.24-.14-.6-.35-.35h0Z"/>
  <path class="cls-1" d="m81.39,17.66c.72-1.35,1.9-2.38,2.97-3.44,1.19-1.19,2.37-2.38,3.56-3.56,2.37-2.38,4.74-4.75,7.11-7.13.23-.23-.13-.58-.35-.35-2.44,2.44-4.87,4.88-7.31,7.32-1.19,1.19-2.37,2.38-3.56,3.56-1.03,1.04-2.15,2.04-2.85,3.35-.15.28.28.54.43.25h0Z"/>
  <path class="cls-1" d="m94.99,2.79c-3.92,4.17-7.8,8.37-11.66,12.6-.22.24.14.59.35.35,3.85-4.23,7.74-8.43,11.66-12.6.22-.23-.13-.59-.35-.35h0Z"/>
  <path class="cls-1" d="m83.35,15.79c3.09-4.53,5.97-9.21,8.63-14.01.16-.28-.28-.53-.43-.25-2.66,4.8-5.54,9.47-8.63,14.01-.18.27.25.52.43.25h0Z"/>
  <path class="cls-1" d="m91.4,1.97c-2.81,2.99-5.44,6.02-7.78,9.39s-5.76,6.21-8.73,9.22c-3.19,3.22-6.38,6.45-9.57,9.67-2.82,2.85-5.89,5.61-7.92,9.1-.16.28.27.53.43.25,2.09-3.59,5.3-6.42,8.19-9.35,3.19-3.22,6.38-6.45,9.57-9.67,2.73-2.76,5.83-5.26,8.09-8.43,2.49-3.5,5.14-6.7,8.08-9.82.22-.23-.13-.59-.35-.35h0Z"/>
  <path class="cls-1" d="m57.67,39.94c3.36-2.02,6.49-4.41,9.3-7.15,1.39-1.35,2.65-2.8,3.93-4.25,1.43-1.63,3.01-3.01,4.7-4.36,3.28-2.62,6.3-5.65,9.15-8.73,2.66-2.87,4.89-6.26,8.27-8.36.27-.17.02-.6-.25-.43-3.17,1.96-5.3,5.03-7.75,7.76-2.79,3.11-5.83,6.18-9.06,8.84-1.6,1.31-3.23,2.55-4.64,4.08s-2.65,3.06-4.08,4.5c-2.94,2.97-6.24,5.53-9.82,7.68-.28.17-.02.6.25.43h0Z"/>
  <path class="cls-1" d="m90.55,6.94c-1.56.55-2.38,1.97-3.42,3.16-1.19,1.36-2.54,2.57-3.93,3.72-2.96,2.47-5.76,4.88-8.3,7.8-5.74,6.57-11.36,13.25-16.88,20.01-.2.25.15.6.35.35,5.31-6.51,10.72-12.93,16.23-19.27,2.47-2.84,5.06-5.35,7.98-7.74,1.4-1.14,2.79-2.3,4.05-3.6s2.29-3.34,4.05-3.96c.3-.11.17-.59-.13-.48h0Z"/>
  <path class="cls-1" d="m58.24,42.12c3.12-1.93,6.32-3.92,8.69-6.77,1.13-1.36,2.02-2.9,3.07-4.32,1.12-1.52,2.43-2.88,3.81-4.16,2.56-2.37,5.38-4.44,7.93-6.82,1.25-1.16,2.43-2.4,3.47-3.75,1.2-1.57,2.14-3.32,3.48-4.78.22-.24-.14-.59-.35-.35-1.18,1.28-2.04,2.78-3.05,4.19s-2.3,2.82-3.61,4.07c-2.53,2.4-5.35,4.48-7.93,6.83-1.26,1.15-2.47,2.36-3.54,3.69-1.13,1.4-2.03,2.97-3.12,4.4-2.4,3.16-5.78,5.29-9.1,7.34-.27.17-.02.6.25.43h0Z"/>
  <path class="cls-1" d="m87.79,11.98c-.96,1.07-1.69,2.28-2.46,3.49-.87,1.37-1.88,2.59-3.01,3.74-2.36,2.41-4.72,4.82-6.98,7.32-4.51,4.99-8.78,10.17-13.05,15.36-.2.25.15.6.35.35,4.27-5.19,8.55-10.38,13.05-15.36,2.21-2.45,4.5-4.81,6.82-7.16,1.02-1.03,1.98-2.09,2.79-3.3.93-1.38,1.72-2.84,2.84-4.1.21-.24-.14-.59-.35-.35h0Z"/>
  <path class="cls-1" d="m62.61,40.88c2.4-1.81,4.6-3.85,6.73-5.97s4.42-4.33,6.31-6.76c1.78-2.28,2.99-4.91,4.96-7.04s3.99-3.82,5.5-6.16c.17-.27-.26-.52-.43-.25-1.52,2.37-3.69,4.15-5.56,6.21s-2.98,4.43-4.59,6.59c-1.78,2.38-3.97,4.47-6.06,6.57-2.25,2.26-4.56,4.46-7.11,6.38-.25.19,0,.63.25.43h0Z"/>
  <path class="cls-1" d="m85.68,13.24c-6.27,6.4-12.61,12.72-19.03,18.97-.23.22.12.58.35.35,6.42-6.25,12.76-12.57,19.03-18.97.23-.23-.13-.58-.35-.35h0Z"/>
  <path class="cls-1" d="m68.05,30.87c4.95-4.24,8.5-9.75,12.7-14.67,2.06-2.41,4.39-4.58,6.41-7.02.89-1.07,1.72-2.19,2.41-3.39.83-1.44,1.37-3.05,2.55-4.26.22-.23-.13-.58-.35-.35-.97,1-1.51,2.24-2.14,3.47-.77,1.5-1.74,2.89-2.81,4.18-2.03,2.44-4.35,4.61-6.41,7.02-4.21,4.92-7.75,10.43-12.7,14.67-.24.21.11.56.35.35h0Z"/>
  <path class="cls-1" d="m92.05,1.37c.08.15.18.29.29.42s.24.24.37.34c.05.04.14.04.19.03.06-.02.12-.06.15-.11.03-.06.05-.13.03-.19l-.03-.06s-.05-.07-.09-.09c0,0-.01,0-.02-.01l.05.04c-.13-.1-.25-.22-.36-.36l.04.05c-.07-.1-.14-.2-.2-.31-.06-.12-.23-.16-.34-.09-.12.08-.16.22-.09.34h0Z"/>
  <path class="cls-1" d="m92.73,4.4c-1.12,2.66-2.64,5.14-4.51,7.34-.21.24.14.6.35.35,1.93-2.27,3.48-4.82,4.64-7.56.12-.3-.36-.43-.48-.13h0Z"/>
  <path class="cls-1" d="m28.32,4.02c2.47,3.17,5.2,6.12,7.74,9.24s5.11,6.52,7.53,9.88c4.74,6.59,9.23,13.36,13.66,20.16s8.55,13.59,12.87,20.36c1.88,2.95,3.94,5.81,6.52,8.19,2.36,2.18,5.03,3.99,7.48,6.07,1.44,1.22,2.83,2.54,3.96,4.06,1.22,1.63,1.96,3.44,2.75,5.3,1.5,3.56,4.4,6.16,5.98,9.65.13.29.56.04.43-.25-1.42-3.14-4.07-5.48-5.52-8.61-.77-1.65-1.33-3.39-2.27-4.96-.77-1.29-1.73-2.46-2.78-3.54-2.24-2.29-4.89-4.12-7.37-6.13-2.83-2.28-5.23-4.87-7.29-7.87-2.2-3.2-4.16-6.57-6.22-9.86-2.23-3.57-4.49-7.11-6.78-10.65-4.42-6.83-8.91-13.63-13.61-20.28-2.55-3.61-5.19-7.16-7.95-10.62s-5.96-6.92-8.77-10.52c-.2-.25-.55.1-.35.35h0Z"/>
  <path class="cls-1" d="m99.18,97.71c-13.56-8.22-19.44-23.86-27.48-36.71-4.34-6.93-9.9-12.93-14.63-19.58-4.34-6.11-8.1-12.59-12.05-18.95-4.33-6.98-8.93-13.84-14.67-19.77-.22-.23-.58.12-.35.35,10.57,10.92,17.1,24.84,25.67,37.23,4.61,6.67,10.18,12.62,14.61,19.42,4.45,6.83,7.99,14.2,12.34,21.09s9.41,13.15,16.31,17.34c.28.17.53-.26.25-.43h0Z"/>
  <path class="cls-1" d="m30.58,2.63c8.8,13,16.75,26.56,25.69,39.47,8.7,12.56,18.21,24.54,27.92,36.33,2.79,3.38,5.59,6.75,8.43,10.09s5.51,6.51,7.59,10.26c.16.28.59.03.43-.25-3.57-6.42-8.95-11.83-13.62-17.44-4.92-5.93-9.78-11.91-14.54-17.97-9.68-12.33-18.59-25.1-26.93-38.37-4.73-7.53-9.56-15-14.55-22.37-.18-.27-.61-.02-.43.25h0Z"/>
  <path class="cls-1" d="m100.92,98.65c-5.18-5.93-9.79-12.34-14.49-18.66s-9.4-12.57-13.77-19.09-8.18-12.81-12.7-18.94c-4.54-6.16-9.31-12.12-13.29-18.67s-7.88-14.04-13.01-20.27c-.2-.25-.56.11-.35.35,4.72,5.73,8.23,12.28,12.01,18.64s8.51,12.58,13.08,18.68,8.59,12.52,12.78,18.87,8.99,12.84,13.67,19.13c5.1,6.86,10.08,13.85,15.72,20.3.21.24.56-.11.35-.35h0Z"/>
  <path class="cls-1" d="m31.91,2.1c5.04,5.43,9.55,11.33,13.46,17.64,1.91,3.08,3.67,6.25,5.28,9.49s3.11,6.34,5.58,8.96c1.08,1.14,2.24,2.21,3.29,3.38,1.38,1.53,2.48,3.26,3.54,5.02,1.88,3.11,3.89,6.04,6.21,8.85,5.03,6.07,9.77,12.27,14.26,18.75,5.15,7.43,10.26,14.89,15.39,22.33.18.26.61.01.43-.25-4.68-6.79-9.35-13.57-14.03-20.36-4.35-6.3-8.76-12.55-13.68-18.42-2.49-2.97-4.97-5.92-6.99-9.23-1.89-3.09-3.7-6.01-6.26-8.59-1.3-1.31-2.63-2.6-3.7-4.11s-1.84-3.01-2.63-4.59c-1.65-3.31-3.33-6.6-5.22-9.78-4.15-6.97-9.05-13.49-14.57-19.44-.22-.24-.57.12-.35.35h0Z"/>
  <path class="cls-1" d="m96.5,96.63c-3.52-6.23-7.08-12.48-11.72-17.96-2.33-2.75-4.85-5.32-7.12-8.11-2.42-2.97-4.62-6.12-6.74-9.32-8.4-12.67-16.62-25.45-25.2-38.01-4.87-7.12-9.8-14.21-14.79-21.25-.18-.26-.62-.01-.43.25,8.94,12.62,17.7,25.38,26.26,38.27,4.2,6.32,8.31,12.69,12.45,19.04,1.94,2.97,3.92,5.93,6.06,8.76s4.5,5.48,6.88,8.12c5.59,6.21,9.82,13.2,13.92,20.45.16.28.59.03.43-.25h0Z"/>
  <path class="cls-1" d="m29,2.19c1.46,2.99,4.06,5.23,5.61,8.17.15.28.58.03.43-.25-1.55-2.94-4.14-5.17-5.61-8.17-.14-.29-.57-.04-.43.25h0Z"/>
  <path class="cls-1" d="m29.13,3.83c2.08,3.26,4.53,6.27,7.32,8.95.23.22.59-.13.35-.35-2.75-2.65-5.18-5.62-7.24-8.85-.17-.27-.61-.02-.43.25h0Z"/>
  <path class="cls-1" d="m34.26,5.33c3.95,6.07,7.82,12.18,11.62,18.34.17.27.6.02.43-.25-3.8-6.16-7.67-12.28-11.62-18.34-.17-.27-.61-.02-.43.25h0Z"/>
  <path class="cls-1" d="m60.21,43.62c3.24,4.01,6.02,8.37,8.32,12.99.14.29.57.04.43-.25-2.31-4.66-5.13-9.05-8.4-13.09-.2-.25-.55.11-.35.35h0Z"/>
  <path class="cls-1" d="m58.4,37.41c2.87,7.39,8.31,13.25,13.78,18.81.23.23.58-.12.35-.35-5.41-5.5-10.82-11.29-13.65-18.59-.12-.3-.6-.17-.48.13h0Z"/>
  <path class="cls-1" d="m62.36,40.91c3.1,5.36,4.86,11.32,7.32,16.97,1.21,2.78,2.63,5.48,4.41,7.94,1.9,2.62,4.12,4.98,6.34,7.33.22.23.57-.12.35-.35-2.29-2.43-4.59-4.87-6.53-7.61-1.75-2.48-3.12-5.18-4.32-7.96-2.38-5.53-4.12-11.34-7.15-16.57-.16-.28-.59-.03-.43.25h0Z"/>
  <path class="cls-1" d="m81.49,75.66c4.35,6.61,8.8,13.16,13.34,19.65.18.26.62.01.43-.25-4.54-6.49-8.98-13.04-13.34-19.65-.18-.27-.61-.02-.43.25h0Z"/>
  <path class="cls-1" d="m94.77,94.14c-3.82-4.54-7.67-9.13-10.39-14.43-1.29-2.52-2.16-5.21-3.38-7.75s-3.23-4.44-4.46-6.91c-.14-.29-.57-.04-.43.25,1.23,2.47,3.25,4.4,4.46,6.91,1.29,2.68,2.2,5.51,3.59,8.15,2.72,5.18,6.51,9.69,10.26,14.14.21.25.56-.11.35-.35h0Z"/>
  <path class="cls-1" d="m76.22,63.19c3.55,3.28,7.18,6.65,9.43,11,1.97,3.8,2.86,8.24,6.01,11.33.23.23.58-.13.35-.35-3.3-3.23-4.1-7.98-6.29-11.9s-5.75-7.3-9.15-10.44c-.24-.22-.59.13-.35.35h0Z"/>
  <path class="cls-1" d="m71.8,59.23c5.55,7.09,11.18,14.42,13.57,23.26.08.31.57.18.48-.13-2.41-8.92-8.09-16.32-13.7-23.48-.2-.25-.55.1-.35.35h0Z"/>
  <path class="cls-1" d="m53.77,32.94c3.13,4.85,8.14,8.69,9.39,14.59.07.31.55.18.48-.13-1.25-5.95-6.28-9.81-9.44-14.71-.17-.27-.61-.02-.43.25h0Z"/>
  <path class="cls-1" d="m64.5,48.04c-1.32-4.59-5.21-7.44-8.31-10.79-1.69-1.83-2.88-3.84-3.87-6.11-.86-1.98-1.71-3.96-3.19-5.56-.22-.24-.57.12-.35.35,1.5,1.61,2.31,3.63,3.18,5.62s1.92,3.83,3.36,5.48c3.11,3.55,7.33,6.38,8.7,11.14.09.31.57.18.48-.13h0Z"/>
  <path class="cls-1" d="m49.73,26.83c1.59,3.28,4.67,5.36,6.84,8.2,1.24,1.63,1.84,3.52,2.75,5.33.86,1.7,2.08,3.17,3.57,4.35.25.2.61-.15.35-.35-1.59-1.26-2.84-2.83-3.7-4.67-.8-1.71-1.43-3.44-2.59-4.96-2.16-2.82-5.23-4.88-6.8-8.14-.14-.29-.57-.04-.43.25h0Z"/>
  <path class="cls-1" d="m63.75,48.49c-.75-2.24-2.74-3.42-4.43-4.9-2.39-2.1-3.91-5.04-5.63-7.68-3.54-5.44-7.35-10.69-11.4-15.76-.2-.25-.55.1-.35.35,4.02,5.04,7.8,10.26,11.32,15.66,1.5,2.3,2.84,4.79,4.71,6.81,1.75,1.88,4.44,3.08,5.3,5.65.1.3.58.17.48-.13h0Z"/>
  <path class="cls-1" d="m41.07,20.14c1.36,3.06,3.48,5.64,5.74,8.09,2.51,2.72,4.98,5.42,7.26,8.35,2.47,3.17,4.91,6.35,6.99,9.79,1.83,3.02,3.47,6.16,5.26,9.2,1.96,3.32,4.12,6.52,6.84,9.27.23.23.58-.12.35-.35-4.96-5.02-7.94-11.48-11.49-17.48-3.74-6.34-8.44-12.27-13.48-17.64-2.71-2.89-5.42-5.82-7.05-9.48-.13-.29-.56-.04-.43.25h0Z"/>
  <path class="cls-1" d="m40.93,22.25c.45,3.11,3.4,4.72,5.43,6.76,2.64,2.66,4.35,6.07,6.11,9.33,1.9,3.51,4.19,6.71,6.43,10.01s4.13,6.5,6.23,9.73c2.33,3.57,4.85,7.01,7.95,9.95.23.22.59-.13.35-.35-5.53-5.25-9.12-12.03-13.27-18.34-2.16-3.28-4.56-6.39-6.48-9.82-1.7-3.05-3.21-6.24-5.37-9.02-1.11-1.43-2.42-2.6-3.78-3.78-1.45-1.26-2.84-2.62-3.13-4.6-.05-.32-.53-.18-.48.13h0Z"/>
  <path class="cls-1" d="m72.63,67.02c-1.24-4.37-3.77-8.14-6.46-11.75-2.98-4-6.05-7.93-9.21-11.79s-6.81-7.77-9.8-11.97-5.03-8.73-7.82-12.92c-3.31-4.98-6.71-9.9-10.07-14.85-.18-.26-.61-.01-.43.25,2.93,4.31,5.86,8.62,8.78,12.94,1.38,2.04,2.76,4.09,3.99,6.22s2.45,4.54,3.83,6.72c2.56,4.04,5.83,7.57,8.89,11.22,3.34,3.99,6.58,8.06,9.73,12.21s6.59,8.62,8.08,13.85c.09.31.57.18.48-.13h0Z"/>
  <path class="cls-1" d="m40.04,20.9c4.3,2.08,10.79,1.48,13.3,6.33.15.29.58.03.43-.25-2.59-5-9.06-4.37-13.48-6.51-.29-.14-.54.29-.25.43h0Z"/>
  <path class="cls-1" d="m49.38,26.03l-3.37.58c-.4.07-.99.06-1.14.53-.12.36.07.78.28,1.07.19.26.62,0,.43-.25-.09-.13-.39-.56-.2-.71.06-.05.2-.05.27-.07.12-.02.25-.04.37-.06l.7-.12,2.79-.48c.32-.05.18-.54-.13-.48h0Z"/>
  <path class="cls-1" d="m48.78,29.92c2.75,1.62,5.4,3.4,7.93,5.35.25.2.5-.24.25-.43-2.53-1.94-5.18-3.73-7.93-5.35-.28-.16-.53.27-.25.43h0Z"/>
  <path class="cls-1" d="m57.36,34.94c-2.7-.53-5.49-.36-8.1.51-.3.1-.17.58.13.48,2.53-.83,5.22-1.02,7.83-.51.31.06.45-.42.13-.48h0Z"/>
  <path class="cls-1" d="m50.13,36.65c2.7,1.16,5.43,2.26,8.19,3.28.3.11.43-.37.13-.48-2.72-1-5.41-2.08-8.07-3.22-.29-.13-.55.3-.25.43h0Z"/>
  <path class="cls-1" d="m61.4,41.39c.21.79-.33,1.51-.88,2.02-.62.56-1.34,1.01-2.01,1.51-1.11.82-2.16,1.84-2.46,3.24-.07.31.41.45.48.13.35-1.64,1.77-2.62,3.05-3.53,1.1-.78,2.72-1.92,2.3-3.5-.08-.31-.57-.18-.48.13h0Z"/>
  <path class="cls-1" d="m61.11,52.27c2.69.79,5.27,1.87,7.73,3.22.28.15.53-.28.25-.43-2.49-1.37-5.12-2.47-7.85-3.27-.31-.09-.44.39-.13.48h0Z"/>
  <path class="cls-1" d="m66.65,59.38c-.92,1.74.19,3.45,1.79,4.23.93.46,1.96.73,2.94,1.05.55.18,1.1.36,1.65.55.51.17,1,.33,1.44.64.26.19.51-.25.25-.43-.7-.49-1.58-.7-2.39-.96-.93-.31-1.86-.6-2.79-.92-.82-.29-1.63-.67-2.2-1.35-.6-.73-.73-1.71-.28-2.55.15-.28-.28-.54-.43-.25h0Z"/>
  <path class="cls-1" d="m73.72,67.08c-.49.64-.08,1.49.54,1.86.81.48,1.91.56,2.81.75,2.02.42,4.12.89,5.76,2.23.25.2.6-.15.35-.35-1.35-1.12-3-1.69-4.69-2.08-.86-.2-1.72-.36-2.58-.56-.45-.1-.94-.18-1.35-.4-.43-.23-.76-.75-.42-1.2.19-.26-.24-.51-.43-.25h0Z"/>
  <path class="cls-1" d="m84.63,75.84c.35,1.7,1.37,3.24,2.86,4.16,1.68,1.04,3.71,1.2,5.48,2.03.29.14.54-.3.25-.43-1.65-.77-3.52-.96-5.12-1.82s-2.62-2.34-2.98-4.06c-.07-.31-.55-.18-.48.13h0Z"/>
  <path class="cls-1" d="m94.14,84.31c-.46.3-1.06.33-1.46.73-.45.45-.43,1.21-.34,1.79.18,1.22.94,2.36,2.04,2.93.29.15.54-.28.25-.43-.95-.49-1.6-1.44-1.79-2.49-.08-.46-.15-1.19.26-1.52.37-.29.89-.33,1.29-.59.27-.17.02-.61-.25-.43h0Z"/>
  <path class="cls-1" d="m3.61,2.16c2.75,2.48,5.51,4.97,7.94,7.78s4.45,6.11,6.34,9.4,3.76,6.5,5.9,9.6c2.24,3.26,4.65,6.4,7.06,9.54,9.64,12.57,19.66,24.83,29.8,37,5.85,7.02,11.7,14.04,17.55,21.06.21.25.56-.11.35-.35-10.44-12.52-20.95-24.98-31.24-37.63-5.13-6.31-10.18-12.7-15.14-19.15-4.7-6.11-9.23-12.25-13.07-18.94-1.94-3.39-3.88-6.79-6.34-9.84C10.14,7.38,7.04,4.58,3.96,1.8c-.24-.21-.59.14-.35.35h0Z"/>
  <path class="cls-1" d="m78.4,95.81c-2.8-2.69-5.6-5.39-8.12-8.36s-4.61-6.07-6.71-9.25c-4.19-6.33-8.66-12.42-13.33-18.4s-9.62-12.17-14-18.56-8.27-13.17-12.46-19.71C19.08,14.19,14.06,7.04,8.77.11c-.19-.25-.63,0-.43.25,4.76,6.24,9.3,12.65,13.59,19.23s8.21,13.39,12.55,19.94c8.58,12.93,19.08,24.45,27.65,37.4,2.21,3.34,4.39,6.7,6.91,9.81,2.74,3.39,5.88,6.41,9.01,9.43.23.22.59-.13.35-.35h0Z"/>
  <path class="cls-1" d="m9.38,1.23c5.07,6.02,9.1,12.92,13.31,19.55s8.24,13.05,12.43,19.53c8.46,13.1,17.36,25.83,27.14,37.98,5.77,7.16,11.58,14.29,17.37,21.43.2.25.55-.11.35-.35-10.21-12.6-20.73-25.01-30.18-38.21-9.07-12.67-17.32-25.89-25.66-39.04C19.58,14.93,15.24,7.4,9.74.88c-.21-.25-.56.11-.35.35h0Z"/>
  <path class="cls-1" d="m13.66,3.22c5.02,4.41,8.87,9.9,12.46,15.49,3.9,6.09,7.74,12.22,11.69,18.28,8.05,12.35,16.32,24.55,24.63,36.73,4.28,6.27,8.27,13.1,13.82,18.36.23.22.59-.13.35-.35-5.11-4.86-8.82-11.06-12.77-16.84-4.2-6.16-8.39-12.32-12.55-18.5-8.15-12.11-16.1-24.33-23.92-36.66-3.85-6.07-7.92-12.09-13.35-16.87-.24-.21-.6.14-.35.35h0Z"/>
  <path class="cls-1" d="m75.53,90.43c-4.49-3.76-6.85-9.31-10.09-14.06s-7.35-9.45-11.05-14.16c-8.25-10.48-15.36-21.9-22.78-32.97-4.26-6.36-8.52-12.71-12.79-19.07-.18-.27-.61-.02-.43.25,7.6,11.34,15.2,22.68,22.81,34.02,3.67,5.47,7.34,10.95,11.34,16.19s8.04,9.71,11.69,14.86,6.09,11.23,10.95,15.29c.25.21.6-.15.35-.35h0Z"/>
  <path class="cls-1" d="m18.33,9.54c4.31,5.99,6.33,13.26,10.68,19.23,2.18,3,4.73,5.74,6.6,8.95s2.63,6.84,4.72,9.86c.18.26.62.01.43-.25-2.09-3.02-2.88-6.7-4.72-9.86s-4.42-5.95-6.6-8.95c-4.34-5.97-6.37-13.24-10.68-19.23-.19-.26-.62,0-.43.25h0Z"/>
  <path class="cls-1" d="m38.78,44.02c-9.71-7.83-12.4-20.89-20-30.36-.2-.25-.55.1-.35.35,7.61,9.48,10.27,22.52,20,30.36.25.2.6-.15.35-.35h0Z"/>
  <path class="cls-1" d="m16.17,11.56c3.9,9.85,8.75,19.56,16.41,27.06.23.23.58-.13.35-.35-7.59-7.43-12.41-17.07-16.28-26.84-.12-.3-.6-.17-.48.13h0Z"/>
  <path class="cls-1" d="m32.55,37.37c-3.15-6.1-6.27-12.21-9.46-18.29-2.97-5.65-6.27-11.04-10.32-15.98-.2-.25-.56.11-.35.35,4.13,5.04,7.45,10.55,10.46,16.31s6.16,11.91,9.24,17.86c.15.29.58.03.43-.25h0Z"/>
  <path class="cls-1" d="m12.03,2.84c2.08,5.04,4.62,9.88,7.61,14.44.18.27.61.02.43-.25-2.96-4.53-5.49-9.32-7.56-14.32-.12-.29-.61-.16-.48.13h0Z"/>
  <path class="cls-1" d="m19.92,17.88C15.24,12.56,10.55,7.24,5.87,1.91c-.21-.24-.57.11-.35.35l14.05,15.96c.21.24.57-.11.35-.35h0Z"/>
  <path class="cls-1" d="m5.64,2.93c4.25,5.89,8.28,11.93,12.1,18.12.17.27.6.02.43-.25-3.82-6.18-7.85-12.22-12.1-18.12-.19-.26-.62,0-.43.25h0Z"/>
  <path class="cls-1" d="m19.83,21.85c-1.86-7.02-7.53-12.08-10.17-18.74-.12-.3-.6-.17-.48.13,2.64,6.65,8.32,11.73,10.17,18.74.08.31.56.18.48-.13h0Z"/>
  <path class="cls-1" d="m10.48,4.59c6.38,5.54,10.08,13.25,14.02,20.55,2.02,3.74,4.19,7.38,6.76,10.78s5.4,6.77,7.56,10.55c.16.28.59.03.43-.25-2.15-3.77-4.95-7.09-7.56-10.55s-4.88-7.3-6.97-11.18c-3.88-7.21-7.59-14.79-13.89-20.25-.24-.21-.6.14-.35.35h0Z"/>
  <path class="cls-1" d="m36.31,40.35c-1.89-4.95-5.14-9.12-8.4-13.24-3.72-4.71-7.15-9.58-10.14-14.79-.16-.28-.59-.03-.43.25,2.8,4.87,5.96,9.48,9.43,13.89s7.05,8.74,9.05,14.02c.11.3.6.17.48-.13h0Z"/>
  <path class="cls-1" d="m19.96,16.35c9.57,13.44,15.92,28.82,25.24,42.41,2.57,3.74,5.36,7.32,8.46,10.63.22.24.57-.12.35-.35-11.23-12-18.01-27.16-26.17-41.23-2.32-4-4.77-7.94-7.46-11.71-.19-.26-.62-.01-.43.25h0Z"/>
  <path class="cls-1" d="m53.89,69.12c-2.19-5.98-4.39-11.98-7.36-17.63s-6.59-11.52-9.93-17.23c-.16-.28-.59-.03-.43.25,3.27,5.58,6.69,11.1,9.72,16.82s5.3,11.84,7.52,17.93c.11.3.59.17.48-.13h0Z"/>
  <path class="cls-1" d="m36.7,37.4c3.55,7.37,7.51,14.54,11.87,21.46,2.15,3.42,4.4,6.78,6.74,10.07s4.86,6.22,6.39,9.84c.12.3.56.04.43-.25-1.53-3.62-4.13-6.67-6.39-9.84s-4.59-6.65-6.74-10.07c-4.36-6.92-8.31-14.09-11.87-21.46-.14-.29-.57-.04-.43.25h0Z"/>
  <path class="cls-1" d="m61.43,77.78c-2.51-5.49-5.51-10.74-8.96-15.69-.18-.26-.62-.01-.43.25,3.45,4.95,6.45,10.2,8.96,15.69.13.29.56.04.43-.25h0Z"/>
  <path class="cls-1" d="m52.88,64.61c5.6,9.85,12.31,19.15,16.33,29.82.11.3.6.17.48-.13-4.04-10.71-10.76-20.04-16.38-29.94-.16-.28-.59-.03-.43.25h0Z"/>
  <path class="cls-1" d="m70.51,95.47c-4.51-9.38-9.02-18.75-13.53-28.13-.14-.29-.57-.04-.43.25,4.51,9.38,9.02,18.75,13.53,28.13.14.29.57.04.43-.25h0Z"/>
  <path class="cls-1" d="m58.24,70.33c5.28,6.62,9.77,13.83,13.41,21.48.14.29.57.04.43-.25-3.66-7.68-8.18-14.92-13.49-21.58-.2-.25-.55.1-.35.35h0Z"/>
  <path class="cls-1" d="m72.62,91.97c-3.66-4.87-5.66-10.72-8.72-15.95-3.18-5.42-7.02-10.4-10.85-15.36-.19-.25-.63,0-.43.25,3.83,4.96,7.67,9.94,10.85,15.36s5.06,11.08,8.72,15.95c.19.25.63,0,.43-.25h0Z"/>
  <path class="cls-1" d="m51,60.48c.56,4.06,2.83,7.47,5.04,10.82,2.49,3.77,4.63,7.7,6.3,11.91.12.3.6.17.48-.13-1.58-4-3.57-7.79-5.93-11.39s-4.81-7.06-5.41-11.34c-.04-.32-.53-.18-.48.13h0Z"/>
  <path class="cls-1" d="m62.5,81.65c-2.63-4.02-6.02-7.43-9.01-11.17-3.34-4.17-5.67-8.89-7.92-13.7-.14-.29-.57-.04-.43.25,2.14,4.58,4.34,9.11,7.46,13.12s6.7,7.52,9.47,11.75c.18.27.61.02.43-.25h0Z"/>
  <path class="cls-1" d="m45.84,58.61c.47,1.5,1.71,2.39,3.04,3.09.89.47,1.81.89,2.59,1.54.7.59,1.29,1.31,1.87,2.02,2.45,3.03,4.89,6.12,6.45,9.72.13.29.56.04.43-.25-1.46-3.38-3.71-6.3-5.99-9.16-1.06-1.33-2.1-2.65-3.59-3.52-1.63-.94-3.69-1.59-4.31-3.58-.1-.31-.58-.18-.48.13h0Z"/>
  <path class="cls-1" d="m58.74,72.1c-2.42-9.84-11.35-15.87-15.97-24.51-.15-.28-.58-.03-.43.25,4.6,8.6,13.51,14.6,15.92,24.39.08.31.56.18.48-.13h0Z"/>
  <path class="cls-1" d="m43.98,50.79c4.88,13.53,14.41,24.47,22.61,36.05,2.05,2.89,3.81,6.53,6.86,8.5.27.18.52-.26.25-.43-1.98-1.28-3.22-3.28-4.52-5.2-1.18-1.75-2.4-3.48-3.64-5.19-2.61-3.6-5.31-7.15-7.92-10.75-5.22-7.2-10.12-14.7-13.16-23.12-.11-.3-.59-.17-.48.13h0Z"/>
  <path class="cls-1" d="m63.33,80.64c1.68,2.7,3.43,5.37,4.99,8.15.74,1.33,1.37,2.69,1.95,4.1.43,1.03.91,2.01,1.83,2.7.26.19.51-.24.25-.43-1.09-.81-1.49-2.17-1.99-3.36-.54-1.28-1.19-2.52-1.88-3.73-1.49-2.6-3.13-5.13-4.71-7.67-.17-.27-.6-.02-.43.25h0Z"/>
  <path class="cls-1" d="m66.07,82.87c1.23,2.34,2.86,4.43,4.59,6.42,1.89,2.17,3.84,4.27,5.77,6.4.22.24.57-.12.35-.35-1.88-2.07-3.78-4.13-5.62-6.23s-3.41-4.12-4.66-6.49c-.15-.28-.58-.03-.43.25h0Z"/>
  <path class="cls-1" d="m71.67,88.46c1.58,3.37,3.25,6.7,5.01,9.98.15.28.58.03.43-.25-1.75-3.28-3.42-6.61-5.01-9.98-.14-.29-.57-.04-.43.25h0Z"/>
  <path class="cls-1" d="m72.5,90.82c.83,2.35,1.86,4.64,3.07,6.82.16.28.59.03.43-.25-1.19-2.15-2.2-4.38-3.02-6.7-.11-.3-.59-.17-.48.13h0Z"/>
  <path class="cls-1" d="m71.72,90.12c.48,3.51,1.71,6.89,3.61,9.88.1.16.42.17.46-.06.11-.63-.05-1.2-.51-1.66-.23-.23-.58.12-.35.35.32.32.45.72.38,1.17l.46-.06c-1.88-2.96-3.09-6.29-3.56-9.76-.04-.32-.53-.18-.48.13h0Z"/>
  <path class="cls-1" d="m68.07,83.04c.17,2.66,1.6,5.09,2.9,7.35,1.37,2.39,2.93,4.68,4.63,6.85.2.25.55-.1.35-.35-1.63-2.07-3.11-4.25-4.43-6.53s-2.79-4.69-2.95-7.32c-.02-.32-.52-.32-.5,0h0Z"/>
  <path class="cls-1" d="m66.13,77.28c.71,5.74,4.87,10.27,5.88,15.93.06.32.54.18.48-.13-1-5.61-5.16-10.11-5.86-15.8-.04-.32-.54-.32-.5,0h0Z"/>
  <path class="cls-1" d="m73.79,92.85c7.35-.01,14.7-.31,22.03-.9.32-.03.32-.53,0-.5-7.33.59-14.67.89-22.03.9-.32,0-.32.5,0,.5h0Z"/>
  <path class="cls-1" d="m75.28,92.9c5.58.95,11.23,1.38,16.89,1.25.32,0,.32-.51,0-.5-5.61.12-11.22-.29-16.75-1.24-.31-.05-.45.43-.13.48h0Z"/>
  <path class="cls-1" d="m74.92,92.81c6.28,1.85,12.94,1.99,19.3.41.31-.08.18-.56-.13-.48-6.27,1.56-12.83,1.42-19.03-.41-.31-.09-.44.39-.13.48h0Z"/>
  <path class="cls-1" d="m69.64,93c4.04.59,8.08,1.19,12.12,1.72s7.79.92,11.7.37c.32-.05.18-.53-.13-.48-3.86.55-7.73.12-11.57-.38s-8-1.11-11.99-1.7c-.31-.05-.45.44-.13.48h0Z"/>
  <path class="cls-1" d="m77.2,93.86c-.27.12-.38.27-.47.55-.04.12.04.28.17.31,6.38,1.21,12.88,1.56,19.35,1.02.32-.03.32-.53,0-.5-6.42.53-12.88.2-19.21-1l.17.31.24-.25c.29-.13.04-.56-.25-.43h0Z"/>
  <path class="cls-1" d="m83.09,94.22c-3.05.3-6.09.59-9.14.89-.26.02-.37.43-.07.49,5.84,1.11,11.79,1.51,17.73,1.18.32-.02.32-.52,0-.5-5.89.32-11.8-.07-17.6-1.17l-.07.49c3.05-.3,6.09-.59,9.14-.89.32-.03.32-.53,0-.5h0Z"/>
  <path class="cls-1" d="m81.97,95.54l-5.22.45c-.26.02-.37.45-.07.49,7.81,1.07,15.69,1.44,23.56,1.1.32-.01.32-.51,0-.5-7.83.34-15.66-.01-23.43-1.08l-.07.49,5.22-.45c.32-.03.32-.53,0-.5h0Z"/>
  <path class="cls-1" d="m83.6,96.57l-2.6-.39c-.32-.05-.43.36-.13.48,2.31.93,4.88.76,7.32.77,2.8.01,5.6,0,8.4-.14.32-.02.32-.52,0-.5-2.7.13-5.39.15-8.09.14-2.49,0-5.14.2-7.49-.75l-.13.48,2.6.39c.31.05.45-.43.13-.48h0Z"/>
  <path class="cls-1" d="m93.94,95.93c-7.16-.15-14.33.08-21.47.69-.32.03-.32.53,0,.5,7.14-.61,14.3-.84,21.47-.69.32,0,.32-.49,0-.5h0Z"/>
  <path class="cls-1" d="m73.35,96.95c6.87-.43,13.72-1.12,20.54-2.06.32-.04.18-.53-.13-.48-6.78.93-13.58,1.61-20.41,2.04-.32.02-.32.52,0,.5h0Z"/>
  <path class="cls-1" d="m92.17,93.33c-4.34-.4-8.7-.66-13.06-.77-.32,0-.32.49,0,.5,4.36.11,8.72.36,13.06.77.32.03.32-.47,0-.5h0Z"/>
  <path class="cls-1" d="m77,92.82c6.48.36,13.17.66,19.32-1.76.3-.12.17-.6-.13-.48-6.11,2.41-12.75,2.1-19.19,1.75-.32-.02-.32.48,0,.5h0Z"/>
  <path class="cls-1" d="m92.64,91.71c-2.2.68-4.52.43-6.79.54s-4.41.45-6.56.99c-.31.08-.18.56.13.48,2.27-.57,4.59-.92,6.94-1,2.15-.07,4.33.11,6.42-.54.31-.1.18-.58-.13-.48h0Z"/>
  <path class="cls-1" d="m10.94,5.76c5.88.62,11.81.67,17.7.13.32-.03.32-.53,0-.5-5.89.53-11.82.49-17.7-.13-.32-.03-.32.47,0,.5h0Z"/>
  <path class="cls-1" d="m25.12,4.69c-5.27,1.23-10.68,1.59-16.07,1.08-.32-.03-.32.47,0,.5,5.43.51,10.89.14,16.2-1.1.31-.07.18-.56-.13-.48h0Z"/>
  <path class="cls-1" d="m14.69,7.05c3.53.19,7.06.26,10.6.19,1.7-.03,3.4-.09,5.1-.19,1.42-.08,2.86-.08,4.16-.72.29-.14.04-.57-.25-.43-1.48.72-3.28.62-4.88.7s-3.27.13-4.91.15c-3.27.04-6.54-.03-9.81-.21-.32-.02-.32.48,0,.5h0Z"/>
  <path class="cls-1" d="m29.03,5.42c-4.23-.68-8.5-.98-12.78-.88-.32,0-.32.51,0,.5,4.24-.1,8.47.19,12.65.86.31.05.45-.43.13-.48h0Z"/>
  <path class="cls-1" d="m14.37,4.69c7.08.39,14.17.38,21.25-.02.32-.02.32-.52,0-.5-7.08.4-14.17.41-21.25.02-.32-.02-.32.48,0,.5h0Z"/>
  <path class="cls-1" d="m30.85,3.74c-5.61.07-11.22-.07-16.82-.44-.32-.02-.32.48,0,.5,5.6.37,11.21.52,16.82.44.32,0,.32-.5,0-.5h0Z"/>
  <path class="cls-1" d="m10.96,3.39c3.53.8,7.44.15,11-.16,3.89-.34,7.77-.78,11.65-1.22.32-.04.32-.54,0-.5-3.73.42-7.47.85-11.21,1.18-1.83.16-3.67.31-5.51.42-1.95.12-3.89.24-5.8-.2-.31-.07-.45.41-.13.48h0Z"/>
  <path class="cls-1" d="m26.43,2.34c-6.31,0-12.62-.14-18.92-.43-.32-.01-.32.49,0,.5,6.3.29,12.61.43,18.92.43.32,0,.32-.5,0-.5h0Z"/>
  <path class="cls-1" d="m4.73,1.92c7.22.56,14.47.57,21.7.03.32-.02.32-.52,0-.5-7.22.53-14.47.52-21.7-.03-.32-.02-.32.48,0,.5h0Z"/>
  <path class="cls-1" d="m32.51.89c-5.39-.26-10.78-.2-16.16.18-.32.02-.32.52,0,.5,5.38-.38,10.77-.44,16.16-.18.32.02.32-.48,0-.5h0Z"/>
  <path class="cls-1" d="m6.35,2.28c4.46,1.13,9.04,2.26,13.68,1.67.31-.04.32-.54,0-.5-4.59.58-9.12-.53-13.54-1.65-.31-.08-.45.4-.13.48h0Z"/>
  <path class="cls-1" d="m43.73,53.86c-2.61,4.45-6.16,8.35-9.4,12.34s-6.08,7.98-9.7,11.37-7.53,6.5-11.29,9.74c-2.79,2.41-6.39,4.99-6.64,9.01-.02.32.48.32.5,0,.14-2.38,1.61-4.23,3.26-5.81s3.37-2.97,5.06-4.43c3.59-3.1,7.44-6.01,10.74-9.42s6.29-7.5,9.35-11.27,6.15-7.21,8.54-11.28c.16-.28-.27-.53-.43-.25h0Z"/>
  <path class="cls-1" d="m6.74,96.29c3.46-2.57,6.94-5.13,10.37-7.74,2.81-2.13,5.96-4.28,7.89-7.29,1.15-1.8,2.28-3.27,4.02-4.53,1.54-1.11,3.16-2.09,4.66-3.26,2.81-2.19,5.56-4.67,7.01-7.99.84-1.92,1.62-3.72,2.87-5.41s2.68-3.37,3.65-5.3c.14-.29-.29-.54-.43-.25-1.6,3.19-4.35,5.61-5.78,8.91-.79,1.82-1.48,3.55-2.75,5.1-1.17,1.43-2.58,2.68-4.01,3.86-2.67,2.2-6.18,3.74-8.31,6.52-1.18,1.54-2.01,3.22-3.43,4.58-1.33,1.27-2.79,2.41-4.24,3.53-3.87,3.02-7.85,5.9-11.79,8.83-.26.19,0,.62.25.43h0Z"/>
  <path class="cls-1" d="m44.97,57.96c-1.93,4.07-4.49,7.73-7.63,10.95s-6.53,6.15-9.58,9.46c-2.89,3.13-5.59,6.43-8.15,9.83s-5.28,7.93-9.99,8.82c-.32.06-.18.54.13.48,4.13-.78,6.72-4.23,9.07-7.42,2.82-3.82,5.77-7.53,8.98-11.03s6.65-6.46,9.89-9.79,5.77-6.94,7.71-11.05c.14-.29-.29-.54-.43-.25h0Z"/>
  <path class="cls-1" d="m9.72,97.72c7.23-5.11,12.82-12.03,18.16-18.99,2.95-3.84,5.84-7.69,8.4-11.81,2.7-4.34,5.55-8.52,8.68-12.56.2-.25-.16-.61-.35-.35-2.91,3.74-5.62,7.6-8.12,11.63s-5.32,7.97-8.25,11.8c-5.53,7.25-11.26,14.55-18.78,19.86-.26.18-.01.62.25.43h0Z"/>
  <path class="cls-1" d="m43.83,54.9c-6.02,7.5-12.13,14.93-18.33,22.28-3.05,3.61-6.11,7.2-9.2,10.78-2.89,3.34-5.72,7.41-9.76,9.42-.29.14-.04.57.25.43,3.83-1.91,6.49-5.6,9.23-8.76,3.2-3.69,6.37-7.41,9.52-11.14,6.31-7.47,12.52-15.02,18.64-22.65.2-.25-.15-.6-.35-.35h0Z"/>
  <path class="cls-1" d="m8.19,96.47c3.69-1.31,6.45-4.07,9.21-6.72,3.14-3.02,6.7-5.48,10-8.32s5.7-6.44,8.03-10.23c2.54-4.13,5.37-8.07,8.21-11.99.19-.26-.24-.51-.43-.25-2.75,3.81-5.51,7.62-7.98,11.62-2.3,3.73-4.54,7.31-7.86,10.23-3.07,2.7-6.48,4.97-9.45,7.77s-5.87,6.01-9.86,7.42c-.3.11-.17.59.13.48h0Z"/>
  <path class="cls-1" d="m43.36,59.39c-6.86,7.29-13.61,14.72-20.77,21.72s-14.38,12.99-22.02,18.93c-.25.2.1.55.35.35,7.64-5.95,15.09-12.16,22.02-18.93,7.16-7,13.91-14.43,20.77-21.72.22-.23-.13-.59-.35-.35h0Z"/>
  <path class="cls-1" d="m6.23,99.37c4.5-6.79,10.01-12.85,16.37-17.94.25-.2-.1-.55-.35-.35-6.39,5.12-11.93,11.22-16.45,18.04-.18.27.25.52.43.25h0Z"/>
  <path class="cls-1" d="m23.33,80.84c-4.28,6.04-8.46,12.14-12.56,18.31-.18.27.25.52.43.25,4.1-6.16,8.29-12.27,12.56-18.31.19-.26-.25-.51-.43-.25h0Z"/>
  <path class="cls-1" d="m11.67,96.18c1.11-4.84,3.79-9.24,7.65-12.37.25-.2-.11-.55-.35-.35-3.93,3.18-6.66,7.67-7.78,12.59-.07.31.41.45.48.13h0Z"/>
  <path class="cls-1" d="m18.32,84.83c-4.15,5.43-8.36,10.9-13.71,15.22-.25.2.11.55.35.35,5.38-4.35,9.61-9.86,13.79-15.33.2-.26-.24-.5-.43-.25h0Z"/>
  <path class="cls-1" d="m5.8,99.41c4.09-5.88,8-11.86,12.85-17.15s9.94-10.63,14.91-15.95c.22-.23-.13-.59-.35-.35-5.08,5.43-10.21,10.8-15.22,16.29s-8.6,11.13-12.62,16.91c-.18.26.25.51.43.25h0Z"/>
  <path class="cls-1" d="m34.45,65.19c-5.64,5.2-10.71,10.99-15.13,17.27-.19.26.25.51.43.25,4.4-6.24,9.44-12,15.05-17.17.24-.22-.12-.57-.35-.35h0Z"/>
  <path class="cls-1" d="m19.3,83.72c1.11-1.76,2.89-2.97,4.42-4.34s3.01-2.85,4.4-4.38c2.75-3.02,5.19-6.31,7.31-9.79.17-.28-.26-.53-.43-.25-2.21,3.63-4.77,7.05-7.66,10.16-1.37,1.48-2.82,2.89-4.33,4.23s-3.08,2.45-4.14,4.12c-.17.27.26.52.43.25h0Z"/>
  <path class="cls-1" d="m34.44,66.12c-2.7,2.39-5.31,4.82-7.42,7.77-2.26,3.15-4.31,6.45-6.44,9.69-.18.27.26.52.43.25,2.07-3.14,4.08-6.35,6.25-9.42s4.78-5.49,7.53-7.93c.24-.21-.11-.57-.35-.35h0Z"/>
  <path class="cls-1" d="m21.96,81.53c3.55-4.71,7.63-9,11.07-13.8,1.69-2.36,3.18-4.85,4.4-7.49s2.37-5.59,4.38-7.89c.21-.24-.14-.6-.35-.35-1.86,2.12-2.97,4.68-4.12,7.23-1.25,2.78-2.74,5.41-4.5,7.9-3.48,4.94-7.67,9.32-11.31,14.15-.19.26.24.51.43.25h0Z"/>
  <path class="cls-1" d="m41.9,52.64c-3.78,5.41-7.78,10.66-11.99,15.75-.2.25.15.6.35.35,4.23-5.12,8.26-10.41,12.07-15.85.18-.26-.25-.51-.43-.25h0Z"/>
  <path class="cls-1" d="m31.32,68.2c2.74-2.29,5.49-4.62,7.62-7.51s3.43-6.13,5.81-8.74c.22-.24-.14-.59-.35-.35-2.28,2.5-3.64,5.63-5.56,8.38-2.14,3.06-5.02,5.48-7.87,7.87-.25.21.11.56.35.35h0Z"/>
  <path class="cls-1" d="m44.3,51.99c-2.45,6.35-4.96,12.81-9.24,18.19-.2.25.15.61.35.35,4.33-5.45,6.88-11.98,9.37-18.41.12-.3-.37-.43-.48-.13h0Z"/>
  <path class="cls-1" d="m33.62,73.03c5.6-5.23,10.19-11.45,13.58-18.32.14-.29-.29-.54-.43-.25-3.37,6.83-7.93,13.02-13.5,18.22-.24.22.12.57.35.35h0Z"/>
  <path class="cls-1" d="m46.83,54.62c-3.13,5.95-7.35,11.26-12.47,15.62-.25.21.11.56.35.35,5.15-4.39,9.4-9.75,12.55-15.73.15-.28-.28-.54-.43-.25h0Z"/>
  <path class="cls-1" d="m35.56,69.8c2.96-4.51,5.34-9.38,7.11-14.47.11-.3-.38-.44-.48-.13-1.76,5.06-4.13,9.88-7.06,14.35-.18.27.26.52.43.25h0Z"/>
  <path class="cls-1" d="m42.34,54.3c.35.92-.32,1.69-.92,2.31-.67.68-1.34,1.35-2.01,2.03-1.32,1.34-2.65,2.68-3.97,4.02-.23.23.13.58.35.35,1.48-1.5,2.96-3,4.44-4.5.7-.7,1.46-1.38,2.08-2.16.49-.62.8-1.41.5-2.19-.11-.3-.6-.17-.48.13h0Z"/>
  <path class="cls-1" d="m33.41,66.2c3.28-2.64,5.95-5.91,8.6-9.15.2-.25-.15-.6-.35-.35-2.65,3.25-5.32,6.52-8.6,9.15-.25.2.11.55.35.35h0Z"/>
  <path class="cls-1" d="m42.57,56.57c-5.01,6.4-10.26,12.61-15.75,18.6-.22.24.14.59.35.35,5.49-5.99,10.75-12.2,15.75-18.6.2-.25-.16-.61-.35-.35h0Z"/>
  <path class="cls-1" d="m39.24,63.01c-4.75,6.49-9.78,12.76-15.08,18.82-.21.24.14.6.35.35,5.32-6.08,10.38-12.4,15.16-18.92.19-.26-.24-.51-.43-.25h0Z"/>
  <path class="cls-1" d="m38.57,67.03l2.06-2.27-.39-.3c-5.23,6.79-12.44,11.66-18.11,18.05-.21.24.14.6.35.35,5.69-6.43,12.92-11.32,18.18-18.15.17-.22-.2-.51-.39-.3l-2.06,2.27c-.22.24.14.59.35.35h0Z"/>
  <path class="cls-1" d="m37.04,68.91c-4.95,6.93-10.81,13.18-17.43,18.54-.25.2.11.55.35.35,6.65-5.4,12.53-11.68,17.51-18.65.19-.26-.25-.51-.43-.25h0Z"/>
  <path class="cls-1" d="m35.43,68.82c-7.02,9.67-17.66,15.79-25.23,24.95-.2.25.15.6.35.35,7.6-9.19,18.27-15.34,25.31-25.05.19-.26-.24-.51-.43-.25h0Z"/>
  <path class="cls-1" d="m12.06,89.85c1.99-2.7,3.83-5.51,5.5-8.41.16-.28-.27-.53-.43-.25-1.67,2.91-3.51,5.71-5.5,8.41-.19.26.24.51.43.25h0Z"/>
  <path class="cls-1" d="m24.91,72.51c-2.16,3.35-4.05,6.87-5.66,10.52-.13.29.3.55.43.25,1.61-3.65,3.5-7.16,5.66-10.52.17-.27-.26-.52-.43-.25h0Z"/>
  <path class="cls-1" d="m26.81,29.63c4.01,9.56,10.54,17.97,16.33,26.49.18.26.61.01.43-.25-5.76-8.48-12.29-16.86-16.28-26.37-.12-.29-.61-.16-.48.13h0Z"/>
  <path class="cls-1" d="m38.08,52.47c-2.75-2.32-4.58-5.41-6.41-8.47-1.96-3.29-3.91-6.58-5.9-9.84-3.93-6.45-8.03-12.8-12.62-18.8-.19-.25-.63,0-.43.25,4.69,6.12,8.86,12.61,12.87,19.2,1.99,3.27,3.93,6.56,5.9,9.84,1.77,2.96,3.59,5.92,6.24,8.17.24.21.6-.15.35-.35h0Z"/>
</svg>