<?xml version="1.0" encoding="UTF-8"?>
<svg id="Layer_2" data-name="Layer 2" xmlns="http://www.w3.org/2000/svg" viewBox="0 0 100 99.56">
  <defs>
    <style>
      .cls-1 {
        fill: #231f20;
        stroke-width: 0px;
      }
    </style>
  </defs>
  <path class="cls-1" d="m7.1.85c1,1.24,2.58,1.76,3.62,2.97,1.36,1.58,2.56,3.34,3.83,5,2.02,2.65,4.1,5.33,6.76,7.38,1.19.92,2.46,1.62,3.84,2.2.73.31,1.22.44,1.51,1.19.19.48.19.79.26,1.28.09.65.31,1.29.61,1.88,1.69,3.33,5.5,4.88,7.68,7.84,2.68,3.64,5.04,7.63,7.3,11.54.16.28.59.03.43-.25-2.07-3.58-4.29-7.08-6.59-10.52-.97-1.45-2.04-2.73-3.38-3.85-1.53-1.27-3.24-2.4-4.41-4.04-.57-.8-.99-1.69-1.13-2.67-.08-.61,0-1.27-.37-1.8-.73-1.08-2.6-1.39-3.66-2-3.25-1.88-5.67-4.88-7.93-7.81-1.33-1.73-2.64-3.48-3.98-5.21-1.14-1.46-2.89-2.09-4.03-3.49-.2-.25-.55.11-.35.35h0Z"/>
  <path class="cls-1" d="m31.74,46.86c2.31-.56,4.36-1.8,6.27-3.18.89-.64,1.86-1.28,2.64-2.05s1.09-1.91,1.33-2.99c.07-.31-.41-.45-.48-.13-.24,1.1-.51,2.16-1.38,2.94-.82.73-1.75,1.37-2.65,2.01-1.79,1.28-3.71,2.4-5.87,2.93-.31.08-.18.56.13.48h0Z"/>
  <path class="cls-1" d="m41.88,38.8c.22,1.03.06,2.1-.44,3.02-.54,1-1.43,1.63-2.44,2.09-2.21,1.01-4.8,2.08-7.27,1.52-.31-.07-.45.41-.13.48,1.35.31,2.72.16,4.05-.21s2.68-.89,3.93-1.51c2.08-1.03,3.28-3.21,2.79-5.52-.07-.31-.55-.18-.48.13h0Z"/>
  <path class="cls-1" d="m30.74,46.34c2.72-.12,5.4-.85,7.79-2.16,2.19-1.21,3.77-3.12,3.77-5.72,0-.32-.5-.32-.5,0,0,1.17-.34,2.31-1.03,3.26s-1.77,1.66-2.84,2.22c-2.23,1.16-4.69,1.79-7.19,1.91-.32.01-.32.51,0,.5h0Z"/>
  <path class="cls-1" d="m33.44,44.79h-1.12c-.34-.2-.57-.49-.68-.86-.12-.26-.18-.52-.24-.8-.12-.58-.19-1.17-.28-1.75-.2-1.27-.36-2.56-.63-3.82-.22-1.03-.55-2.05-1.18-2.9s-1.47-1.45-2.18-2.19c-1.57-1.62-2.44-3.74-3.59-5.65-.53-.88-1.12-1.72-1.84-2.46-.83-.86-1.75-1.58-2.23-2.71-.13-.29-.56-.04-.43.25.48,1.11,1.36,1.85,2.19,2.68.95.96,1.67,2.08,2.33,3.26,1.25,2.22,2.38,4.21,4.26,5.96,2.32,2.16,2.42,5.17,2.88,8.12.22,1.39.85,4.52,3,3.29.28-.16.03-.59-.25-.43h0Z"/>
  <path class="cls-1" d="m20.69,22.61c.52,2.23,2.28,3.66,3.73,5.31,2.03,2.3,2.29,5.05,2.89,7.93.49,2.32,1.5,4.15,3.1,5.89,1.73,1.87,3.8,3.59,4.39,6.19.07.31.55.18.48-.13-.49-2.14-1.94-3.73-3.43-5.27-1.98-2.05-3.46-3.95-4.06-6.8-.52-2.46-.7-5.04-2.2-7.14s-3.81-3.52-4.42-6.1c-.07-.31-.56-.18-.48.13h0Z"/>
  <path class="cls-1" d="m34.17,44.4c-2.18-2.42-3.94-5.2-5.21-8.2-.13-.3-.56-.04-.43.25,1.29,3.04,3.08,5.84,5.29,8.3.22.24.57-.11.35-.35h0Z"/>
  <path class="cls-1" d="m28.4,36.91c1.5,2.94,3.53,5.59,5.98,7.81.24.22.59-.14.35-.35-2.42-2.19-4.41-4.8-5.9-7.71-.15-.29-.58-.03-.43.25h0Z"/>
  <path class="cls-1" d="m21.7,16.61c2.63,4.8,5.57,9.43,8.84,13.82,3.01,4.04,6.18,8.28,10.3,11.25.26.19.51-.24.25-.43-4.28-3.09-7.58-7.59-10.67-11.81s-5.82-8.55-8.3-13.09c-.15-.28-.59-.03-.43.25h0Z"/>
  <path class="cls-1" d="m40.15,38.29c-1.99-1.99-4.13-3.9-5.95-6.05-1.61-1.91-2.46-4.3-4.06-6.21s-3.64-3.22-4.94-5.29c-1.12-1.78-1.73-3.87-3.42-5.24-.25-.2-.6.15-.35.35,1.83,1.48,2.39,3.85,3.73,5.7s3.21,3.1,4.63,4.82c1.58,1.92,2.45,4.3,4.06,6.21,1.82,2.15,3.96,4.07,5.95,6.05.23.23.58-.13.35-.35h0Z"/>
  <path class="cls-1" d="m23.36,19.64c3.96,2.76,6.62,6.43,8.89,10.63,1.06,1.97,2.14,3.92,3.5,5.71s2.89,3.57,3.14,5.88c.04.32.54.32.5,0-.23-2.1-1.41-3.77-2.66-5.41-1.56-2.03-2.83-4.17-4.05-6.42-2.31-4.29-5.03-7.99-9.06-10.81-.26-.18-.51.25-.25.43h0Z"/>
  <path class="cls-1" d="m39.51,42.34c.6-2.73-1.31-4.95-3.19-6.64-2.22-2-4.26-4.07-5.95-6.54-.18-.26-.61-.01-.43.25,1.49,2.16,3.22,4.13,5.18,5.88s4.57,3.94,3.92,6.91c-.07.31.41.45.48.13h0Z"/>
  <path class="cls-1" d="m32.59,44.8c-2.21-.75-2.51,2.15-2.51,3.6s.15,3.03.04,4.54c-.12,1.6-.55,3.15-1.11,4.64-1.93,5.13-5.56,10.12-4.24,15.88.07.31.55.18.48-.13-1.18-5.14,1.79-9.78,3.72-14.32.79-1.87,1.45-3.8,1.63-5.83.12-1.27.03-2.55,0-3.82-.03-1.16-.31-4.81,1.86-4.07.31.1.44-.38.13-.48h0Z"/>
  <path class="cls-1" d="m31.61,44.97c-1.76,1.78-2.77,3.91-3.23,6.36-.26,1.4-.41,2.84-.91,4.18s-1.48,2.57-2.46,3.67c-1.67,1.88-3.23,3.71-4.23,6.05s-1.43,4.74-1.38,7.22c0,.32.51.32.5,0-.05-2.67.49-5.32,1.66-7.72s2.95-4.1,4.59-6.1c1.45-1.78,2.13-3.64,2.51-5.89.49-2.84,1.23-5.31,3.32-7.41.23-.23-.13-.58-.35-.35h0Z"/>
  <path class="cls-1" d="m16.88,75.73c1.5-2.86,1.35-6.14,3.7-8.59,1.98-2.08,4.39-3.69,6.35-5.81,1.74-1.89,3.25-4.05,4.07-6.5,1.07-3.21.6-6.66,1.37-9.92.07-.31-.41-.45-.48-.13-.74,3.14-.31,6.45-1.25,9.55-.88,2.91-2.77,5.39-4.89,7.51-1.97,1.97-4.45,3.53-6.19,5.71-1.86,2.33-1.76,5.38-3.11,7.94-.15.28.28.54.43.25h0Z"/>
  <path class="cls-1" d="m32.02,44.71c.22,2.53-1.28,4.62-2.25,6.84s-1.3,4.49-1.96,6.73c-1.18,4.04-4.86,7.67-4.29,12.1.04.31.54.32.5,0-.31-2.43.74-4.58,1.88-6.66s2.05-3.93,2.63-6.15c.64-2.43,1.16-4.79,2.29-7.07.92-1.84,1.89-3.68,1.7-5.8-.03-.32-.53-.32-.5,0h0Z"/>
  <path class="cls-1" d="m21.9,69.35c-.16-2.49,1.23-4.72,2.53-6.74s2.78-3.61,4.18-5.43c2.51-3.24,2.08-7.26,2.89-11.07.07-.31-.42-.45-.48-.13-.43,2.04-.48,4.13-.83,6.18-.43,2.52-1.59,4.3-3.22,6.21-1.4,1.64-2.66,3.39-3.74,5.26-1.03,1.76-1.94,3.63-1.81,5.72.02.32.52.32.5,0h0Z"/>
  <path class="cls-1" d="m34.16,47.01c-.22,1.09,2.02-.07,2.34-.23,1.03-.53,1.98-1.22,2.8-2.03,1.69-1.65,2.89-3.79,3.34-6.11.06-.31-.42-.45-.48-.13-.39,1.97-1.31,3.8-2.65,5.3-.66.74-1.41,1.39-2.24,1.94-.4.27-.82.51-1.26.72-.25.12-.5.23-.75.33-.22.08-.58.12-.63.35.06-.31-.42-.45-.48-.13h0Z"/>
  <path class="cls-1" d="m42.14,38.13c.82,2.63-.33,5.49-2.36,7.24-2.25,1.94-5.38,2.48-8.27,2.3-.32-.02-.32.48,0,.5,3.07.19,6.39-.45,8.74-2.56,2.09-1.87,3.23-4.89,2.37-7.62-.1-.31-.58-.18-.48.13h0Z"/>
  <path class="cls-1" d="m39.19,24.61c.74,3.59,1.51,7.28,3.46,10.45.8,1.29,1.78,2.49,2.95,3.45,1.37,1.12,2.95,1.61,4.48,2.44.28.15.54-.28.25-.43-1.48-.8-3.05-1.27-4.38-2.36-1.21-.99-2.21-2.22-3-3.56-1.83-3.08-2.56-6.65-3.28-10.11-.07-.31-.55-.18-.48.13h0Z"/>
  <path class="cls-1" d="m50.57,40.39c-1.39-.79-3.01-1.48-4.21-2.56s-1.52-2.66-1.86-4.13c-.71-3.06-1.77-6.01-3.17-8.82-.14-.29-.58-.03-.43.25,1.56,3.12,2.49,6.33,3.36,9.68.33,1.29.82,2.56,1.85,3.46,1.22,1.06,2.82,1.76,4.22,2.55.28.16.53-.27.25-.43h0Z"/>
  <path class="cls-1" d="m40.18,24.12c.24.55.71.79,1.24,1.02,1.13.49,1.68,1.18,2.31,2.22.58.95,1.16,1.92,1.54,2.98s.49,2.25.61,3.4c.32,3.09,1.18,6.48,4.01,8.2.28.17.53-.26.25-.43-3.31-2.02-3.44-6.02-3.95-9.44-.28-1.89-1.12-3.48-2.11-5.09-.39-.64-.8-1.32-1.42-1.77-.65-.47-1.71-.54-2.06-1.34-.13-.29-.56-.04-.43.25h0Z"/>
  <path class="cls-1" d="m49.17,39.86c-3.16-.66-4.27-4.03-3.98-6.91.14-1.37.36-2.65-.14-3.97-.4-1.07-1.11-1.95-2.04-2.61-.26-.19-.51.25-.25.43,1.19.85,1.98,2.18,2.12,3.64.15,1.56-.37,3.08-.17,4.65.31,2.43,1.82,4.73,4.33,5.25.31.07.45-.42.13-.48h0Z"/>
  <path class="cls-1" d="m41.46,25.64c.31.94.87,1.72,1.43,2.52.66.94,1.14,1.91,1.43,3.02.51,1.92.74,4.03,2.24,5.49.23.22.59-.13.35-.35-1.53-1.49-1.65-3.71-2.21-5.64-.27-.93-.68-1.76-1.23-2.55-.58-.84-1.22-1.64-1.53-2.62-.1-.3-.58-.17-.48.13h0Z"/>
  <path class="cls-1" d="m46.82,36.96c-1.5-1.52-3.37-3-3.98-5.12s-.8-4.63-.83-6.92c0-.32-.51-.32-.5,0,.04,2.38.19,4.96.91,7.25.67,2.12,2.53,3.62,4.05,5.14.23.23.58-.12.35-.35h0Z"/>
  <path class="cls-1" d="m40.79,24.84c-.5,2.37.49,4.99,1.26,7.21.83,2.39,1.89,4.7,3.16,6.89.16.28.59.03.43-.25-1.2-2.08-2.22-4.27-3.02-6.53-.39-1.1-.73-2.22-1.02-3.36-.32-1.26-.59-2.53-.32-3.82.07-.31-.42-.45-.48-.13h0Z"/>
  <path class="cls-1" d="m43.94,36.14c-1.03-1.85-1.35-3.96-1.91-5.98-.26-.95-.62-1.84-1.02-2.74-.51-1.16-.58-2.3-.56-3.55,0-.32-.49-.32-.5,0-.02,1.15,0,2.26.43,3.34s.87,2.01,1.17,3.08c.57,2.06.91,4.2,1.96,6.1.16.28.59.03.43-.25h0Z"/>
  <path class="cls-1" d="m39.6,23.84c2.29,2.66,5.53,4.64,7.14,7.86,1.52,3.04,1.29,7.36,4.71,9.14.29.15.54-.28.25-.43-3.5-1.82-3.08-6.62-4.91-9.64s-4.67-4.76-6.84-7.28c-.21-.24-.56.11-.35.35h0Z"/>
  <path class="cls-1" d="m50.57,40.83c-.6-.83-1.2-1.67-1.79-2.5s-1.11-1.61-1.43-2.55c-.62-1.81-.61-3.77-.59-5.66,0-.32-.5-.32-.5,0-.02,1.94-.03,3.94.61,5.8s2.1,3.54,3.27,5.17c.19.26.62,0,.43-.25h0Z"/>
  <path class="cls-1" d="m45.47,30.64c-.19,3.5,1.21,6.98,3.75,9.38.23.22.59-.13.35-.35-2.46-2.32-3.79-5.66-3.61-9.03.02-.32-.48-.32-.5,0h0Z"/>
  <path class="cls-1" d="m47.56,36.07c-.8-2.43-1.51-4.92-2.48-7.3-.78-1.93-1.84-3.74-3.55-4.98-.26-.19-.51.24-.25.43,1.75,1.27,2.77,3.22,3.53,5.2.85,2.22,1.53,4.52,2.28,6.78.1.3.58.17.48-.13h0Z"/>
  <path class="cls-1" d="m17.95,72.07c.07,2.14.27,4.27.84,6.35.08.28.48.21.49-.07.16-3.39.41-7.12,3.01-9.63l-.39-.05c.26.37-.11,1.26-.21,1.66s-.2.85-.3,1.27c-.21.9-.43,1.79-.64,2.69-.36,1.52-.9,3.1-.55,4.67.06.26.41.22.48,0,1.53-4.39-.2-9.1.97-13.54h-.48c.53,2.93.09,5.94-1.24,8.6l.47.13c-.31-2.95.02-6.88,3.36-7.95l-.28-.37c-.62,1.29-1.03,2.65-1.17,4.08-.05.56-.29,2.58.88,2.22.34-.11.53-.47.63-.79.26-.78.35-1.67.5-2.48.29-1.66.52-3.33.69-5l-.49.07c.42,1.98-.56,3.91-.51,5.9.04,1.87.71,3.66,1.36,5.39.11.3.6.17.48-.13-.7-1.86-1.43-3.79-1.34-5.81.08-1.86.89-3.61.49-5.48-.06-.3-.46-.2-.49.07-.24,2.31-.57,4.62-1.06,6.88-.04.18-.08.64-.24.75l-.41-.06c-.03-.15-.04-.31-.04-.46-.02-.55.04-1.12.13-1.66.18-1.13.53-2.21,1.03-3.23.09-.18-.06-.44-.28-.37-3.57,1.14-4.06,5.24-3.73,8.43.02.22.34.37.47.13,1.4-2.79,1.85-5.91,1.29-8.99-.04-.25-.42-.23-.48,0-1.17,4.45.56,9.16-.97,13.54h.48c-.23-1.01-.02-2,.21-2.99s.45-1.89.67-2.83.43-1.79.64-2.69c.14-.58.5-1.36.12-1.91-.09-.13-.27-.17-.39-.05-2.7,2.6-2.98,6.45-3.15,9.98l.49-.07c-.56-2.03-.76-4.12-.82-6.22,0-.32-.51-.32-.5,0h0Z"/>
  <path class="cls-1" d="m22.98,87.15c2.71-.68,5.55-1.41,7.78-3.17,1.13-.9,1.99-2.03,2.64-3.32s1.39-2.95,1.6-4.43c.15-1.02-.26-1.71-1.04-2.32-1.4-1.07-2.9-1.95-4.23-3.13-.64-.56-1.29-1.15-1.85-1.8-.95-1.08-.69-2.12-.2-3.35.71-1.77,1.43-3.53,2.15-5.29.12-.3-.36-.43-.48-.13-.66,1.62-1.31,3.23-1.97,4.85-.44,1.07-1.05,2.2-.51,3.35.51,1.08,1.63,1.95,2.51,2.72,1.13,1,2.35,1.89,3.61,2.72.98.64,1.75,1.37,1.44,2.67-.18.75-.47,1.49-.74,2.21-.58,1.57-1.34,3.1-2.56,4.28-2.22,2.15-5.36,2.94-8.27,3.67-.31.08-.18.56.13.48h0Z"/>
  <path class="cls-1" d="m29.32,59.67c-1.2,2.42-2.46,4.98-2.25,7.76.18,2.39,1.51,4.05,3.41,5.38,2.37,1.67,6.58,4.55,3.45,7.67-1.08,1.08-2.43,1.95-3.62,2.89-1.41,1.11-2.83,2.22-4.24,3.33-.25.2.1.55.35.35,1.41-1.11,2.83-2.22,4.24-3.33,1.2-.94,2.53-1.83,3.62-2.89,1.7-1.65,1.47-3.79.06-5.57-1.73-2.17-4.81-2.94-6.13-5.48-1.69-3.25.06-6.91,1.53-9.87.14-.29-.29-.54-.43-.25h0Z"/>
  <path class="cls-1" d="m23.96,86.94c2.99-.33,7.69-.53,9.4-3.51,1.81-3.13.21-7.88-1.05-10.91-.78-1.88-1.74-3.68-2.75-5.45-1.12-1.98-2.7-4.15-2.41-6.53.38-3.11,4.03-4.86,3.8-8.16-.02-.32-.52-.32-.5,0,.21,2.94-2.89,4.7-3.66,7.34-.96,3.31,1.86,6.64,3.31,9.36,1.87,3.49,3.6,7.44,3.46,11.48-.08,2.31-1.26,3.91-3.43,4.68-1.96.7-4.13.95-6.18,1.18-.32.04-.32.54,0,.5h0Z"/>
  <path class="cls-1" d="m30.06,51.15c-1.15,4.38-4.85,7.66-5.63,12.17-.73,4.21,2.6,7.51,2.44,11.62-.01.32.49.32.5,0,.16-4.21-3.3-7.57-2.38-11.88s4.43-7.51,5.56-11.77c.08-.31-.4-.44-.48-.13h0Z"/>
  <path class="cls-1" d="m18.48,76.08c.94,3.48,2.5,6.73,4.62,9.64.17.23.51.09.46-.19-.75-4.11-1.51-8.22-2.26-12.33-.05-.27-.52-.21-.49.07.36,3.95,1.54,7.74,3.47,11.21.13.23.45.11.47-.13.1-1.86-.59-3.55-1.27-5.24-.74-1.83-1.49-3.66-2.23-5.49-.12-.29-.56-.19-.48.13.65,2.55,1.29,5.1,2.03,7.63.56,1.92,1.24,3.81,2.69,5.25.17.17.49,0,.42-.24-1.19-4.05-1.93-8.2-2.21-12.41-.02-.32-.52-.32-.5,0,.19,3.23.97,6.36,2.32,9.31.1.22.48.11.47-.13-.3-3.94-.43-7.88-.38-11.83,0-.27-.45-.35-.49-.07-.67,4.93-.61,9.91.19,14.82.05.29.48.21.49-.07.16-6.12-.07-12.24-.31-18.35-.01-.32-.5-.32-.5,0,0,3.27-.01,6.55.09,9.82.08,2.61-.14,5.75,1.22,8.08.14.23.44.1.47-.13.84-6.52,1.69-13.05,2.53-19.57h-.5l.02,20.18c0,.27.45.35.49.07.81-5.18-.24-10.32-1.33-15.38-.07-.32-.53-.18-.48.13.61,4.18,1.53,8.3,2.77,12.34.07.23.42.25.48,0,.94-3.74,1.56-7.54,1.87-11.38.03-.32-.47-.31-.5,0-.38,3.46-.73,6.93-.42,10.42.02.26.42.36.49.07.66-2.88.84-5.81.53-8.74-.03-.32-.46-.32-.5,0-.29,2.66-.21,5.32.22,7.97.05.32.53.18.48-.13-.42-2.6-.49-5.22-.2-7.83h-.5c.31,2.89.14,5.78-.51,8.61l.49.07c-.31-3.48.04-6.95.42-10.42h-.5c-.3,3.8-.92,7.55-1.85,11.24h.48c-1.23-4.04-2.16-8.16-2.77-12.34l-.48.13c1.07,4.96,2.12,10.03,1.33,15.11l.49.07-.02-20.18c0-.33-.46-.31-.5,0-.84,6.52-1.69,13.05-2.53,19.57l.47-.13c-.72-1.24-.87-2.62-.97-4.03-.1-1.53-.16-3.07-.2-4.6-.08-3-.07-6.01-.07-9.02h-.5c.24,6.12.46,12.23.31,18.35l.49-.07c-.79-4.82-.85-9.72-.19-14.56l-.49-.07c-.04,3.95.09,7.89.38,11.83l.47-.13c-1.31-2.86-2.07-5.91-2.25-9.05h-.5c.29,4.26,1.03,8.45,2.23,12.55l.42-.24c-1.56-1.55-2.17-3.66-2.75-5.72-.65-2.3-1.24-4.62-1.83-6.93l-.48.13c.69,1.71,1.39,3.42,2.08,5.13s1.51,3.53,1.4,5.48l.47-.13c-1.89-3.39-3.05-7.09-3.4-10.95l-.49.07c.75,4.11,1.51,8.22,2.26,12.33l.46-.19c-2.1-2.88-3.64-6.08-4.57-9.52-.08-.31-.57-.18-.48.13h0Z"/>
  <path class="cls-1" d="m26.83,86.47c1.02.71,1.62-.97,1.95-1.62.69-1.38,1.34-2.81,1.68-4.32.74-3.28-.65-6.35-1.67-9.41-.1-.3-.58-.17-.48.13.82,2.47,2.08,5.12,1.88,7.78-.09,1.26-.48,2.49-.96,3.66-.27.65-.57,1.28-.88,1.91-.17.34-.7,1.83-1.26,1.44-.26-.18-.51.25-.25.43h0Z"/>
  <path class="cls-1" d="m28.95,74.37c.41,2.08.87,4.53-.33,6.44-1.08,1.72-3.15,2.47-4.58,3.84-.23.22.12.58.35.35,1.54-1.48,3.78-2.26,4.83-4.23s.64-4.42.21-6.54c-.06-.32-.54-.18-.48.13h0Z"/>
  <path class="cls-1" d="m23.96,85.4c3.38-.34,6.64-3.15,8-6.2.65-1.46.81-3.2.11-4.67s-2.48-2.34-3.11-3.94c-.12-.3-.6-.17-.48.13.49,1.25,1.56,2.02,2.43,2.99,1.21,1.35,1.38,3.19.78,4.86s-1.75,2.95-3,4.06c-1.33,1.18-2.92,2.1-4.72,2.28-.32.03-.32.53,0,.5h0Z"/>
  <path class="cls-1" d="m28.82,72.39c1.02,5.09-1.29,10.57-5.64,13.39-.27.17-.02.61.25.43,4.55-2.95,6.94-8.64,5.87-13.95-.06-.32-.55-.18-.48.13h0Z"/>
  <path class="cls-1" d="m23.12,86.49c3.32-1.2,7.07-2.64,8.58-6.12s-1.05-6.85-2.16-10.17c-.1-.3-.58-.17-.48.13,1.04,3.1,3.6,6.21,2.28,9.62s-5.13,4.9-8.34,6.06c-.3.11-.17.59.13.48h0Z"/>
  <path class="cls-1" d="m29.05,72.08c.36,2.37.48,5-.64,7.2-.93,1.83-2.74,3.29-4.86,3.27-.32,0-.32.5,0,.5,2.23.02,4.18-1.47,5.21-3.38,1.27-2.35,1.15-5.16.76-7.72-.05-.32-.53-.18-.48.13h0Z"/>
  <path class="cls-1" d="m22.91,82.75c3.18.07,5.18-3.17,5.78-5.94.29-1.36.25-2.86-.51-4.07-.8-1.28-2.21-2.01-3.17-3.16-.21-.25-.56.11-.35.35.79.94,1.86,1.58,2.67,2.5.99,1.13,1.19,2.61.92,4.04-.48,2.61-2.33,5.84-5.34,5.77-.32,0-.32.49,0,.5h0Z"/>
  <path class="cls-1" d="m24.82,70.24c.23,1.94.75,4.17-.14,6-.4.82-.94,1.57-1.45,2.32-.56.8-1.16,1.57-1.91,2.2-.25.21.11.56.35.35.73-.62,1.33-1.37,1.88-2.15.59-.84,1.21-1.69,1.64-2.63.87-1.9.36-4.1.13-6.09-.04-.32-.54-.32-.5,0h0Z"/>
  <path class="cls-1" d="m20.99,81.61c3.24.55,6.59-1.33,7.96-4.3,1.47-3.19.58-7.03-1.7-9.59-.21-.24-.57.11-.35.35,2.12,2.38,2.99,6,1.63,8.98-1.26,2.75-4.37,4.58-7.39,4.07-.31-.05-.45.43-.13.48h0Z"/>
  <path class="cls-1" d="m26.42,68.32c.61,2.43.13,5-.69,7.32-.75,2.13-2.14,4.2-4.45,4.79-.31.08-.18.56.13.48,2.33-.59,3.81-2.58,4.64-4.73.97-2.5,1.5-5.36.84-8-.08-.31-.56-.18-.48.13h0Z"/>
  <path class="cls-1" d="m21.01,80.85c3.24-1.17,6.72-3.27,8.59-6.25.83-1.33,1.21-2.95.43-4.39-.73-1.36-2.21-2.24-2.57-3.8-.07-.31-.55-.18-.48.13.28,1.25,1.23,2.09,2.01,3.05.53.66.95,1.37.98,2.24s-.34,1.77-.81,2.53c-.9,1.44-2.29,2.63-3.66,3.6s-2.98,1.82-4.63,2.42c-.3.11-.17.59.13.48h0Z"/>
  <path class="cls-1" d="m26.7,67.02c.2,2.71.42,5.52-.48,8.14-.42,1.22-1.08,2.34-2.01,3.24s-1.99,1.6-2.83,2.58c-.21.24.14.6.35.35.89-1.04,2.05-1.78,3-2.75.85-.87,1.47-1.94,1.89-3.08,1-2.71.79-5.66.57-8.48-.02-.32-.52-.32-.5,0h0Z"/>
  <path class="cls-1" d="m19.9,71.6c-1.11,4.14-.94,8.95,2.33,12.1.23.22.59-.13.35-.35-3.14-3.03-3.27-7.64-2.21-11.61.08-.31-.4-.44-.48-.13h0Z"/>
  <path class="cls-1" d="m21.43,83.53c-.38-5.6-.14-11.21.71-16.76.05-.31-.43-.45-.48-.13-.86,5.59-1.11,11.25-.73,16.89.02.32.52.32.5,0h0Z"/>
  <path class="cls-1" d="m22.29,67.99c-1.98,2.66-3.98,5.36-5.17,8.48-.55,1.44-.98,3.08-.5,4.6.39,1.22,1.28,2.2,2.43,2.74.29.14.54-.29.25-.43-1.36-.64-2.28-1.9-2.38-3.42s.53-3.15,1.18-4.54c1.2-2.59,2.92-4.89,4.62-7.17.19-.26-.24-.51-.43-.25h0Z"/>
  <path class="cls-1" d="m19.13,82.23c.29-4.74,2.91-8.96,3.28-13.69.03-.32-.47-.32-.5,0-.37,4.73-2.99,8.94-3.28,13.69-.02.32.48.32.5,0h0Z"/>
  <path class="cls-1" d="m23.54,63c-1.53,1.19-3.12,2.3-4.77,3.33-1.25.78-2.95,1.43-3.53,2.89-.12.3.36.43.48.13.29-.73.96-1.19,1.61-1.58.74-.45,1.49-.88,2.22-1.35,1.5-.95,2.95-1.98,4.35-3.08.25-.2-.1-.55-.35-.35h0Z"/>
  <path class="cls-1" d="m19.39,69.33v-.26s0-.07-.02-.1c-.01-.03-.03-.06-.05-.08-.02-.02-.05-.04-.08-.05-.03-.02-.06-.02-.1-.02h-.07s-.08.04-.11.07c-.04.05-.07.11-.07.18v.26s0,.07.02.1c.01.03.03.06.05.08.02.02.05.04.08.05.03.02.06.02.1.02h.07s.08-.04.11-.07c.04-.05.07-.11.07-.18h0Z"/>
  <path class="cls-1" d="m24.07,60.28c.65-1.56,1.43-3.06,2.33-4.49.17-.27-.26-.52-.43-.25-.93,1.47-1.72,3.01-2.38,4.61-.12.3.36.43.48.13h0Z"/>
  <path class="cls-1" d="m27.03,53.85c-1.3,2.22-2.77,4.33-4.41,6.31-1.38,1.67-3.28,3.21-4,5.32-.1.31.38.44.48.13.38-1.12,1.13-2.01,1.91-2.87s1.6-1.78,2.35-2.71c1.51-1.87,2.87-3.85,4.09-5.93.16-.28-.27-.53-.43-.25h0Z"/>
  <path class="cls-1" d="m48.54,75.66c4.43-3.84,11.13-2.58,16.11-5.37,4.62-2.59,5.98-8,5.68-12.96-.02-.32-.52-.32-.5,0,.16,2.64-.09,5.36-1.18,7.8-1.18,2.66-3.31,4.51-6.01,5.54-4.71,1.78-10.47,1.18-14.45,4.64-.24.21.11.56.35.35h0Z"/>
  <path class="cls-1" d="m69.39,57.21c2.15,5.15,1.29,11.83-4.02,14.69-2.61,1.41-5.64,1.18-8.5,1.2s-5.72.44-8.48,1.33c-.31.1-.17.58.13.48,3.39-1.09,6.75-1.3,10.29-1.31,2.79,0,5.59-.26,7.9-1.96,4.59-3.38,5.24-9.58,3.16-14.57-.12-.29-.61-.16-.48.13h0Z"/>
  <path class="cls-1" d="m50.54,74.78c2.77.2,5.08-1.71,7.8-1.91,1.42-.1,2.79,0,4.14-.54s2.53-1.37,3.66-2.21c2.01-1.5,3.49-3.38,4.17-5.82s.59-5.25.46-7.87c-.02-.32-.52-.32-.5,0,.12,2.42.24,4.9-.32,7.28-.65,2.75-2.31,4.76-4.6,6.36-1.09.77-2.26,1.57-3.54,1.97-1.38.43-2.83.19-4.24.41-2.41.37-4.5,2.01-7.01,1.83-.32-.02-.32.48,0,.5h0Z"/>
  <path class="cls-1" d="m69.62,58.23c1.36,4.2-.37,8.74-2.34,12.47-.96,1.83-2.29,3.23-4.33,3.81-1.87.53-3.87.41-5.79.27-.32-.02-.32.48,0,.5,2.04.15,4.18.26,6.16-.36s3.29-1.96,4.26-3.72c2.12-3.87,3.94-8.7,2.52-13.09-.1-.3-.58-.17-.48.13h0Z"/>
  <path class="cls-1" d="m55.3,74.22c2.69.56,5.37.49,7.41-1.55,1.07-1.07,2.16-1.96,3.44-2.78,1.17-.75,2.33-1.5,3.22-2.58.2-.25-.15-.6-.35-.35-1.65,1.99-4.22,2.88-6.03,4.71-1.01,1.02-1.94,1.92-3.39,2.23-1.37.3-2.81.13-4.17-.16-.31-.07-.45.42-.13.48h0Z"/>
  <path class="cls-1" d="m69.43,66.25c-1.9,3.67-5.51,6.28-9.59,6.95-.32.05-.18.53.13.48,4.19-.69,7.93-3.41,9.89-7.18.15-.29-.28-.54-.43-.25h0Z"/>
  <path class="cls-1" d="m34.71,86.12c3.21-2.21,6.59-4.2,10.27-5.51s7.98-2.28,11.63-.96c7.45,2.7,4.53,13.45,10.4,17.76,3.18,2.33,6.34.81,9.16-1.27.26-.19,0-.62-.25-.43-1.52,1.12-3.22,2.39-5.19,2.45s-3.74-1.13-4.95-2.64c-2.44-3.05-2.52-7.2-3.89-10.72-1.12-2.86-3.04-5.2-6.14-5.92-3.35-.77-7.09-.02-10.3,1.04-3.95,1.31-7.58,3.41-10.99,5.76-.26.18-.01.61.25.43h0Z"/>
  <path class="cls-1" d="m75.61,95.71c-1.46,1.53-3.37,2.57-5.47,2.9-1.16.18-2.41.17-3.51-.28s-1.91-1.39-2.53-2.43c-2.11-3.51-3.18-7.54-5.85-10.72-.21-.25-.56.11-.35.35,1.59,1.89,2.64,4.12,3.65,6.35.91,1.99,1.76,4.36,3.37,5.92,3.1,2.99,8.48.92,11.04-1.75.22-.23-.13-.59-.35-.35h0Z"/>
  <path class="cls-1" d="m57.96,86.11l4.2,5.93c1.2,1.69,2.3,3.69,3.87,5.07,1.4,1.23,3.24,1.84,5.05,2.16,1.68.3,3.5.33,4.93-.73.26-.19,0-.62-.25-.43-1.53,1.13-3.51.92-5.27.53-1.9-.42-3.67-1.23-4.94-2.75s-2.39-3.3-3.56-4.95l-3.6-5.08c-.18-.26-.62-.01-.43.25h0Z"/>
  <path class="cls-1" d="m75.78,97.05c-2.12.98-4.62.63-6.89.8-1.25.1-2.21-.23-3.35-.7s-2.29-.96-3.43-1.43c-.3-.12-.43.36-.13.48,1.23.51,2.45,1.02,3.68,1.54s2.18.71,3.49.6c2.31-.19,4.72.15,6.89-.85.29-.14.04-.57-.25-.43h0Z"/>
  <path class="cls-1" d="m58.73,86.6c.98,2.96,2.47,5.72,4.42,8.16.2.25.55-.1.35-.35-1.89-2.37-3.34-5.06-4.29-7.94-.1-.3-.58-.17-.48.13h0Z"/>
  <path class="cls-1" d="m63.55,94.53c-1.09-1.98-2.1-4.01-3.01-6.08-.78-1.77-1.36-3.75-2.48-5.36-.99-1.42-2.36-2.14-4.06-2.37-2.18-.31-4.41-.2-6.57.22-.32.06-.18.54.13.48,2.1-.41,4.28-.52,6.4-.21,2.01.3,3.33,1.35,4.26,3.14.82,1.57,1.39,3.28,2.12,4.89.85,1.88,1.77,3.73,2.77,5.54.15.28.59.03.43-.25h0Z"/>
  <path class="cls-1" d="m48.07,82.31c2.86.06,5.76.18,8.49,1.1.64.21,1.37.44,1.86.92s.77,1.19,1.06,1.81c.64,1.39,1.18,2.82,1.65,4.27.1.31.58.17.48-.13-.48-1.49-1.04-2.96-1.7-4.39-.29-.64-.57-1.34-1.07-1.85-.41-.42-.94-.66-1.48-.87-2.95-1.16-6.18-1.3-9.3-1.37-.32,0-.32.49,0,.5h0Z"/>
  <path class="cls-1" d="m61.51,89.04c-1.12-2.7-3.15-5.01-5.15-7.11-.93-.98-1.99-1.78-3.29-2.19-1.4-.44-2.89-.47-4.35-.49-.32,0-.32.49,0,.5,1.35.02,2.71.04,4.02.41,1.38.39,2.45,1.24,3.42,2.27,1.87,2.01,3.81,4.17,4.88,6.73.12.29.61.16.48-.13h0Z"/>
  <path class="cls-1" d="m51.84,80.64c1.25-.08,2.51.04,3.72.39.55.16,1.12.36,1.59.7.52.38.85.96,1.2,1.49,1.28,1.94,2.52,3.94,3.01,6.23.07.31.55.18.48-.13-.54-2.5-1.94-4.67-3.34-6.77-.3-.44-.61-.87-1.04-1.2-.47-.36-1.04-.57-1.6-.75-1.3-.4-2.67-.55-4.02-.46-.32.02-.32.52,0,.5h0Z"/>
  <path class="cls-1" d="m61.82,90.17c-.08-2.59-1.23-4.94-2.69-7.03-.71-1.02-1.48-2-2.26-2.96-.69-.84-1.44-1.61-2.49-1.98-.3-.11-.43.38-.13.48,1.01.36,1.73,1.17,2.38,1.99.76.95,1.51,1.9,2.19,2.9,1.35,1.97,2.42,4.17,2.5,6.6,0,.32.51.32.5,0h0Z"/>
  <path class="cls-1" d="m55.03,79.66c2.28,1.59,4.8,3.02,6.04,5.63,1.05,2.21,1.16,4.79.27,7.06-.12.3.37.43.48.13.91-2.34.79-4.99-.24-7.27-1.26-2.78-3.89-4.29-6.3-5.98-.26-.18-.51.25-.25.43h0Z"/>
  <path class="cls-1" d="m61.73,91.81c.71-3.08-.17-6.35-1.28-9.23-.93-2.41-2.67-4.81-5.48-4.94-.32-.01-.32.49,0,.5,2.86.12,4.41,2.84,5.24,5.25.91,2.64,1.68,5.5,1.03,8.29-.07.31.41.45.48.13h0Z"/>
  <path class="cls-1" d="m54.27,80.64c-1.36-.5-2.79-.54-4.22-.47-1.67.08-3.35.2-5.01.37-1.29.13-2.41.48-3.49,1.22-1.16.8-2.17,1.8-3.49,2.36-.29.12-.16.61.13.48,1.03-.43,1.89-1.11,2.77-1.79,1.26-.98,2.46-1.6,4.07-1.77,1.53-.16,3.06-.26,4.59-.35s3.06-.11,4.51.43c.3.11.43-.37.13-.48h0Z"/>
  <path class="cls-1" d="m36.73,85.09c1.16-.05,2.12-.66,3.13-1.18,1.28-.67,2.6-1.26,3.95-1.77,2.54-.97,5.17-1.65,7.85-2.06.32-.05.18-.53-.13-.48-2.59.4-5.14,1.05-7.6,1.97-1.14.43-2.27.91-3.37,1.44-1.21.59-2.45,1.53-3.83,1.59-.32.01-.32.51,0,.5h0Z"/>
  <path class="cls-1" d="m49.48,80.41c-4.62,1.47-9.25,2.96-13.69,4.93-.29.13-.04.56.25.43,4.4-1.96,8.99-3.43,13.57-4.88.31-.1.17-.58-.13-.48h0Z"/>
  <path class="cls-1" d="m35.56,85.65l5.4,1.82c.82.28,1.71.5,2.45.95.81.49,1.29,1.26,1.79,2.04,1.62,2.5,4.27,3.63,7.09,4.33,1.13.28,2.43.39,3.37-.44.84-.74,1.05-1.94,1.01-3.01-.08-2.39-1.07-6.12-3.94-6.36s-4.5,2.99-2.86,5.25c.19.26.62,0,.43-.25-1.12-1.54-.59-3.89,1.37-4.42,2.15-.57,3.35,1.19,3.95,2.97.47,1.42.91,3.27.23,4.7-.93,1.94-3.24,1.16-4.82.65-1.45-.48-2.94-1.04-4.09-2.07-1.07-.96-1.55-2.38-2.61-3.35-.94-.86-2.26-1.16-3.43-1.55l-5.21-1.76c-.31-.1-.44.38-.13.48h0Z"/>
  <path class="cls-1" d="m49.43,90.8c-.1-1.6-.21-3.76,1.39-4.7,1.74-1.03,3.74.75,4.57,2.18.66,1.13,1.42,3.55.04,4.48-.66.45-1.82.37-2.61.39-.84.02-1.69,0-2.51-.2-2.87-.67-4.23-3.37-6.07-5.39s-4.27-3.41-6.92-4.06c-.31-.08-.45.41-.13.48,3.12.76,5.64,2.54,7.62,5.03,1.66,2.09,3.22,4.13,6.03,4.54,1.3.19,2.96.26,4.24-.11,1.01-.29,1.5-1.15,1.57-2.17.17-2.31-1.41-4.91-3.59-5.73-1.25-.47-2.55-.17-3.36.91-.94,1.25-.88,2.87-.78,4.35.02.32.52.32.5,0h0Z"/>
  <path class="cls-1" d="m37.71,86.05c2.25-.35,4.46-1.06,6.66-1.64,2.08-.55,4.16-1.14,6.06-2.17.28-.15.03-.58-.25-.43-1.93,1.05-4.05,1.63-6.16,2.18s-4.27,1.24-6.44,1.58c-.32.05-.18.53.13.48h0Z"/>
  <path class="cls-1" d="m50.98,81c-4.25.84-8.5,1.69-12.76,2.53-.32.06-.18.54.13.48l12.76-2.53c.32-.06.18-.54-.13-.48h0Z"/>
  <path class="cls-1" d="m38.29,84.29c6.12-.63,12.03-2.92,18.25-2.71.32.01.32-.49,0-.5-6.22-.21-12.12,2.08-18.25,2.71-.32.03-.32.53,0,.5h0Z"/>
  <path class="cls-1" d="m55.95,81.11c-4.87.69-9.7,1.62-14.48,2.79-.31.08-.18.56.13.48,4.78-1.17,9.61-2.1,14.48-2.79.32-.04.18-.53-.13-.48h0Z"/>
  <path class="cls-1" d="m40.95,84.63c4.99-.73,10.02-1.16,15.06-1.3.32,0,.32-.51,0-.5-5.09.14-10.15.58-15.19,1.32-.32.05-.18.53.13.48h0Z"/>
  <path class="cls-1" d="m56.73,82.69c-4.96,1.26-10.2.56-15.12,2.04-.31.09-.18.58.13.48,4.92-1.48,10.16-.78,15.12-2.04.31-.08.18-.56-.13-.48h0Z"/>
  <path class="cls-1" d="m39.9,85.52c2.25.82,4.42,1.83,6.49,3.02.28.16.53-.27.25-.43-2.11-1.21-4.32-2.23-6.61-3.07-.3-.11-.43.37-.13.48h0Z"/>
  <path class="cls-1" d="m49.26,82.66c-.65.71-1.3,1.42-1.95,2.13-.54.59-1.08,1.21-1.38,1.96-.66,1.63.34,3.17,1.3,4.43.19.25.63,0,.43-.25-.92-1.21-1.94-2.68-1.17-4.23.34-.68.87-1.23,1.37-1.78l1.75-1.91c.22-.24-.14-.59-.35-.35h0Z"/>
  <path class="cls-1" d="m49.21,82.47c-.75.79-1.45,1.64-2.08,2.54s-1.22,1.79-1.55,2.8c-.29.87-.29,1.84.29,2.6.48.62,1.25.99,2.02.74.3-.1.17-.58-.13-.48-.74.24-1.45-.3-1.73-.97-.36-.86.01-1.85.42-2.63.81-1.55,1.91-2.97,3.11-4.24.22-.23-.13-.59-.35-.35h0Z"/>
  <path class="cls-1" d="m48.19,82.19c-1.18,1.68-3.16,2.83-3.76,4.9-.45,1.53.31,3.51,2.08,3.65.32.03.32-.47,0-.5-.77-.06-1.34-.67-1.59-1.37-.29-.83-.08-1.71.33-2.46.84-1.54,2.37-2.55,3.37-3.97.19-.26-.25-.51-.43-.25h0Z"/>
  <path class="cls-1" d="m43.2,83.06c1.22,2.06,2.2,4.25,2.91,6.54.1.31.58.18.48-.13-.72-2.33-1.71-4.56-2.96-6.66-.16-.28-.6-.03-.43.25h0Z"/>
  <path class="cls-1" d="m41.49,84.89c1.68,1.95,2.87,4.28,3.46,6.79.07.31.56.18.48-.13-.62-2.59-1.85-4.99-3.59-7.01-.21-.24-.56.11-.35.35h0Z"/>
  <path class="cls-1" d="m39.41,85.93c1.7,1.45,2.96,3.34,3.64,5.47.1.31.58.17.48-.13-.7-2.2-2.01-4.19-3.77-5.69-.24-.21-.6.14-.35.35h0Z"/>
  <path class="cls-1" d="m36.85,85.57c2.16,2.04,5.34,2.25,7.63,4.06.25.2.61-.15.35-.35-2.29-1.82-5.49-2.04-7.63-4.06-.23-.22-.59.13-.35.35h0Z"/>
  <path class="cls-1" d="m37.29,85.66c2.45.9,4.9,1.8,7.36,2.7.3.11.43-.37.13-.48-2.45-.9-4.9-1.8-7.36-2.7-.3-.11-.43.37-.13.48h0Z"/>
  <path class="cls-1" d="m35.61,84.72c3.54,1.14,7.19,1.86,10.89,2.15.32.03.32-.47,0-.5-3.66-.29-7.27-1.01-10.76-2.14-.31-.1-.44.38-.13.48h0Z"/>
  <path class="cls-1" d="m38.02,84.47c2.86-4.69,8.52-6.04,13.52-7.15.31-.07.18-.55-.13-.48-5.13,1.14-10.88,2.57-13.82,7.38-.17.28.26.53.43.25h0Z"/>
  <path class="cls-1" d="m73.23,60.28c-.62,1.34-1.27,2.73-1.27,4.24,0,1.36.57,2.62,1.22,3.79,1.5,2.74,3.53,5.15,5.56,7.51s5.07,5.08,5.17,8.43-2.07,5.99-2.84,8.99c-.08.31.4.45.48.13.69-2.73,2.42-5.16,2.79-7.97s-1.06-4.93-2.72-6.96c-2.09-2.55-4.38-4.95-6.29-7.65-.9-1.27-1.78-2.62-2.37-4.07-.91-2.22-.26-4.13.7-6.19.14-.29-.3-.54-.43-.25h0Z"/>
  <path class="cls-1" d="m81.38,93.59c6.09-3.51,7.83-10.89,7.36-17.45-.25-3.43-1.73-6.06-4.03-8.56-2.52-2.75-5.4-5.13-8.53-7.15-.27-.17-.52.26-.25.43,2.85,1.83,5.48,3.97,7.82,6.42,2.47,2.57,4.22,5.22,4.49,8.85.47,6.39-1.17,13.6-7.11,17.02-.28.16-.03.59.25.43h0Z"/>
  <path class="cls-1" d="m74.66,60.93c2.41,1.76,5.5,1.83,8.07,3.24,1.64.9,2.62,2.38,3.58,3.93s1.93,3.1,2.55,4.82c1.23,3.45.59,7.26-.36,10.7-.87,3.17-2.35,6.26-5.12,8.17-.26.18-.01.62.25.43,2.67-1.84,4.21-4.7,5.14-7.74,1.05-3.42,1.82-7.38.83-10.89-.49-1.73-1.36-3.31-2.29-4.84s-1.89-3.27-3.37-4.39c-2.67-2.02-6.32-1.89-9.03-3.86-.26-.19-.51.24-.25.43h0Z"/>
  <path class="cls-1" d="m83.36,91.69c1.54-1.55,3.11-3.13,4.16-5.06s1.33-4.23,1.38-6.49c.09-4.03.1-9.06-3.9-11.33-.28-.16-.53.27-.25.43,3.94,2.24,3.76,7.37,3.64,11.31-.07,2.23-.4,4.36-1.57,6.3-1.02,1.69-2.43,3.1-3.81,4.48-.23.23.13.58.35.35h0Z"/>
  <path class="cls-1" d="m84.77,69.3c1.84,3.67.82,8.43-.11,12.24-.45,1.83-1.12,3.69-2.45,5.08-1.23,1.29-2.99,1.91-4.01,3.43-.18.27.25.52.43.25,1.12-1.68,3.23-2.35,4.47-3.97,1.18-1.53,1.77-3.43,2.18-5.3.83-3.83,1.75-8.32-.09-11.99-.14-.29-.58-.03-.43.25h0Z"/>
  <path class="cls-1" d="m82.13,90.33c1.56-2.8,3.16-5.69,3.74-8.88s-.17-6.55-1.08-9.72c-.09-.31-.57-.18-.48.13.91,3.18,1.69,6.46,1.02,9.77-.62,3.03-2.14,5.77-3.63,8.44-.16.28.28.53.43.25h0Z"/>
  <path class="cls-1" d="m84.35,71.98c1.33,5.51,2.02,12.1-2.27,16.56-.22.23.13.59.35.35,4.42-4.59,3.77-11.34,2.39-17.04-.08-.31-.56-.18-.48.13h0Z"/>
  <path class="cls-1" d="m83.12,89.19c2.65-2.24,1.74-6.21.87-9.08-1.38-4.56-3.17-9.03-4.78-13.52-.11-.3-.59-.17-.48.13,1.42,3.96,2.9,7.91,4.25,11.89,1.03,3.01,2.72,7.73-.22,10.22-.25.21.11.56.35.35h0Z"/>
  <path class="cls-1" d="m79.2,68.66c1.92,2.95,3.33,6.19,4.14,9.62.4,1.73.65,3.49.74,5.26s.13,3.52-.93,4.94c-.19.26.24.51.43.25.93-1.26,1.05-2.81,1.02-4.33-.03-1.87-.25-3.75-.64-5.58-.78-3.71-2.26-7.25-4.34-10.42-.18-.27-.61-.02-.43.25h0Z"/>
  <path class="cls-1" d="m83.43,88.99c1.25-.45,2.26-1.26,3.16-2.21.96-1.01,1.86-2.14,2.22-3.51.39-1.52.21-3.14.14-4.69-.08-1.77-.16-3.55-.24-5.32-.01-.32-.51-.32-.5,0,.07,1.48.14,2.95.2,4.43s.23,2.96.09,4.43c-.15,1.58-.9,2.79-1.93,3.94-.92,1.03-1.95,1.97-3.27,2.44-.3.11-.17.59.13.48h0Z"/>
  <path class="cls-1" d="m87.87,74.8c-.12,3.27-.27,6.61-.89,9.83-.55,2.87-1.75,5.73-4.27,7.4-.27.18-.02.61.25.43,2.43-1.61,3.74-4.29,4.37-7.07.77-3.44.92-7.08,1.04-10.59.01-.32-.49-.32-.5,0h0Z"/>
  <path class="cls-1" d="m82.48,92.48c1.73-2.64,2.78-5.69,2.97-8.84.22-3.64-.96-7.16-1.05-10.79,0-.32-.51-.32-.5,0,.08,3.4,1.15,6.71,1.08,10.12s-1.12,6.5-2.93,9.26c-.18.27.26.52.43.25h0Z"/>
  <path class="cls-1" d="m83.65,72.07c-.12.94.22,1.78.6,2.62.41.91.77,1.83,1,2.8.47,2.01.45,4.1-.03,6.11-.07.31.41.45.48.13.45-1.9.51-3.86.15-5.78-.18-.95-.46-1.89-.84-2.78-.43-1-1-1.97-.86-3.1.04-.32-.46-.32-.5,0h0Z"/>
  <path class="cls-1" d="m84.26,82.88c-5.02-6.63-10.22-13.64-11.51-22.08-.05-.32-.53-.18-.48.13,1.29,8.48,6.51,15.53,11.56,22.2.19.25.63,0,.43-.25h0Z"/>
  <path class="cls-1" d="m72.62,61.72c.26,1.89.63,3.77,1.13,5.61.43,1.6.95,3.21,1.84,4.62s2.05,2.42,3.3,3.4c1.42,1.1,2.88,2.15,4.36,3.17.27.18.52-.25.25-.43-1.42-.97-2.82-1.97-4.18-3.02s-2.59-2.15-3.46-3.61c-1.71-2.89-2.31-6.59-2.76-9.87-.04-.32-.53-.18-.48.13h0Z"/>
  <path class="cls-1" d="m83.9,76.73c-1.65-2.49-3.06-5.13-4.17-7.9s-2.38-5.91-1.37-8.83c.11-.3-.38-.44-.48-.13-1.01,2.92.18,6.08,1.26,8.81,1.15,2.91,2.6,5.69,4.33,8.3.18.27.61.02.43-.25h0Z"/>
  <path class="cls-1" d="m77.51,61.73c-1.11,2.93-.59,6.22.91,8.91s4.01,4.87,6.62,6.6c.27.18.52-.26.25-.43-2.48-1.63-4.81-3.61-6.32-6.2s-2.08-5.85-.98-8.75c.11-.3-.37-.43-.48-.13h0Z"/>
  <path class="cls-1" d="m83.78,74.39c-1.88-2.02-3.28-4.41-4.4-6.92-.58-1.3-1.08-2.63-1.55-3.97-.23-.64-.44-1.28-.66-1.93-.19-.56-.75-1.59-.42-2.17.16-.28-.27-.53-.43-.25-.25.45-.18.87-.03,1.35.23.77.51,1.53.77,2.29.49,1.43,1.01,2.85,1.59,4.24,1.19,2.81,2.69,5.48,4.78,7.72.22.24.57-.12.35-.35h0Z"/>
  <path class="cls-1" d="m76.22,60.4c-.72,2.97.22,5.93,1.36,8.66s2.59,5.45,4.26,7.96c.18.27.61.02.43-.25-1.55-2.33-2.9-4.78-4.01-7.36-1.19-2.77-2.3-5.84-1.56-8.88.08-.31-.41-.45-.48-.13h0Z"/>
  <path class="cls-1" d="m80.61,74.4c-1.7-4.38-3.03-8.88-3.97-13.48-.06-.32-.55-.18-.48.13.94,4.6,2.27,9.11,3.97,13.48.12.3.6.17.48-.13h0Z"/>
  <path class="cls-1" d="m75.83,60.93c-.37,1.35-.75,2.73-.68,4.14s.59,2.63,1.22,3.83c1.44,2.74,3.26,5.31,4.92,7.92.17.27.61.02.43-.25-1.51-2.36-3.1-4.7-4.49-7.13-.72-1.26-1.42-2.61-1.56-4.07s.26-2.91.65-4.3c.09-.31-.4-.44-.48-.13h0Z"/>
  <path class="cls-1" d="m74.76,64.37c5.14,5,12.9,8.28,15.19,15.63.1.31.58.18.48-.13-2.33-7.46-10.1-10.77-15.32-15.85-.23-.22-.58.13-.35.35h0Z"/>
  <path class="cls-1" d="m76.7,63.22c2.44,1.22,4.16,3.37,5.52,5.68,1.49,2.53,2.93,5.37,2.87,8.37,0,.32.49.32.5,0,.06-3.09-1.41-6.02-2.94-8.62-1.4-2.38-3.18-4.61-5.7-5.86-.29-.14-.54.29-.25.43h0Z"/>
  <path class="cls-1" d="m81.69,66.05c5.69,2.7,5.73,9.78,4.97,15.12-.04.31.44.45.48.13.46-3.24.75-6.64-.31-9.8-.83-2.49-2.48-4.74-4.89-5.88-.29-.14-.54.29-.25.43h0Z"/>
  <path class="cls-1" d="m84.69,66.26c2.81,5.93,6.22,14.05.95,19.72-.22.24.13.59.35.35,5.44-5.86,2.05-14.17-.88-20.33-.14-.29-.57-.04-.43.25h0Z"/>
  <path class="cls-1" d="m86.18,78.32c.31,5.48-2.06,10.89-6.29,14.38-.25.2.11.56.35.35,4.32-3.57,6.75-9.14,6.44-14.74-.02-.32-.52-.32-.5,0h0Z"/>
  <path class="cls-1" d="m85.23,87.31c-.02,1.75-.44,3.48-1.25,5.04-.15.29.28.54.43.25.85-1.64,1.31-3.45,1.32-5.29,0-.32-.5-.32-.5,0h0Z"/>
  <path class="cls-1" d="m78.22,70.95c.74,4.08,1.36,8.19,1.86,12.31.04.32.54.32.5,0-.51-4.16-1.13-8.31-1.88-12.44-.06-.32-.54-.18-.48.13h0Z"/>
  <path class="cls-1" d="m74.88,69.76c3,4.46,5.62,9.16,7.82,14.05.13.29.56.04.43-.25-2.21-4.9-4.82-9.6-7.82-14.05-.18-.27-.61-.02-.43.25h0Z"/>
  <path class="cls-1" d="m73.49,60.6c-.11,3.68.56,7.34,1.97,10.74.12.29.61.16.48-.13-1.4-3.36-2.06-6.97-1.95-10.61,0-.32-.49-.32-.5,0h0Z"/>
  <path class="cls-1" d="m74.47,61.07c.62,2.76,2.27,5.08,4.06,7.21,2.15,2.58,4.39,5.09,6.59,7.63.21.24.56-.11.35-.35-2.09-2.42-4.21-4.82-6.28-7.25-1.85-2.18-3.61-4.53-4.25-7.37-.07-.31-.55-.18-.48.13h0Z"/>
  <path class="cls-1" d="m79.03,63.76c4.84,2.64,8.52,7.13,10.15,12.39.09.31.58.18.48-.13-1.66-5.38-5.43-9.99-10.38-12.69-.28-.15-.54.28-.25.43h0Z"/>
  <path class="cls-1" d="m82.54,65.59c3.07,3.46,4.66,7.96,6.44,12.16.13.3.56.04.43-.25-1.8-4.24-3.41-8.76-6.51-12.26-.21-.24-.57.11-.35.35h0Z"/>
  <path class="cls-1" d="m82.92,65.75c1.49,2.13,3.18,4.23,4.23,6.62s1.37,5.15,1.66,7.78c.03.32.53.32.5,0-.28-2.62-.58-5.28-1.6-7.73s-2.81-4.7-4.36-6.92c-.18-.26-.62-.01-.43.25h0Z"/>
  <path class="cls-1" d="m82.2,65.3c2.44,4.19,4.91,8.49,5.68,13.34.05.32.53.18.48-.13-.77-4.9-3.27-9.24-5.73-13.46-.16-.28-.59-.03-.43.25h0Z"/>
  <path class="cls-1" d="m81.96,64.71c.39,2.68,2.36,4.92,3.7,7.19,1.55,2.63,2.92,5.37,4.1,8.19.12.29.61.16.48-.13-1.12-2.69-2.4-5.3-3.86-7.82-.72-1.24-1.5-2.44-2.27-3.65s-1.46-2.46-1.67-3.91c-.05-.32-.53-.18-.48.13h0Z"/>
  <path class="cls-1" d="m75.44,62.7c1.75,3.72,3.97,7.2,6.62,10.35s5.62,5.95,6.91,9.87c.1.3.58.17.48-.13-1.21-3.68-3.91-6.48-6.4-9.34-2.89-3.33-5.3-7.01-7.18-11-.14-.29-.57-.04-.43.25h0Z"/>
  <path class="cls-1" d="m83.11,65.06c1.83,5.13,2.59,10.57,2.23,16-.02.32.48.32.5,0,.36-5.47-.4-10.97-2.25-16.13-.11-.3-.59-.17-.48.13h0Z"/>
  <path class="cls-1" d="m78.08,60.33c1.5,2.28,1.8,5.13,2.32,7.75.57,2.91,1.47,5.95,1.24,8.94-.02.32.48.32.5,0,.23-3.04-.67-6.12-1.25-9.08-.53-2.66-.84-5.55-2.37-7.87-.18-.27-.61-.02-.43.25h0Z"/>
  <path class="cls-1" d="m72.47,60.92c.86,5.38,2.28,11.4,7.31,14.41.28.17.53-.27.25-.43-4.91-2.94-6.24-8.87-7.08-14.12-.05-.32-.53-.18-.48.13h0Z"/>
  <path class="cls-1" d="m42.65,54.33c1.86.43,3.69-.25,5.39-.95.35-.14.72-.28.93-.62.23-.35.26-.8.33-1.2.16-.91.26-1.83.03-2.75-.08-.31-.56-.18-.48.13.2.82.11,1.66-.03,2.48-.06.34-.08.79-.28,1.08-.22.31-.74.43-1.08.57-1.48.59-3.08,1.14-4.69.77-.31-.07-.45.41-.13.48h0Z"/>
  <path class="cls-1" d="m48.75,48.81c.11.7.52,1.29.74,1.95.19.56.24,1.32-.34,1.67-.27.16-.6.21-.91.24-.4.05-.8.08-1.2.1-.83.05-1.67.05-2.5,0-.32-.02-.32.48,0,.5.93.05,1.87.04,2.8-.03.72-.05,1.64-.04,2.23-.52.56-.45.62-1.2.46-1.85-.18-.77-.69-1.42-.82-2.21-.05-.32-.53-.18-.48.13h0Z"/>
  <path class="cls-1" d="m44.04,53.43c1.45.3,3.25.29,4.47-.66.52-.4.86-.96.95-1.61.08-.61-.1-1.25-.57-1.67-.24-.21-.59.14-.35.35.39.35.51.88.41,1.38-.11.55-.45.99-.91,1.29-1.1.71-2.62.7-3.86.45-.31-.07-.45.42-.13.48h0Z"/>
  <path class="cls-1" d="m47.77,49.15c.09.76.18,1.6-.12,2.33-.33.79-1.13,1.13-1.91,1.34-.88.23-1.79.36-2.7.4-.64.03-1.72.15-2.05-.56-.14-.29-.57-.04-.43.25.35.75,1.28.83,2.01.82,1.11-.01,2.23-.15,3.31-.43.84-.22,1.7-.61,2.13-1.4.46-.84.37-1.84.27-2.75-.04-.32-.54-.32-.5,0h0Z"/>
  <path class="cls-1" d="m42.52,48.63c-.33.74-.63,1.52-.79,2.31-.07.36-.09.73.06,1.07.12.27.34.48.59.64s.54.29.83.39c.36.14.75.27,1.14.27.67,0,1.32-.52,1.2-1.24-.05-.32-.54-.18-.48.13.04.23-.16.43-.35.53-.27.13-.59.08-.86,0-.46-.13-1-.3-1.36-.62-.47-.4-.31-.97-.17-1.5.17-.59.38-1.17.63-1.74.13-.29-.3-.55-.43-.25h0Z"/>
  <path class="cls-1" d="m43.66,48.83c-.97.7-1.38,1.99-.9,3.1.23.52.63.97,1.13,1.24.43.23,1.09.37,1.38-.13.16-.28-.27-.53-.43-.25-.18.3-.77-.07-.94-.2-.34-.25-.61-.61-.74-1.01-.28-.84.04-1.8.75-2.31.26-.19,0-.62-.25-.43h0Z"/>
  <path class="cls-1" d="m43.17,48.87c-.15,1.28.64,2.43,1.65,3.14.53.37,1.2.69,1.86.73s1.36-.46,1.2-1.19c-.07-.31-.55-.18-.48.13.05.23-.14.43-.34.51-.29.11-.63.02-.91-.07-.48-.15-.93-.41-1.32-.73-.75-.63-1.27-1.52-1.15-2.52.04-.32-.46-.32-.5,0h0Z"/>
  <path class="cls-1" d="m42.92,49.85c1.13,1.06,2.62,1.91,4.17,2.14.67.1,1.43.03,1.9-.52s.49-1.27.5-1.93c0-.32-.5-.32-.5,0,0,.56,0,1.26-.44,1.68-.47.44-1.21.35-1.78.21-1.31-.33-2.51-1-3.49-1.92-.23-.22-.59.13-.35.35h0Z"/>
  <path class="cls-1" d="m44.74,51.3c-.45-.9.05-2.06,1.01-2.36,1.22-.38,2.4.4,3.37,1.05.27.18.52-.25.25-.43-1.16-.77-2.6-1.63-4.02-1-1.12.5-1.58,1.91-1.04,2.99.14.29.58.03.43-.25h0Z"/>
  <path class="cls-1" d="m49.87,49.78c-.57-1.24-1.89-1.86-3.16-2.14-1.07-.23-2.76-.46-3.28.79-.12.3.36.43.48.13.21-.49.83-.59,1.31-.6.54,0,1.09.09,1.61.22,1.07.27,2.13.8,2.61,1.85.13.29.56.04.43-.25h0Z"/>
  <path class="cls-1" d="m39.72,21.83c3.86,1.1,8.18,1.85,11.63,3.98,1.69,1.04,3.6,2.21,4.69,3.91.95,1.48,1.63,3.07,2.68,4.49,3.7,5.02,9.38,8.56,15.54,9.58,3.61.6,8.07-.23,10.98,2.46.24.22.59-.13.35-.35-2.32-2.14-5.55-2.13-8.52-2.3-3.55-.21-6.97-1.15-10.1-2.86s-5.94-4.15-8.03-7.08c-1.03-1.44-1.69-3.1-2.7-4.55-.93-1.33-2.41-2.25-3.73-3.14-3.76-2.54-8.36-3.4-12.66-4.62-.31-.09-.44.39-.13.48h0Z"/>
  <path class="cls-1" d="m87,46.06c-2.89-1.52-6.1-1.96-9.31-2.31-3.84-.42-7.49-.93-10.92-2.8s-6.47-3.93-8.87-6.93c-2.11-2.64-4.44-5.1-7.11-7.19-2.84-2.22-6-3.96-9.45-5.02-.31-.09-.44.39-.13.48,4.34,1.34,8.21,3.78,11.53,6.85,3.1,2.85,5.31,6.64,8.76,9.09,3.65,2.6,7.49,4.75,11.96,5.49s9.18.61,13.29,2.77c.28.15.54-.28.25-.43h0Z"/>
  <path class="cls-1" d="m41.04,22.06c2.26.29,4.41,1.05,6.54,1.82,1.88.67,3.76,1.37,5.47,2.43,1.85,1.15,3.25,2.78,4.7,4.37s3.02,3.32,4.53,4.98c.22.24.57-.12.35-.35-1.65-1.82-3.3-3.63-4.95-5.45-1.42-1.57-2.83-3.08-4.68-4.17-1.66-.98-3.48-1.65-5.28-2.29-2.18-.78-4.36-1.55-6.68-1.84-.32-.04-.32.46,0,.5h0Z"/>
  <path class="cls-1" d="m50.13,25.85c1.02,1.29,2.47,2,3.9,2.73.8.41,1.61.84,2.31,1.41.75.61,1.33,1.39,1.95,2.13,2.46,2.96,5.89,4.69,9.29,6.34.29.14.54-.29.25-.43-3.48-1.69-6.88-3.45-9.37-6.49-1.09-1.34-2.19-2.35-3.73-3.16s-3.15-1.5-4.25-2.89c-.2-.25-.55.1-.35.35h0Z"/>
  <path class="cls-1" d="m55.42,29.96c4.37.69,8.73-.73,13.12.04,3.51.61,9.25,2.34,9.79,6.57.25,1.97-1.07,3.93-.69,5.86.2,1.04,1.15,1.52,2.15,1.46,2.75-.17,3.9-3.55,2.99-5.8-.12-.29-.6-.17-.48.13.67,1.65.25,3.83-1.37,4.8-1.11.66-2.64.52-2.82-1.01-.11-.9.33-1.99.51-2.87.58-2.78-.15-4.98-2.45-6.69-2.51-1.87-5.82-2.79-8.89-3.13-3.92-.43-7.84.78-11.74.16-.31-.05-.45.43-.13.48h0Z"/>
  <path class="cls-1" d="m82.34,37.88c.65,2.4-.92,4.91-3.46,5.16-.63.06-1.32,0-1.56-.67-.16-.46-.1-1.01-.09-1.5.03-1.17-.02-2.34-.16-3.51-.39-3.25-1.33-8.01-4.96-9.14-.31-.1-.44.39-.13.48,2.3.71,3.35,3.14,3.93,5.28.39,1.43.64,2.89.76,4.36.09,1.21-.06,2.44.08,3.64.24,2.09,2.6,1.76,4,.97,1.83-1.04,2.63-3.21,2.08-5.21-.08-.31-.57-.18-.48.13h0Z"/>
  <path class="cls-1" d="m70.72,28.95c1.19,1.37,2.51,2.58,3.92,3.7.67.53,1.31,1.1,1.65,1.91s.35,1.67.09,2.48c-.1.31.38.44.48.13.54-1.71-.1-3.39-1.43-4.53-.74-.63-1.52-1.21-2.23-1.87s-1.46-1.42-2.12-2.19c-.21-.24-.56.11-.35.35h0Z"/>
  <path class="cls-1" d="m77.36,36.88c.13-1.51-1.54-2.41-2.58-3.19-1.58-1.19-3.18-2.36-4.89-3.35-3.42-1.99-7.1-2.86-11.01-3.24-.32-.03-.32.47,0,.5,3.59.35,7.02,1.1,10.2,2.86,1.4.77,2.73,1.67,4.03,2.61.69.5,1.38,1.02,2.06,1.54.74.57,1.78,1.21,1.69,2.27-.03.32.47.32.5,0h0Z"/>
  <path class="cls-1" d="m58.02,30.64c2.53.97,5.1,1.12,7.75.7,1.78-.28,3.18-.14,4.82.64,1.39.66,2.76,1.37,4.14,2.05.29.14.54-.29.25-.43-1.47-.73-2.92-1.5-4.41-2.18-1.17-.54-2.34-.86-3.64-.74-1.42.13-2.79.46-4.22.42-1.57-.04-3.1-.37-4.56-.94-.3-.12-.43.37-.13.48h0Z"/>
  <path class="cls-1" d="m73.04,32.83c-3.9-2.12-8.51-2.69-12.81-1.57-.31.08-.18.56.13.48,4.17-1.08,8.64-.53,12.43,1.52.28.15.54-.28.25-.43h0Z"/>
  <path class="cls-1" d="m60.23,32.1c5.77,1.33,11.49,2.83,17.17,4.5.31.09.44-.39.13-.48-5.68-1.67-11.41-3.17-17.17-4.5-.31-.07-.45.41-.13.48h0Z"/>
  <path class="cls-1" d="m70.8,33.52c-4.42-.79-8.88-1.31-13.36-1.57-.32-.02-.32.48,0,.5,4.44.25,8.85.77,13.22,1.55.31.06.45-.43.13-.48h0Z"/>
  <path class="cls-1" d="m57.76,32.2l16.94,3.62c.31.07.45-.41.13-.48l-16.94-3.62c-.31-.07-.45.41-.13.48h0Z"/>
  <path class="cls-1" d="m75.66,35.11c-5.58-.89-11.33-.26-16.83-1.68-.31-.08-.44.4-.13.48,5.51,1.42,11.25.79,16.83,1.68.31.05.45-.43.13-.48h0Z"/>
  <path class="cls-1" d="m57.82,33.87c2.52,1.84,5.91,2.53,8.89,3.27,3.25.8,6.56,1.39,9.89,1.77.32.04.32-.46,0-.5-3.29-.38-6.54-.96-9.76-1.75-2.94-.73-6.29-1.4-8.77-3.22-.26-.19-.51.24-.25.43h0Z"/>
  <path class="cls-1" d="m76.47,38.22c-5.2-.42-10.42-.55-15.64-.41-.32,0-.32.51,0,.5,5.22-.14,10.44,0,15.64.41.32.03.32-.47,0-.5h0Z"/>
  <path class="cls-1" d="m58.78,38.15c4.85,1.41,9.81,2.41,14.82,2.98.32.04.32-.46,0-.5-4.97-.57-9.89-1.57-14.69-2.97-.31-.09-.44.39-.13.48h0Z"/>
  <path class="cls-1" d="m74.25,40.48c-4.31.07-8.61-.15-12.89-.66-.32-.04-.32.46,0,.5,4.28.51,8.58.74,12.89.66.32,0,.32-.51,0-.5h0Z"/>
  <path class="cls-1" d="m65.59,41.12c4.6,1.02,9.29,1.55,13.99,1.6.32,0,.32-.5,0-.5-4.67-.04-9.31-.57-13.86-1.58-.31-.07-.45.41-.13.48h0Z"/>
  <path class="cls-1" d="m77.5,41.21c-2.94-.35-5.83-.96-8.67-1.8-.31-.09-.44.39-.13.48,2.88.85,5.82,1.45,8.8,1.81.32.04.32-.46,0-.5h0Z"/>
  <path class="cls-1" d="m69.65,30.47c1.65,3.91,2.96,7.95,3.92,12.09.07.3.46.2.49-.07.02-.17.04-.34.06-.51.04-.32-.46-.32-.5,0-.02.17-.04.34-.06.51l.49-.07c-.97-4.13-2.28-8.17-3.92-12.09-.12-.29-.61-.16-.48.13h0Z"/>
  <path class="cls-1" d="m71.09,31.98c1.45,4.3,3.17,8.5,5.14,12.58.1.2.4.14.46-.06.11-.43.07-.82-.15-1.21-.15-.28-.59-.03-.43.25s.18.52.1.83l.46-.06c-1.96-4.04-3.66-8.2-5.09-12.46-.1-.3-.59-.17-.48.13h0Z"/>
  <path class="cls-1" d="m72.72,32.18c1.33,3.51,3.08,7.14,3.13,10.96,0,.32.5.32.5,0-.05-3.87-1.8-7.54-3.15-11.1-.11-.3-.6-.17-.48.13h0Z"/>
  <path class="cls-1" d="m68.61,30.8c.87,2.94,1.04,6.01,1.68,8.99.3,1.39.72,2.77,1.35,4.04.22.43.47,1.06.97,1.24.39.14.78,0,.97-.36.15-.28-.28-.54-.43-.25-.33.62-.96-.65-1.02-.77-.17-.33-.32-.66-.46-1.01-.2-.5-.38-1.02-.53-1.54-.33-1.13-.55-2.29-.73-3.46-.38-2.35-.63-4.72-1.31-7.01-.09-.31-.57-.18-.48.13h0Z"/>
  <path class="cls-1" d="m68.33,32.91c2.14,2.33,3.69,5.16,4.52,8.21.08.31.57.18.48-.13-.85-3.14-2.44-6.04-4.64-8.43-.22-.24-.57.12-.35.35h0Z"/>
  <path class="cls-1" d="m68.44,31.21c1.19,3.2,2.1,6.49,2.74,9.84.05.28.5.21.49-.07,0-.26-.06-.48-.21-.7-.17-.27-.6-.02-.43.25.11.13.15.28.14.45l.49-.07c-.63-3.35-1.55-6.64-2.74-9.84-.11-.3-.59-.17-.48.13h0Z"/>
  <path class="cls-1" d="m66.27,28.99c.46,2.19,1.09,4.34,1.88,6.44s1.94,3.95,2.31,6.09c.05.32.54.18.48-.13-.37-2.14-1.54-4.08-2.31-6.09s-1.42-4.25-1.88-6.44c-.07-.31-.55-.18-.48.13h0Z"/>
  <path class="cls-1" d="m66.92,29.15c.17,1.15.59,2.23.97,3.32s.78,2.2,1.17,3.29.78,2.2,1.17,3.29c.19.55.39,1.1.58,1.65.14.38.22.85.52,1.15.23.22.59-.13.35-.35-.35-.33-.48-1.17-.64-1.63-.19-.55-.39-1.1-.58-1.65-.36-1.02-.72-2.04-1.08-3.06-.71-1.99-1.67-4.05-1.97-6.15-.05-.32-.53-.18-.48.13h0Z"/>
  <path class="cls-1" d="m66.9,28.38c.95,4,1.89,7.99,2.84,11.99.07.31.56.18.48-.13-.95-4-1.89-7.99-2.84-11.99-.07-.31-.56-.18-.48.13h0Z"/>
  <path class="cls-1" d="m65.72,28.91c1.63,4.55,3.55,8.99,5.76,13.29.15.29.58.03.43-.25-2.19-4.26-4.09-8.66-5.71-13.17-.11-.3-.59-.17-.48.13h0Z"/>
  <path class="cls-1" d="m67.13,30.05c.57,2.4,1.21,4.78,1.93,7.14.61,2,1.1,4.32,2.42,6,.2.25.55-.1.35-.35-.7-.89-1.06-1.97-1.41-3.03s-.7-2.15-1.02-3.23c-.66-2.2-1.25-4.42-1.79-6.66-.07-.31-.56-.18-.48.13h0Z"/>
  <path class="cls-1" d="m65.97,28.91c1.47,5.08,3.4,10.01,5.75,14.74.14.29.57.04.43-.25-2.33-4.7-4.24-9.59-5.7-14.62-.09-.31-.57-.18-.48.13h0Z"/>
  <path class="cls-1" d="m66.94,30.19c1.09,4.11,2.61,8.09,4.51,11.9.14.29.58.03.43-.25-1.88-3.77-3.37-7.71-4.46-11.78-.08-.31-.57-.18-.48.13h0Z"/>
  <path class="cls-1" d="m63.66,29.76c1.75,3.72,3.34,7.5,4.77,11.36.11.3.59.17.48-.13-1.45-3.89-3.05-7.72-4.82-11.48-.14-.29-.57-.04-.43.25h0Z"/>
  <path class="cls-1" d="m62.72,28.88c2.37,3,4.09,6.46,5.04,10.16.08.31.56.18.48-.13-.98-3.79-2.74-7.32-5.17-10.38-.2-.25-.55.1-.35.35h0Z"/>
  <path class="cls-1" d="m73.78,28.76c1.72,1.56,3.58,3.06,5.17,4.76.76.82,1.34,1.74,1.58,2.84.25,1.16.16,2.36,0,3.53-.04.32.46.31.5,0,.3-2.28.16-4.47-1.36-6.3-.73-.88-1.62-1.63-2.47-2.39l-3.07-2.79c-.24-.22-.59.14-.35.35h0Z"/>
  <path class="cls-1" d="m80.93,40.33c.23-1.3.46-2.61.3-3.93s-.64-2.6-1.11-3.84c-.42-1.1-.96-2.12-1.84-2.91s-1.97-1.36-3.03-1.9c-.29-.15-.54.29-.25.43.99.51,2.01,1.02,2.86,1.76.92.8,1.45,1.83,1.87,2.96s.81,2.2.99,3.34c.21,1.32-.02,2.65-.26,3.96-.06.31.43.45.48.13h0Z"/>
  <path class="cls-1" d="m79.53,23.4c1.07,4.64,1.64,9.38,1.69,14.15,0,.32.5.32.5,0-.06-4.81-.63-9.59-1.71-14.28-.07-.31-.55-.18-.48.13h0Z"/>
  <path class="cls-1" d="m80.5,38.65c1.07-4.81-1.68-9.28-1.89-14.02-.01-.32-.51-.32-.5,0,.21,4.68,2.96,9.15,1.9,13.88-.07.31.41.45.48.13h0Z"/>
  <path class="cls-1" d="m79.63,26.13c1.62,4.24.05,8.77.42,13.14.03.32.53.32.5,0-.37-4.42,1.2-8.99-.43-13.27-.11-.3-.6-.17-.48.13h0Z"/>
  <path class="cls-1" d="m76.91,30.77c1.58,1.03,3.23,1.94,4.95,2.7.8.36,1.6.68,2.42.98.88.32,1.85.52,2.63,1.06.26.19.51-.25.25-.43-.72-.5-1.59-.71-2.4-.99-.9-.31-1.78-.66-2.65-1.05-1.72-.77-3.37-1.68-4.95-2.7-.27-.18-.52.26-.25.43h0Z"/>
  <path class="cls-1" d="m87.55,35.45c-1.83-1.48-3.65-2.81-5.83-3.71-1.97-.82-4.09-1.5-5.52-3.17-.21-.24-.56.11-.35.35,1.33,1.55,3.26,2.29,5.11,3.04,1.04.42,2.06.86,3.01,1.44,1.15.7,2.19,1.55,3.24,2.4.25.2.6-.15.35-.35h0Z"/>
  <path class="cls-1" d="m75.66,29.33c3.62,2.33,7.31,4.56,11.06,6.67.28.16.53-.27.25-.43-3.75-2.11-7.44-4.33-11.06-6.67-.27-.17-.52.26-.25.43h0Z"/>
  <path class="cls-1" d="m85.96,34.34c-3.04-1.73-6.12-3.38-9.25-4.95-.29-.14-.54.29-.25.43,3.13,1.57,6.21,3.22,9.25,4.95.28.16.53-.27.25-.43h0Z"/>
  <path class="cls-1" d="m82.23,38.94c1.54,1.49,2.81,3.19,3.83,5.07s1.82,3.72,3.09,5.37c.19.25.63,0,.43-.25-1.31-1.7-2.15-3.67-3.18-5.53s-2.3-3.54-3.82-5.01c-.23-.22-.58.13-.35.35h0Z"/>
  <path class="cls-1" d="m82.57,39.01c1.34,2.56,2.97,4.95,4.86,7.13.21.24.56-.11.35-.35-1.86-2.15-3.46-4.51-4.78-7.03-.15-.29-.58-.03-.43.25h0Z"/>
  <path class="cls-1" d="m82.15,40.32c1.15,2.15,2.6,4.12,4.31,5.85.23.23.58-.12.35-.35-1.68-1.71-3.1-3.64-4.23-5.75-.15-.28-.58-.03-.43.25h0Z"/>
  <path class="cls-1" d="m80.9,40.64c1.36,1.75,2.7,3.52,4.02,5.31.19.26.62,0,.43-.25-1.34-1.82-2.71-3.62-4.1-5.41-.2-.25-.55.1-.35.35h0Z"/>
  <path class="cls-1" d="m79.78,41.52c1.74,1.74,3.58,3.38,5.51,4.91.25.2.61-.15.35-.35-1.92-1.53-3.76-3.17-5.51-4.91-.23-.23-.58.13-.35.35h0Z"/>
  <path class="cls-1" d="m79.26,42.08l3.04,4.1c.19.26.62,0,.43-.25-1.01-1.37-2.03-2.73-3.04-4.1-.19-.26-.62,0-.43.25h0Z"/>
  <path class="cls-1" d="m63.04,44.18c.04,3.16.7,6.4,2.4,9.1s4.25,4.28,7.3,5.04c3.71.93,7.6.95,10.91,3.1,1.75,1.13,3.35,2.59,4.87,4.01s2.84,2.93,3.55,4.87c.11.3.59.17.48-.13-1.18-3.19-3.95-5.44-6.49-7.55-1.32-1.1-2.72-2.1-4.31-2.76-1.69-.7-3.5-1.02-5.3-1.32-3.67-.62-7.35-1.34-9.81-4.4-2.23-2.77-3.06-6.45-3.1-9.95,0-.32-.5-.32-.5,0h0Z"/>
  <path class="cls-1" d="m93.15,70.46c-.61-7.93-1.89-16.73-9.81-20.62-6.44-3.17-14.53-2.64-20.11-7.58-.24-.21-.6.14-.35.35,5.1,4.51,12.26,4.56,18.37,6.87,3.78,1.43,6.78,3.89,8.6,7.54,2.08,4.16,2.46,8.88,2.81,13.44.02.32.52.32.5,0h0Z"/>
  <path class="cls-1" d="m63.03,42.77c3.21,5.33,9.6,6.79,15.1,8.57,3.13,1.02,6.35,2.25,8.79,4.54,2.94,2.77,3.91,6.71,4.25,10.6.03.32.53.32.5,0-.3-3.39-1.01-6.86-3.16-9.6-1.88-2.39-4.59-3.9-7.38-5.01-6.1-2.42-13.97-3.21-17.68-9.36-.17-.28-.6-.02-.43.25h0Z"/>
  <path class="cls-1" d="m91.57,67.16c.4.43.92.43,1.34.02.1-.1.1-.26,0-.35-2.39-2.41-5.04-4.74-7.07-7.48-1.6-2.16-2.81-4.67-5.07-6.25s-4.8-2.06-7.26-2.86c-3.09-1.01-5.72-2.68-7.75-5.24-.2-.25-.55.1-.35.35,1.67,2.11,3.81,3.75,6.31,4.77,2.68,1.09,5.64,1.51,8.16,3,2.75,1.63,4.03,4.58,5.93,7,.93,1.19,1.99,2.26,3.05,3.33.56.57,1.12,1.13,1.68,1.7.34.34.67.68,1.01,1.02l.34.34c.45.31.47.42.04.31-.22-.24-.57.12-.35.35h0Z"/>
  <path class="cls-1" d="m64.96,44.81c1.11,2.35,2.24,4.75,3.98,6.71s3.94,3.15,6.23,4.21c5.07,2.35,10.11,4.71,13.56,9.3.19.25.63,0,.43-.25-3.14-4.18-7.64-6.74-12.33-8.84-2.49-1.12-5.05-2.25-7.02-4.21s-3.24-4.64-4.43-7.18c-.14-.29-.57-.04-.43.25h0Z"/>
  <path class="cls-1" d="m90.16,64.89c-1.83-1.86-4.08-3.22-6.25-4.65s-4.48-3.18-6.96-4.28-4.69-1.82-6.64-3.75c-1.81-1.79-3.18-3.95-4.53-6.1-.17-.27-.6-.02-.43.25,2.53,4.02,5.15,7.63,9.73,9.38,2.71,1.04,5.02,2.56,7.43,4.16s5.19,3.18,7.3,5.33c.23.23.58-.12.35-.35h0Z"/>
  <path class="cls-1" d="m64.7,46.6c.75,4.23,3.81,7.58,7.48,9.62,4.55,2.53,9.88,3.04,14.96,3.54.32.03.32-.47,0-.5-4.89-.48-10.01-.97-14.42-3.32-3.69-1.97-6.79-5.26-7.54-9.48-.06-.32-.54-.18-.48.13h0Z"/>
  <path class="cls-1" d="m63.29,44.28c4.21,3.23,8.93,5.15,14.1,6.27s9.41,3.89,11.93,8.58c.15.28.58.03.43-.25-2.19-4.09-5.98-7.17-10.47-8.39-2.7-.74-5.41-1.17-8.02-2.21-2.77-1.11-5.35-2.61-7.72-4.42-.26-.2-.5.24-.25.43h0Z"/>
  <path class="cls-1" d="m90.94,59.71c-5.02-5.38-12.17-7.8-18.99-9.99-.31-.1-.44.38-.13.48,6.75,2.16,13.81,4.55,18.77,9.86.22.24.57-.12.35-.35h0Z"/>
  <path class="cls-1" d="m62.91,44.26c.78,2.54,1.28,5.14,1.47,7.79.02.27.42.35.49.07.67-2.68.83-5.45.48-8.19-.04-.32-.47-.33-.5,0-.15,1.6-.17,3.22-.11,4.82.04,1.11.22,2.29,1.11,3.05.16.14.43.05.43-.18,0-1.61-.08-3.22-.22-4.83l-.49.07c.81,2.34.2,4.9,1.04,7.24.08.22.42.25.48,0,.73-2.9,1.25-5.85,1.57-8.82.03-.28-.45-.35-.49-.07-.29,1.9-.57,3.79-.71,5.71-.07.94-.1,1.89-.08,2.83.01.59-.09,1.54.45,1.96,1.31,1.01,1.45-1.9,1.52-2.51.22-1.89.14-3.79-.2-5.66-.05-.3-.46-.19-.49.07-.2,1.81-.2,3.62,0,5.43.03.26.42.36.49.07.48-2.1.84-4.23,1.07-6.37h-.5c-.04,1.74-.08,3.49.02,5.23.06,1.08.02,2.71,1.02,3.43,1.16.85,1.35-1.04,1.45-1.74.24-1.7.29-3.4.18-5.11-.02-.33-.46-.32-.5,0-.24,2.19-.17,4.38.21,6.55.04.24.43.23.48,0,.67-3.29.92-6.65.74-10-.02-.32-.48-.32-.5,0-.14,2.2-.29,4.4-.25,6.61.03,1.74.05,3.68,1.13,5.14.13.18.38.15.46-.06.48-1.32.59-2.7.35-4.09-.05-.32-.54-.18-.48.13.23,1.3.1,2.59-.35,3.82l.46-.06c-1.12-1.51-1.06-3.59-1.07-5.38-.01-2.04.12-4.08.25-6.11h-.5c.18,3.31-.07,6.62-.73,9.87h.48c-.37-2.12-.43-4.27-.19-6.41h-.5c.09,1.31.08,2.63-.04,3.94-.06.63-.14,1.26-.25,1.89-.06.34-.04.87-.61.56-.23-.13-.38-.52-.45-.76-.35-1.07-.31-2.34-.34-3.46-.03-1.33,0-2.66.03-3.98,0-.33-.47-.31-.5,0-.23,2.1-.58,4.18-1.06,6.24l.49.07c-.19-1.81-.19-3.62,0-5.43l-.49.07c.25,1.42.35,2.86.28,4.31-.04.75-.12,1.5-.25,2.24-.02.11-.09.94-.21,1l-.55-.26-.04-.34c-.02-.2-.02-.41-.03-.62-.09-2.9.34-5.79.77-8.65l-.49-.07c-.32,2.93-.84,5.83-1.56,8.69h.48c-.84-2.34-.23-4.9-1.04-7.24-.09-.25-.52-.23-.49.07.14,1.61.22,3.22.22,4.83l.43-.18c-.94-.81-.96-2.12-.97-3.28-.01-1.41,0-2.83.12-4.24h-.5c.35,2.7.2,5.41-.46,8.05l.49.07c-.2-2.69-.69-5.35-1.49-7.93-.09-.31-.58-.18-.48.13h0Z"/>
  <path class="cls-1" d="m65.78,48.11c3.01.1,6.01-.02,9-.38.31-.04.32-.54,0-.5-2.02.22-3.98.64-5.91,1.27-.25.08-.23.51.07.49,2.82-.21,5.64-.41,8.46-.62l-.13-.47c-1.81.79-3.67,1.38-5.59,1.78-.28.06-.21.5.07.49,3.1-.06,6.2-.11,9.3-.17l-.07-.49c-3.41.72-7.08,1.17-10.23,2.76-.21.11-.12.49.13.47,2.9-.3,5.81-.61,8.71-.91.32-.03.33-.48,0-.5-2.31-.12-4.56.15-6.77.83-.31.1-.18.53.13.48,4.47-.72,8.91-1.64,13.3-2.76l-.13-.48c-3.14.95-6.32,1.73-9.54,2.34-.27.05-.22.52.07.49,3.22-.32,6.42-.82,9.59-1.5.28-.06.21-.49-.07-.49-2.66.03-5.23.55-7.69,1.58-.24.1-.24.5.07.49,2.54-.09,5.07-.3,7.59-.63l-.07-.49c-1.85.35-3.6.97-5.26,1.86-.23.12-.11.45.13.47,1.84.14,3.66.06,5.49-.23l-.13-.48c-1.96.41-3.78,1.12-5.49,2.16-.17.1-.16.42.06.46,2.55.44,5.1.39,7.63-.16l-.13-.48c-1.44.51-2.89,1.01-4.33,1.52-.26.09-.23.49.07.49,2.29.04,4.54-.19,6.78-.68.32-.07.18-.53-.13-.48-1.68.27-3.23.81-4.72,1.63-.21.11-.13.49.13.47,1.69-.18,3.37-.37,5.06-.55l-.07-.49-4.06,1.58c-.25.1-.24.5.07.49,1.36-.03,2.59-.38,3.76-1.07.15-.09.18-.35,0-.43-.49-.21-.89-.3-1.43-.28-.32.01-.32.51,0,.5.41-.05.8.03,1.18.22v-.43c-1.11.65-2.22.97-3.51,1l.07.49,4.06-1.58c.24-.09.24-.52-.07-.49-1.69.18-3.37.37-5.06.55l.13.47c1.45-.8,2.97-1.32,4.6-1.58l-.13-.48c-2.19.48-4.4.69-6.65.66l.07.49c1.44-.51,2.89-1.01,4.33-1.52.3-.11.18-.55-.13-.48-2.45.53-4.9.59-7.37.16l.06.46c1.67-1.01,3.46-1.71,5.37-2.11.32-.07.18-.53-.13-.48-1.78.28-3.56.35-5.35.21l.13.47c1.63-.87,3.33-1.46,5.14-1.81.27-.05.21-.53-.07-.49-2.52.32-5.05.53-7.59.63l.07.49c2.42-1.01,4.94-1.53,7.56-1.56l-.07-.49c-3.12.67-6.28,1.17-9.46,1.48l.07.49c3.22-.61,6.4-1.39,9.54-2.34.31-.09.18-.56-.13-.48-4.39,1.12-8.83,2.04-13.3,2.76l.13.48c2.17-.66,4.37-.93,6.64-.81v-.5c-2.9.3-5.81.61-8.71.91l.13.47c3.1-1.57,6.74-2,10.11-2.71.28-.06.21-.5-.07-.49-3.1.06-6.2.11-9.3.17l.07.49c1.97-.41,3.87-1.02,5.71-1.83.23-.1.11-.48-.13-.47-2.82.21-5.64.41-8.46.62l.07.49c1.89-.62,3.8-1.03,5.78-1.25v-.5c-2.99.36-5.99.48-9,.38-.32-.01-.32.49,0,.5h0Z"/>
  <path class="cls-1" d="m70.73,55.34l-3.12-.18v.5c2.96-.1,5.8-.77,8.5-1.99.26-.12.07-.53-.19-.46-1.85.49-3.49,1.38-4.91,2.65-.17.15-.02.41.18.43,2.89.2,5.71-.26,8.38-1.36.3-.12.19-.54-.13-.48-2.14.36-4.21.95-6.22,1.76-.3.12-.19.53.13.48,3.44-.5,6.87-1.09,10.28-1.79.27-.06.22-.53-.07-.49-3.74.48-7.4,1.34-10.96,2.57-.25.09-.23.52.07.49,3.19-.3,6.35-.81,9.47-1.53.32-.07.18-.52-.13-.48-1.88.26-3.58.91-5.15,1.98-.19.13-.14.49.13.47,3.77-.28,7.49-.9,11.15-1.84.32-.08.18-.53-.13-.48-2.81.43-5.52,1.22-8.13,2.35-.23.1-.11.48.13.47,1.92-.15,3.8-.46,5.66-.94l-.19-.46c-1.38.61-2.77,1.21-4.15,1.82-.23.1-.11.48.13.47,3.21-.16,6.41-.49,9.59-.97l-.13-.48c-2.39.52-4.72,1.24-6.99,2.16-.24.1-.24.5.07.49,2.06-.05,4.09-.23,6.12-.56l-.19-.46c-1.06.62-2.13,1.25-3.19,1.87-.22.13-.11.45.13.47,2.28.14,4.53,0,6.78-.4l-.19-.46c-1.22.74-2.45,1.43-3.71,2.09-.18.1-.15.41.06.46,1.58.33,3.13.34,4.72.03l-.13-.48c-1.61.37-3.22.75-4.83,1.12-.28.06-.21.49.07.49.81,0,1.56-.09,2.35-.27l-.31-.31c-.13.37-.33.68-.62.94-.13.13-.08.37.11.42,1.16.29,2.26.23,3.38-.2.3-.11.17-.6-.13-.48-1.04.4-2.03.47-3.11.2l.11.42c.34-.35.56-.71.74-1.17.08-.19-.14-.35-.31-.31-.74.17-1.46.25-2.21.25l.07.49c1.61-.37,3.22-.75,4.83-1.12.32-.07.18-.54-.13-.48-1.51.29-2.95.28-4.45-.03l.06.46c1.26-.66,2.49-1.36,3.71-2.09.25-.15.08-.51-.19-.46-2.21.39-4.41.51-6.65.38l.13.47c1.06-.62,2.13-1.25,3.19-1.87.26-.15.07-.5-.19-.46-1.99.32-3.98.49-5.99.54l.07.49c2.27-.92,4.6-1.64,6.99-2.16.32-.07.18-.53-.13-.48-3.14.47-6.29.79-9.46.95l.13.47c1.38-.61,2.77-1.21,4.15-1.82.27-.12.07-.53-.19-.46-1.82.47-3.65.78-5.53.92l.13.47c2.57-1.12,5.25-1.88,8.01-2.3l-.13-.48c-3.62.93-7.29,1.54-11.02,1.82l.13.47c1.53-1.04,3.2-1.68,5.03-1.93l-.13-.48c-3.08.71-6.19,1.22-9.34,1.52l.07.49c3.52-1.22,7.13-2.07,10.83-2.55l-.07-.49c-3.41.7-6.83,1.3-10.28,1.79l.13.48c2.01-.82,4.08-1.4,6.22-1.76l-.13-.48c-2.64,1.09-5.4,1.54-8.25,1.34l.18.43c1.36-1.22,2.92-2.06,4.69-2.52l-.19-.46c-2.61,1.18-5.38,1.82-8.24,1.92-.32.01-.32.48,0,.5l3.12.18c.32.02.32-.48,0-.5h0Z"/>
  <path class="cls-1" d="m80.45,56.09c.58-.08.87-.37.96-.95.03-.18-.07-.29-.24-.32-4.16-.54-8.34-.83-12.53-.89v.5c5.07-.37,10.2-.81,14.87-2.98.19-.09.15-.42-.06-.46-5.54-.86-11.14-.7-16.61.47-.28.06-.21.49.07.49,3.3-.05,6.49-.74,9.52-2.06.22-.1.11-.49-.13-.47-3.84.38-7.64,1-11.4,1.88-.27.06-.22.53.07.49,3.59-.46,7.09-1.32,10.48-2.61.24-.09.24-.52-.07-.49-4.11.44-8.16,1.21-12.14,2.3-.26.07-.22.52.07.49,3.19-.37,6.23-1.29,9.08-2.74.27-.14.07-.51-.19-.46-3.64.68-7.27,1.36-10.91,2.04l.19.46,6.55-3.03c.22-.1.12-.49-.13-.47l-7.52.83.07.49,7.19-2.53c.25-.09.23-.53-.07-.49-2.26.29-4.48.75-6.66,1.4l.13.48c1.95-.75,3.89-1.55,5.35-3.1.15-.16.04-.43-.18-.43-2.1,0-4.15.26-6.18.79l.19.46c.97-.49,1.94-.83,3.01-1.04l-.24-.42c-.89.91-2.39,1.46-2.81,2.77-.28.86.07,1.67.85,2.1,1.12.62,2.7.48,3.92.55,1.99.12,3.98.24,5.96.35l-.07-.49c-1.66.64-3.26,1.41-4.78,2.34-.63.39-2.1,1.11-1.92,2.11.19,1.05,1.84.94,2.59.97,1.82.08,3.63-.12,5.4-.55l-.19-.46c-1.28.62-2.48,1.33-3.63,2.16-.17.12-.16.4.06.46,1.32.34,2.7-.05,4.02-.26,1.72-.28,3.44-.56,5.16-.84l-.19-.46c-1.27.55-2.47,1.2-3.61,1.99-.16.11-.17.42.06.46,2.38.39,4.65-.44,7.03-.43,2.51,0,4.9.83,6.93,2.27.26.19.51-.25.25-.43-1.76-1.24-3.78-2.04-5.93-2.27-2.75-.29-5.43.83-8.15.38l.06.46c1.14-.78,2.33-1.44,3.61-1.99.28-.12.06-.5-.19-.46-1.39.23-2.79.45-4.18.68-1.49.24-3.25.8-4.73.42l.06.46c1.15-.83,2.35-1.55,3.63-2.16.26-.13.07-.52-.19-.46-1.14.27-2.3.46-3.47.52-.88.05-3.22.32-3.6-.55-.33-.78.59-1.11,1.19-1.48.45-.28.92-.55,1.38-.81,1.12-.61,2.28-1.14,3.47-1.6.26-.1.23-.47-.07-.49-2.49-.15-4.97-.29-7.46-.44-1.13-.07-3.59-.17-2.68-2.19.46-1.02,1.8-1.5,2.56-2.29.18-.19,0-.47-.24-.42-1.1.22-2.13.59-3.13,1.1-.26.13-.08.53.19.46,1.99-.52,4-.77,6.05-.77l-.18-.43c-1.41,1.49-3.25,2.25-5.13,2.97-.29.11-.18.58.13.48,2.14-.63,4.31-1.1,6.53-1.38l-.07-.49-7.19,2.53c-.25.09-.23.52.07.49l7.52-.83-.13-.47c-2.18,1.01-4.36,2.02-6.55,3.03-.27.13-.07.51.19.46,3.64-.68,7.27-1.36,10.91-2.04l-.19-.46c-2.78,1.42-5.74,2.32-8.83,2.68l.07.49c3.94-1.08,7.95-1.85,12.01-2.28l-.07-.49c-3.34,1.27-6.8,2.14-10.34,2.59l.07.49c3.71-.87,7.47-1.49,11.27-1.86l-.13-.47c-2.94,1.28-6.06,1.95-9.27,1.99l.07.49c5.39-1.15,10.91-1.31,16.35-.47l-.06-.46c-4.58,2.13-9.64,2.55-14.61,2.91-.32.02-.33.5,0,.5,4.19.05,8.37.35,12.53.89l-.24-.32-.61.6c-.32.04-.18.53.13.48h0Z"/>
  <path class="cls-1" d="m50.76,74.7l4.16-2.33-.34-.34c-.33.44-.64.89-.93,1.35-.17.27-.49.64-.48.99.01.56.59.55.97.4,1.88-.73,3.44-2.52,4.8-3.93l-.39-.3c-.48.97-1.11,1.95-1.47,2.97-.14.39-.09.79.39.85.64.08,1.25-.71,1.67-1.07.86-.76,1.73-1.51,2.59-2.27l-.35-.35c-.82.82-1.5,1.73-2.07,2.73-.11.2.07.4.28.37,2.42-.4,4.6-1.66,6.16-3.56.21-.25-.1-.55-.35-.35-.66.52-1.21,1.12-1.65,1.83-.17.27.26.52.43.25.42-.68.95-1.24,1.57-1.73l-.35-.35c-1.51,1.84-3.59,3.04-5.93,3.43l.28.37c.54-.97,1.2-1.85,1.99-2.63.23-.23-.11-.56-.35-.35-1.01.88-2.01,1.77-3.02,2.65-.06.05-.66.63-.74.54-.18-.2.36-1.02.45-1.21.31-.62.61-1.23.92-1.85.12-.24-.19-.52-.39-.3-1.02,1.06-2.05,2.13-3.26,2.98-.28.2-.56.38-.85.55-.26.15-.8.56-.67.05.07-.28.38-.62.54-.86.21-.32.43-.62.66-.93.16-.21-.14-.46-.34-.34l-4.16,2.33c-.28.16-.03.59.25.43h0Z"/>
  <path class="cls-1" d="m33.21,48.72c-1.74.23-3.31.99-4.56,2.23-.17.17,0,.49.24.42,1.05-.32,2.1-.65,3.15-.97l-.13-.48c-2.14.83-4.38,1.77-5.67,3.78-.1.15.03.39.22.38,1.14-.07,2.27-.15,3.41-.22l-.18-.43c-2.6,2.09-6.32,1.45-9.23,2.87-.19.09-.14.41.06.46,2.24.5,4.53.61,6.8.33l-.13-.47c-1.61,1.07-3.56,1.61-5.02,2.91-.49.43-1.42,1.34-1.09,2.08.36.79,1.89.83,2.61.82.32,0,.32-.5,0-.5-.51,0-1.02-.04-1.51-.19-.16-.04-.31-.1-.46-.17l-.05-.69c.05-.18.28-.41.4-.54.47-.54,1.06-.95,1.68-1.31,1.21-.7,2.53-1.19,3.69-1.97.18-.12.14-.5-.13-.47-2.23.28-4.47.18-6.67-.31l.06.46c2.97-1.45,6.65-.8,9.33-2.95.17-.13.03-.44-.18-.43-1.14.07-2.27.15-3.41.22l.22.38c1.21-1.89,3.36-2.76,5.37-3.55.29-.11.18-.58-.13-.48-1.05.32-2.1.65-3.15.97l.24.42c1.15-1.14,2.6-1.87,4.2-2.08.31-.04.32-.54,0-.5h0Z"/>
  <path class="cls-1" d="m19.86,69.73c-1.13.86-1.92,2.08-2.15,3.5-.08.49-.05.95.47,1.16s1.01-.14,1.4-.45l-.39-.05c.6,1.36-.46,2.62-1.03,3.77-.3.6-.8,1.62.03,2.02.75.37,1.91-.07,2.62-.33,1.02-.38,1.93-.94,2.75-1.65l-.39-.3c-.37.63-.8,1.26-1.11,1.93-.12.26-.25.51-.12.79.11.23.4.31.48.56.09.26-.12.64-.2.88-.13.37-.27.73-.19,1.13.13.75.85,1.26,1.57,1.38,1.07.18,2.05-.5,2.88-1.08l-.34-.34c-.08.17-.17.35-.25.52-.14.29.29.54.43.25.08-.17.17-.35.25-.52.1-.2-.12-.5-.34-.34-.73.52-1.61,1.18-2.56,1.02-.46-.08-.91-.35-1.09-.79s.05-.86.19-1.27c.18-.51.22-.84-.05-1.31-.16-.28-.34,0-.23-.63.04-.19.25-.43.35-.6.26-.44.51-.88.77-1.32.15-.25-.18-.49-.39-.3-.78.68-1.66,1.21-2.64,1.56-.43.15-.88.27-1.33.35-.16.03-.57.1-.74.01-.46-.24-.13-.86,0-1.14.65-1.46,1.87-2.82,1.14-4.49-.07-.16-.28-.14-.39-.05l-.3.22-.75-.3c-.05-.09.09-.52.13-.66.09-.35.23-.7.4-1.02.34-.65.83-1.21,1.41-1.66.25-.19,0-.63-.25-.43h0Z"/>
  <path class="cls-1" d="m34.02,45.75l.25.5c.06.13.23.14.34.09.75-.35,1.33-.92,1.69-1.67.07-.15,0-.4-.22-.38-1.57.19-3.03.77-4.29,1.74l.3.39c.68-.86,1.25-1.78,1.68-2.79.09-.22-.11-.48-.34-.34-.88.49-1.78.92-2.72,1.28l.24.42c.63-.52,1.21-1.08,1.74-1.7.18-.21-.05-.54-.3-.39l-3.71,2.16c-.28.16-.03.59.25.43,1.53-.86,2.88-1.97,4.01-3.31l-.39-.3c-.18.27-.39.37-.69.42l.19.46c.46-.32,3.01-2.02,2.12-2.69-.44-.33-1.18.18-1.56.36-.81.39-1.59.83-2.35,1.31l.3.39c.68-.53,1.23-1.16,1.66-1.9.12-.21-.13-.49-.34-.34-1.31.88-2.71,1.58-4.2,2.08l.19.46c1.59-1.01,3.19-2.03,4.53-3.37.17-.17,0-.49-.24-.42-1.29.38-2.45,1-3.49,1.85-.22.18.07.56.3.39,1.07-.75,2.12-1.52,3.17-2.29.1-.07.18-.23.09-.34-.4-.52-1-.24-1.52-.04-1,.38-2,.77-3,1.15l.19.46c1.11-.84,2.47-1.87,2.71-3.34s-1.21-1.76-2.31-1.75l.13.47c.16-.09.32-.19.47-.28.28-.16.03-.6-.25-.43-.16.09-.32.19-.47.28-.21.13-.12.47.13.47.44,0,.94,0,1.34.21.7.37.49,1.16.18,1.74-.49.93-1.37,1.59-2.19,2.21-.2.15-.1.57.19.46.68-.26,1.36-.52,2.04-.78.26-.1,1.7-.84,1.92-.56l.09-.34c-1.05.77-2.11,1.54-3.17,2.29l.3.39c.97-.79,2.07-1.37,3.27-1.72l-.24-.42c-1.31,1.31-2.87,2.31-4.42,3.29-.23.15-.09.55.19.46,1.53-.52,2.98-1.23,4.32-2.13l-.34-.34c-.41.71-.93,1.3-1.58,1.8-.22.18.07.54.3.39.91-.56,1.85-1.09,2.82-1.53.11-.05.22-.1.34-.15.15.07.14.15-.03.23-.1.2-.38.4-.54.55-.41.38-.84.73-1.3,1.04-.24.17-.09.5.19.46.43-.07.74-.29.99-.65.16-.23-.21-.52-.39-.3-1.11,1.3-2.42,2.39-3.91,3.23l.25.43,3.71-2.16-.3-.39c-.53.62-1.11,1.18-1.74,1.7-.19.16.01.5.24.42.98-.37,1.93-.81,2.84-1.33l-.34-.34c-.42.97-.94,1.87-1.6,2.69-.16.2.06.58.3.39,1.18-.91,2.55-1.49,4.03-1.67l-.22-.38c-.32.68-.82,1.17-1.51,1.49l.34.09-.25-.5c-.14-.29-.58-.03-.43.25h0Z"/>
  <path class="cls-1" d="m39.9,42.11c.09-1.79.1-3.59.04-5.38,0-.27-.42-.35-.49-.07-.35,1.51-.81,2.99-1.38,4.43l.48.13c.87-2.41,1.42-4.91,1.66-7.46.02-.25-.35-.33-.47-.13-.72,1.27-1.45,2.55-2.17,3.82-.16.28.27.53.43.25.9-1.54,1.16-3.28.75-5.02-.05-.22-.34-.23-.46-.06-.94,1.39-1.89,2.77-2.83,4.16l.46.19c.25-.94.4-1.9.38-2.87,0-.63,0-1.48-.42-2.01-.89-1.14-1.83.17-2.07,1.05-.09.31.38.44.48.13.35-1.05.58-2.12.7-3.23.02-.18-.23-.32-.38-.22-1.08.78-2.08,1.65-3,2.63l.39.3c.37-.77.7-1.57.97-2.38.19-.6.67-1.59.3-2.21-.76-1.26-2.12.6-2.8.81l.28.37c.5-.76.54-1.92-.31-2.47-.7-.46-1.63-.22-2.05.47l.46.19c.11-.53.23-1.06.34-1.59.04-.2-.12-.33-.31-.31-.5.07-1,.14-1.49.2l.28.37c.54-.71.6-1.54.22-2.34-.14-.29-.57-.04-.43.25.31.64.2,1.28-.22,1.84-.15.2.1.39.28.37.5-.07,1-.14,1.49-.2l-.31-.31c-.11.53-.23,1.06-.34,1.59-.06.27.3.44.46.19.31-.51,1.02-.62,1.47-.21.5.46.34,1.21.02,1.7-.12.18.08.43.28.37.29-.09.51-.21.75-.41.52-.43,1.61-1.51,1.44.14-.11,1.1-.76,2.34-1.23,3.32-.12.24.19.52.39.3.89-.94,1.85-1.79,2.9-2.55l-.38-.22c-.11,1.06-.34,2.08-.68,3.09l.48.13c.05-.2.11-.39.2-.57.18-.46.57-.45,1.17.05.21.29.14.99.15,1.34.01.93-.12,1.84-.37,2.74-.08.28.3.42.46.19.94-1.39,1.89-2.77,2.83-4.16l-.46-.06c.38,1.61.14,3.21-.7,4.63l.43.25c.72-1.27,1.45-2.55,2.17-3.82l-.47-.13c-.23,2.51-.78,4.96-1.64,7.33-.11.31.37.43.48.13.57-1.45,1.02-2.92,1.38-4.43l-.49-.07c.06,1.8.05,3.59-.04,5.38-.02.32.48.32.5,0h0Z"/>
  <path class="cls-1" d="m41.44,38.15l.58-1.43-.49-.07c0,.6-.06,1.2-.19,1.78-.06.27.31.44.46.19.4-.67.8-1.34,1.2-2.01l-.46-.19c-.24,1.19-.48,2.38-.72,3.57-.06.29.29.42.46.19.34-.45.61-.94.8-1.47.14-.39.44-1.11-.1-1.33-.19-.08-.41-.05-.6,0-.29.08-.58.2-.87.3-.62.21-1.23.42-1.85.63l.28.37c.31-.63.61-1.26.92-1.89.12-.24-.18-.52-.39-.3-.51.52-1,1.06-1.46,1.63-.23.29-.46.58-.68.88-.16.22-.36.49-.24.78.23.54,1.15.24,1.55.09.58-.22,1.1-.58,1.5-1.05.2-.25-.15-.6-.35-.35-.3.36-.67.65-1.1.85-.22.1-.46.18-.7.22-.11.02-.22.04-.33.04-.15,0-.08-.05-.01-.16.62-.93,1.41-1.78,2.19-2.57l-.39-.3c-.31.63-.61,1.26-.92,1.89-.09.18.06.44.28.37.47-.16.94-.32,1.42-.49.24-.08.49-.17.73-.25.21-.07.43-.17.65-.22.04,0,.15-.04.19,0,.04.03-.02.18-.03.24-.06.22-.13.44-.21.65-.17.43-.41.83-.69,1.2l.46.19c.24-1.19.48-2.38.72-3.57.05-.27-.31-.45-.46-.19-.4.67-.8,1.34-1.2,2.01l.46.19c.15-.63.22-1.27.21-1.92,0-.3-.39-.32-.49-.07l-.58,1.43c-.12.3.36.43.48.13h0Z"/>
  <path class="cls-1" d="m39.12,40.13c-2.1,1.04-4.19,2.09-6.29,3.13-.28.14-.06.5.19.46,2.72-.4,5.31-1.48,7.52-3.13.26-.19.04-.57-.25-.43-1.15.52-2.07,1.46-2.56,2.63-.12.29.25.53.43.25.25-.4.39-.81.44-1.28.02-.2-.23-.29-.38-.22-1.29.63-2.49,1.42-3.58,2.34-.2.17.01.48.24.42.94-.26,1.82-.66,2.62-1.21.22-.15.09-.56-.19-.46-1.65.63-3.24,1.42-4.74,2.37l.34.34c.12-.18.24-.36.36-.53.18-.27-.25-.52-.43-.25-.12.18-.24.36-.36.53-.14.21.14.47.34.34,1.46-.92,3.01-1.7,4.62-2.31l-.19-.46c-.77.52-1.6.91-2.5,1.16l.24.42c1.06-.9,2.23-1.65,3.48-2.26l-.38-.22c-.04.37-.17.71-.37,1.03l.43.25c.46-1.1,1.3-1.96,2.38-2.45l-.25-.43c-2.18,1.62-4.71,2.68-7.4,3.08l.19.46c2.1-1.04,4.19-2.09,6.29-3.13.29-.14.04-.57-.25-.43h0Z"/>
  <path class="cls-1" d="m30.66,47.89c.33-.34.69-.52,1.15-.6l-.24-.42c-.76.62-1.61,1.19-2.3,1.88-.28.28-.53.72-.17,1.05.44.39,1.19-.08,1.61-.27.95-.42,1.86-.89,2.75-1.42l-.25-.43c-1.29.82-2.57,1.66-3.54,2.86-.09.11-.11.32.05.39.76.37,1.58.33,2.28-.15.26-.18.02-.6-.25-.43-1.17.73-2.34,1.46-3.5,2.19-.59.37-1.64.84-1.39,1.71.03.12.13.17.24.18,1.91.25,3.81-.08,5.53-.93.29-.14.04-.57-.25-.43-2.46,1.21-4.92,2.42-7.38,3.63-.2.1-.13.4.06.46,1.96.61,3.95.08,5.85-.48l-.13-.48c-3.12,1.02-6.19,2.2-9.19,3.52-.07.03-.13.14-.12.22.08.69.8.65,1.35.61,1.19-.09,2.37-.18,3.56-.27l-.13-.47c-.51.39-1.05.71-1.64.97-.29.13-.04.56.25.43.59-.26,1.13-.58,1.64-.97.17-.13.15-.49-.13-.47-1.14.09-2.29.18-3.43.26-.08,0-.73.12-.79.03-.16-.02-.1-.06.17-.12.12-.05.24-.11.36-.16.59-.25,1.18-.5,1.77-.74,2.12-.86,4.28-1.65,6.45-2.36.3-.1.18-.57-.13-.48-1.82.54-3.71,1.06-5.59.48l.06.46c2.46-1.21,4.92-2.42,7.38-3.63l-.25-.43c-1.65.82-3.46,1.11-5.28.87l.24.18c-.19-.64,1.77-1.52,2.21-1.8.82-.51,1.63-1.02,2.45-1.53l-.25-.43c-.55.38-1.17.45-1.78.15l.05.39c.95-1.16,2.19-1.98,3.44-2.78.27-.17.03-.6-.25-.43-.52.31-1.04.6-1.58.87-.27.14-.54.27-.81.39-.25.11-.76.48-1.01.43-.18.12-.27.06-.25-.2l.13-.12c.13-.24.6-.49.81-.66.47-.39.95-.77,1.42-1.16.21-.17-.03-.46-.24-.42-.55.09-.99.33-1.37.73-.22.23.13.59.35.35h0Z"/>
  <path class="cls-1" d="m43.9,83.14c.12.97-.12,1.93-.7,2.73l.43.25c.78-1.23,1.19-2.67,1.17-4.13,0-.23-.36-.37-.47-.13-.56,1.29-1.3,2.48-2.21,3.55-.21.24.14.6.35.35.94-1.1,1.72-2.32,2.29-3.65l-.47-.13c.02,1.37-.36,2.72-1.1,3.87-.18.28.25.51.43.25.62-.85.89-1.93.76-2.98-.02-.14-.1-.25-.25-.25-.12,0-.27.12-.25.25h0Z"/>
  <path class="cls-1" d="m37.64,81.51l-.41,1.43c-.04.13.04.28.17.31s.27-.04.31-.17l.41-1.43c.04-.13-.04-.28-.17-.31s-.27.04-.31.17h0Z"/>
  <path class="cls-1" d="m38.76,81.92c-.38,1.32-1.16,2.5-2.22,3.37-.25.2.11.56.35.35,1.12-.93,1.95-2.19,2.35-3.59.09-.31-.39-.44-.48-.13h0Z"/>
  <path class="cls-1" d="m41.78,79.44c-.28,1.85-1.72,3.29-1.97,5.15-.02.18.11.37.31.31.44-.13.8-.43.98-.85.13-.29-.3-.55-.43-.25s-.36.52-.68.62l.31.31c.26-1.86,1.69-3.29,1.97-5.15.05-.31-.43-.45-.48-.13h0Z"/>
  <path class="cls-1" d="m43.69,78.79c-.31,1.01-.88,1.92-1.64,2.65-.23.22.12.58.35.35.82-.79,1.43-1.78,1.77-2.87.09-.31-.39-.44-.48-.13h0Z"/>
  <path class="cls-1" d="m67.73,56.07c-.58.04-1.07.33-1.37.82-.11.18.07.43.28.37,2.38-.71,4.84-1.1,7.32-1.17.13,0,.26-.11.25-.25-.04-.45-.54-.39-.77-.11-.2.25.15.61.35.35.11-.08.08-.16-.08-.25l.25-.25c-2.53.07-5.03.47-7.45,1.19l.28.37c.21-.34.54-.55.94-.58.32-.02.32-.52,0-.5h0Z"/>
  <path class="cls-1" d="m68.52,56.42c1.29,1.51,3.14,2.5,5.11,2.79.93.14,1.88.12,2.81-.07s1.92-.51,2.34-1.4c.14-.29-.29-.54-.43-.25-.4.85-1.48,1.09-2.32,1.22s-1.8.12-2.68-.06c-1.73-.34-3.31-1.24-4.45-2.58-.21-.24-.56.11-.35.35h0Z"/>
  <path class="cls-1" d="m65.17,56.6c2.54.91,5.28,1.2,7.96,1.34,2.24.12,4.59-.04,6.46-1.41.26-.19,0-.62-.25-.43-1.86,1.37-4.21,1.46-6.43,1.33-2.57-.15-5.17-.44-7.6-1.31-.3-.11-.43.37-.13.48h0Z"/>
  <path class="cls-1" d="m67,56.37c3.21.5,6.46.49,9.66-.04.32-.05.18-.53-.13-.48-3.11.52-6.29.53-9.4.04-.31-.05-.45.43-.13.48h0Z"/>
  <path class="cls-1" d="m66.78,43.83c4.1,3.26,8.91,5.51,14.05,6.57.31.06.45-.42.13-.48-5.04-1.04-9.79-3.24-13.82-6.44-.25-.2-.61.15-.35.35h0Z"/>
  <path class="cls-1" d="m74.68,46.56c1.83,1.19,3.73,2.24,5.71,3.16.29.13.54-.3.25-.43-1.97-.92-3.88-1.97-5.71-3.16-.27-.18-.52.26-.25.43h0Z"/>
  <path class="cls-1" d="m76.98,47.38c.92.34,1.54,1.13,2.07,1.91.57.82,1.09,1.7,1.85,2.37.24.21.6-.14.35-.35-1.52-1.34-2.11-3.66-4.14-4.41-.3-.11-.43.37-.13.48h0Z"/>
  <path class="cls-1" d="m81.83,48.92c1.6.85,2.88,2.22,3.63,3.88.13.29.56.04.43-.25-.78-1.73-2.14-3.17-3.81-4.06-.28-.15-.54.28-.25.43h0Z"/>
  <path class="cls-1" d="m82.33,51.71c1.47.07,2.87.64,3.97,1.62.52.46.96.99,1.31,1.59.43.76.63,1.6.94,2.41.23.59.53,1.14.93,1.63.45.56,1.21,1,1.37,1.74.19.83-.19,1.78-.18,2.64.01.78.17,1.54.43,2.27.11.3.59.17.48-.13-.33-.93-.48-1.9-.38-2.88.08-.76.35-1.56.04-2.31-.27-.66-.89-1.05-1.33-1.58-.68-.8-.96-1.78-1.3-2.75-.94-2.7-3.4-4.6-6.28-4.73-.32-.02-.32.48,0,.5h0Z"/>
  <path class="cls-1" d="m92.48,66.47c.04-2.39-.08-4.79-.39-7.17-.25-1.88-.68-3.79-1.85-5.34-2.58-3.42-7.17-4.04-10.94-5.42-.3-.11-.43.37-.13.48,3.6,1.32,7.99,1.9,10.55,5.07,1.32,1.64,1.71,3.78,1.95,5.82.25,2.17.35,4.36.32,6.55,0,.32.49.32.5,0h0Z"/>
  <path class="cls-1" d="m79.42,50.46c2.39,1.55,5.31,1.89,7.74,3.33,1.43.85,2.04,2.09,2.39,3.67s.72,3.29.26,4.91c-.09.31.39.44.48.13.46-1.58.15-3.2-.17-4.78-.3-1.48-.74-2.9-1.97-3.87-2.47-1.94-5.86-2.13-8.47-3.83-.27-.18-.52.26-.25.43h0Z"/>
  <path class="cls-1" d="m79.53,58.1c3.22.86,6.14,2.65,8.34,5.17.52.6.97,1.25,1.5,1.84s1.15.95,1.76,1.41c.91.68.98,2.38,2.2,2.61.31.06.45-.42.13-.48-.68-.13-.87-.93-1.14-1.48-.3-.59-.75-.97-1.3-1.33-1.41-.94-2.25-2.38-3.41-3.58-2.17-2.24-4.94-3.84-7.96-4.65-.31-.08-.44.4-.13.48h0Z"/>
  <path class="cls-1" d="m89.86,63.36c.77,1.6,2.23,2.73,2.96,4.36.69,1.53.96,3.23,2.07,4.54.21.25.56-.11.35-.35-1.1-1.3-1.34-3.06-2.05-4.57s-2.15-2.68-2.9-4.24c-.14-.29-.57-.04-.43.25h0Z"/>
  <path class="cls-1" d="m91.82,64.15c.98,1.83,1.94,3.68,2.87,5.54.14.29.58.04.43-.25-.93-1.86-1.88-3.7-2.87-5.54-.15-.28-.58-.03-.43.25h0Z"/>
  <path class="cls-1" d="m91.93,61.82c.66,2.04,1.65,3.97,2.92,5.7.19.26.62,0,.43-.25-1.25-1.69-2.22-3.58-2.87-5.58-.1-.3-.58-.17-.48.13h0Z"/>
</svg>